<?xml version="1.0" standalone="no"?><!DOCTYPE svg PUBLIC "-//W3C//DTD SVG 1.1//EN" "http://www.w3.org/Graphics/SVG/1.1/DTD/svg11.dtd" ><svg xmlns="http://www.w3.org/2000/svg"><metadata></metadata><defs><font id="HappyZcool" horiz-adv-x="1000"><font-face font-family="HappyZcool" font-weight="400" font-stretch="normal" units-per-em="1000" panose-1="2 1 6 0 3 1 1 1 1 1" ascent="859" descent="-141" x-height="1" bbox="0 -107 929 769" underline-thickness="46" underline-position="-85" unicode-range="U+0021-ff0c" /><missing-glyph horiz-adv-x="1000" d="M250 656 q62 0 121 -33 q59 -33 92 -93.5 q33 -60.5 33 -123 q0 -62.5 -31 -123 q-31 -60.5 -92 -94 q-61 -33.5 -125 -33.5 q-64 0 -123 33.5 q-59 33.5 -92 94 q-33 60.5 -33 123 q0 62.5 33 123 q33 60.5 94 93.5 q61 33 123 33 ZM246 633 q-55 0 -109.5 -29.5 q-54.5 -29.5 -84 -84 q-29.5 -54.5 -29.5 -113 q0 -58.5 29.5 -111.5 q29.5 -53 84 -84 q54.5 -31 111.5 -31 q57 0 111.5 31 q54.5 31 84 84 q29.5 53 29.5 111.5 q0 58.5 -29.5 113 q-29.5 54.5 -84 84 q-54.5 29.5 -113.5 29.5 ZM371 566 l8 -101 l-12 0 q-16 47 -43 66.5 q-27 19.5 -64 15.5 q-37 -4 -70.5 -29.5 q-33.5 -25.5 -45 -60.5 q-11.5 -35 -5.5 -76 q6 -41 39 -74.5 q33 -33.5 84 -33.5 q70 0 109 55 l12 -8 q-47 -70 -133 -70 q-70 0 -115 45 q-45 45 -45 109.5 q0 64.5 39 109.5 q39 45 84 52.5 q45 7.5 74 1.5 q29 -6 47 -21.5 q18 -15.5 21.5 -7.5 q3.5 8 3.5 27 l12 0 Z" /><glyph glyph-name="uni4E00" unicode="&#x4e00;" d="M898 379 q1 -9 -4 -16.5 q-5 -7.5 -14 -8.5 l-740 -118 q-9 -1 -16 4 q-7 5 -8 13 l-14 87 q-2 10 3 17 q5 7 15 9 l739 118 q9 2 16 -3.5 q7 -5.5 9 -13.5 l14 -88 l0 0 Z" /><glyph glyph-name="uni4E0A" unicode="&#x4e0a;" d="M879 22 q1 -12 -6.5 -20 q-7.5 -8 -18.5 -8 l-704 -17 q-11 -1 -19 6 q-8 7 -8 19 l-2 66 q0 11 7.5 18.5 q7.5 7.5 18.5 8.5 l244 6 q12 1 20 8 q8 7 9 18 l37 590 q1 11 9 18.5 q8 7.5 20 7.5 l43 -4 q11 -1 18.5 -8.5 q7.5 -7.5 5.5 -18.5 l-13 -225 q-2 -10 5.5 -17 q7.5 -7 18.5 -6 l139 20 q10 2 19 -5 q9 -7 10 -17 l9 -66 q2 -11 -5 -19.5 q-7 -8.5 -17 -9.5 l-162 -23 q-12 -2 -20 -10.5 q-8 -8.5 -8 -18.5 l-12 -185 q-2 -11 5.5 -19 q7.5 -8 19.5 -7 l308 8 q12 0 20 -6.5 q8 -6.5 8 -18.5 l1 -65 Z" /><glyph glyph-name="uni4E0B" unicode="&#x4e0b;" d="M791 680 q3 -11 -3 -20.5 q-6 -9.5 -17 -11.5 l-212 -40 q-11 -3 -18.5 -12 q-7.5 -9 -9.5 -20 l-15 -581 q-1 -11 -8.5 -18 q-7.5 -7 -18.5 -6 l-66 1 q-11 0 -18.5 8 q-7.5 8 -7.5 18 l16 555 q0 11 -7.5 17 q-7.5 6 -17.5 3 l-177 -34 q-11 -3 -20 3.5 q-9 6.5 -11 16.5 l-10 49 q-2 10 4.5 19.5 q6.5 9.5 16.5 11.5 l560 109 q12 2 20.5 -4 q8.5 -6 10.5 -17 l9 -47 ZM825 283 q7 -8 5.5 -18.5 q-1.5 -10.5 -9.5 -17.5 l-43 -37 q-9 -7 -19.5 -6.5 q-10.5 0.5 -17.5 8.5 l-141 165 q-6 8 -5 19 q1 11 9 17 l42 37 q10 8 20 7 q10 -1 18 -9 l141 -165 Z" /><glyph glyph-name="uni4E0D" unicode="&#x4e0d;" d="M549 457 q8 1 14 -5.5 q6 -6.5 6 -14.5 l15 -447 q1 -10 -5 -16 q-6 -6 -14 -6 l-54 -2 q-8 0 -13.5 5.5 q-5.5 5.5 -6.5 14.5 l-15 448 q0 9 5.5 14.5 q5.5 5.5 13.5 6.5 l54 2 ZM885 262 q5 -7 3.5 -15 q-1.5 -8 -7.5 -14 l-66 -48 q-7 -4 -15 -3.5 q-8 0.5 -14 7.5 l-157 222 q-5 6 -4 14.5 q1 8.5 8 13.5 l66 50 q7 3 15 2.5 q8 -0.5 12 -7.5 l159 -222 ZM849 680 q0 -10 -5.5 -15.5 q-5.5 -5.5 -13.5 -6.5 l-219 -11 q-8 -1 -17.5 -5.5 q-9.5 -4.5 -14.5 -10.5 l-392 -481 q-5 -7 -13.5 -8 q-8.5 -1 -14.5 4 l-41 36 q-6 4 -7 13 q-1 9 5 15 l337 414 q4 7 2 11 q-2 4 -9 4 l-255 -12 q-7 0 -13.5 5 q-6.5 5 -7.5 14 l-2 56 q0 8 5.5 14 q5.5 6 12.5 6 l639 31 q8 1 14.5 -5 q6.5 -6 6.5 -14 l3 -54 Z" /><glyph glyph-name="uni4E0E" unicode="&#x4e0e;" d="M500 522 q-9 -2 -16.5 3 q-7.5 5 -10.5 13 l-5 27 q-2 9 3.5 16.5 q5.5 7.5 14.5 9.5 l285 60 q8 2 16 -3 q8 -5 11 -14 l4 -27 q3 -8 -2.5 -16 q-5.5 -8 -14.5 -9 l-285 -60 ZM406 318 q-11 0 -17 6.5 q-6 6.5 -8 15.5 l-35 363 q-1 9 5 16 q6 7 15 8 l27 2 q9 1 15.5 -4.5 q6.5 -5.5 7.5 -15.5 l29 -299 q1 -9 8 -15 q7 -6 16 -6 l344 0 q9 0 15 -6.5 q6 -6.5 6 -15.5 l0 -305 q0 -9 -6 -17 q-6 -8 -15 -9 l-251 -45 q-9 -1 -16.5 4 q-7.5 5 -10.5 13 l-3 26 q-2 10 3 17.5 q5 7.5 14 8.5 l193 34 q10 2 16 9 q6 7 6 18 l0 174 q0 11 -6 17 q-6 6 -16 6 l-336 0 ZM195 68 q-9 -3 -16.5 2.5 q-7.5 5.5 -9.5 13.5 l-3 14 q-2 8 2.5 15.5 q4.5 7.5 13.5 9.5 l486 113 q9 2 16.5 -2.5 q7.5 -4.5 9.5 -13.5 l4 -13 q2 -9 -3 -16.5 q-5 -7.5 -15 -10.5 l-485 -112 Z" /><glyph glyph-name="uni4E1C" unicode="&#x4e1c;" d="M831 676 q9 1 16.5 -5 q7.5 -6 8.5 -15 l1 -12 q2 -10 -3.5 -16.5 q-5.5 -6.5 -14.5 -8.5 l-347 -35 q-9 -1 -19 -7 q-10 -6 -15 -14 l-107 -171 q-4 -8 -1 -14 q3 -6 12 -7 l86 -3 q9 0 16 5.5 q7 5.5 8 14.5 l11 81 q1 9 8.5 14.5 q7.5 5.5 16.5 4.5 l50 -5 q10 -2 15 -8.5 q5 -6.5 4 -14.5 l-9 -76 q-1 -10 4 -16 q5 -6 14 -7 l140 -7 q11 0 16.5 -7 q5.5 -7 4.5 -16 l-2 -40 q-1 -10 -7.5 -15.5 q-6.5 -5.5 -15.5 -5.5 l-146 7 q-9 0 -16.5 -6 q-7.5 -6 -9.5 -15 l-31 -243 q-1 -8 -8.5 -14.5 q-7.5 -6.5 -16.5 -6.5 l-177 0 q-8 0 -15 6.5 q-7 6.5 -7 14.5 l0 42 q0 9 7 15.5 q7 6.5 15 6.5 l92 0 q10 0 17 5.5 q7 5.5 8 15.5 l22 163 q0 9 -5 15 q-5 6 -14 8 l-232 11 q-9 0 -12 6 q-3 6 2 14 l147 237 q5 8 2 12.5 q-3 4.5 -11 3.5 l-98 -11 q-10 -1 -17 5 q-7 6 -8 15 l-1 13 q-1 9 4 16 q5 7 14 8 l143 15 q9 1 19 6.5 q10 5.5 15 13.5 l42 67 q4 8 13.5 11 q9.5 3 17.5 -2 l44 -20 q8 -5 10 -13.5 q2 -8.5 -2 -15.5 l-10 -15 q-4 -8 -1 -12.5 q3 -4.5 12 -3.5 l301 31 ZM342 197 q6 -8 3.5 -16 q-2.5 -8 -10.5 -12 l-149 -83 q-8 -4 -17.5 -2 q-9.5 2 -14.5 10 l-8 11 q-5 8 -3.5 16.5 q1.5 8.5 10.5 12.5 l149 82 q8 4 18 2.5 q10 -1.5 14 -9.5 l8 -12 ZM607 197 q6 7 15 8.5 q9 1.5 17 -3.5 l192 -125 q8 -5 8.5 -13.5 q0.5 -8.5 -5.5 -15.5 l-21 -27 q-6 -8 -15.5 -9 q-9.5 -1 -17.5 4 l-192 126 q-8 5 -9 13.5 q-1 8.5 6 15.5 l22 26 Z" /><glyph glyph-name="uni4E2A" unicode="&#x4e2a;" d="M515 670 q-1 -1 3 -5.5 q4 -4.5 12 -9.5 l329 -216 q8 -6 10 -14.5 q2 -8.5 -3 -16.5 l-24 -36 q-5 -8 -13.5 -9.5 q-8.5 -1.5 -16.5 3.5 l-339 223 q-8 4 -17.5 3 q-9.5 -1 -14.5 -8 l-230 -266 q-6 -6 -15 -7.5 q-9 -1.5 -16 5.5 l-43 37 q-7 6 -7.5 15 q-0.5 9 5.5 16 l292 338 q7 7 15.5 7.5 q8.5 0.5 15.5 -5.5 l42 -36 q7 -6 12 -11.5 q5 -5.5 3 -6.5 ZM505 494 q10 0 16.5 -6 q6.5 -6 6.5 -15 l16 -459 q0 -10 -5.5 -16 q-5.5 -6 -15.5 -7 l-31 -1 q-9 0 -16 5.5 q-7 5.5 -7 15.5 l-16 459 q0 9 6.5 16 q6.5 7 14.5 7 l31 1 Z" /><glyph glyph-name="uni4E3A" unicode="&#x4e3a;" d="M274 684 q6 7 14.5 8 q8.5 1 16.5 -5 l63 -49 q7 -6 8.5 -15 q1.5 -9 -4.5 -16 l-28 -35 q-5 -7 -14 -8 q-9 -1 -16 5 l-64 49 q-7 6 -8 15 q-1 9 5 16 l27 35 ZM765 461 q9 -1 16.5 -8 q7.5 -7 10.5 -16 l62 -358 q2 -9 -3 -17 q-5 -8 -13 -11 l-164 -49 q-9 -2 -17 2 q-8 4 -10 13 l-8 25 q-3 9 2 16.5 q5 7.5 13 11.5 l103 31 q9 2 14 9.5 q5 7.5 3 17.5 l-43 244 q-1 8 -8.5 15 q-7.5 7 -17.5 8 l-217 20 q-9 1 -18.5 -4.5 q-9.5 -5.5 -13.5 -13.5 l-215 -407 q-5 -7 -13.5 -10 q-8.5 -3 -16.5 1 l-55 29 q-7 4 -10 13 q-3 9 2 17 l194 368 q3 8 0.5 13.5 q-2.5 5.5 -12.5 6.5 l-141 14 q-9 1 -15 7.5 q-6 6.5 -5 15.5 l3 27 q1 9 7.5 14.5 q6.5 5.5 16.5 4.5 l170 -15 q9 -1 18.5 4.5 q9.5 5.5 13.5 13.5 l113 215 q5 7 13.5 9.5 q8.5 2.5 16.5 -1.5 l54 -29 q8 -4 11 -13 q3 -9 -2 -16 l-92 -176 q-4 -8 -1 -13.5 q3 -5.5 13 -6.5 l241 -22 ZM650 267 q8 -4 11 -12 q3 -8 0 -16 l-20 -39 q-5 -10 -13.5 -12.5 q-8.5 -2.5 -16.5 1.5 l-113 57 q-8 4 -10.5 12.5 q-2.5 8.5 0.5 17.5 l20 39 q4 8 12.5 10.5 q8.5 2.5 16.5 -0.5 l113 -58 Z" /><glyph glyph-name="uni4E48" unicode="&#x4e48;" d="M177 375 q-5 4 -7 11.5 q-2 7.5 2 13.5 l192 310 q4 6 11 7.5 q7 1.5 13 -1.5 l38 -23 q6 -5 7.5 -12 q1.5 -7 -1.5 -12 l-192 -311 q-4 -7 -11.5 -8.5 q-7.5 -1.5 -13.5 1.5 l-38 24 ZM702 102 q1 -7 -3.5 -13 q-4.5 -6 -11.5 -7 l-523 -80 q-8 -1 -10.5 3 q-2.5 4 0.5 9 l411 685 q5 6 11.5 8 q6.5 2 12.5 -2 l50 -29 q7 -4 8 -11.5 q1 -7.5 -3 -13.5 l-309 -517 q-3 -6 -1 -9.5 q2 -3.5 9 -2.5 l330 51 q7 1 13.5 -3.5 q6.5 -4.5 7.5 -11.5 l8 -56 ZM848 47 q1 -9 -3 -14.5 q-4 -5.5 -11 -6.5 l-56 -12 q-7 -1 -13.5 3 q-6.5 4 -7.5 12 l-45 230 q-1 7 3 13 q4 6 11 8 l56 10 q7 3 13.5 -2 q6.5 -5 7.5 -11 l45 -230 Z" /><glyph glyph-name="uni4E4B" unicode="&#x4e4b;" d="M443 644 q-7 3 -11 10 q-4 7 -2 15 l15 48 q1 8 8 11.5 q7 3.5 15 1.5 l158 -46 q7 -3 11 -10 q4 -7 0 -13 l-13 -49 q-3 -8 -9 -12 q-6 -4 -14 -2 l-158 46 ZM828 92 q8 0 14 -5 q6 -5 6 -13 l0 -51 q0 -8 -6 -13 q-6 -5 -14 -5 l-577 0 q-8 0 -18 -3.5 q-10 -3.5 -17 -7.5 l-5 -4 q-6 -4 -14 -2.5 q-8 1.5 -13 7.5 l-27 42 q-5 6 -4 13.5 q1 7.5 7 12.5 l518 353 q5 4 10 7 q5 3 3 4 q0 1 -5.5 2.5 q-5.5 1.5 -13.5 2.5 l-438 37 q-8 1 -13.5 6.5 q-5.5 5.5 -4.5 13.5 l5 50 q1 8 6.5 13 q5.5 5 13.5 4 l489 -41 q9 0 16 -6 q7 -6 11 -13 l39 -84 q3 -7 1 -15 q-2 -8 -9 -12 l-412 -282 q-5 -5 -4.5 -8 q0.5 -3 8.5 -3 l448 0 Z" /><glyph glyph-name="uni4E5F" unicode="&#x4e5f;" d="M883 158 q10 -2 14.5 -9.5 q4.5 -7.5 1.5 -16.5 l-33 -128 q-3 -9 -10.5 -15.5 q-7.5 -6.5 -17.5 -6.5 l-687 -26 q-11 -1 -16 5 q-5 6 -4 15 l58 463 q1 10 -4 15 q-5 5 -16 5 l-35 -4 q-10 -1 -16.5 4.5 q-6.5 5.5 -8.5 14.5 l-9 88 q-1 9 5 16 q6 7 15 8 l66 7 q10 1 16.5 8 q6.5 7 8.5 16 l16 120 q1 9 8 14 q7 5 16 4 l87 -10 q9 -2 14.5 -9.5 q5.5 -7.5 4.5 -15.5 l-11 -88 q-1 -9 4 -15 q5 -6 15 -5 l82 10 q10 1 16 7 q6 6 6 17 l0 94 q0 9 6.5 16 q6.5 7 15.5 7 l62 0 q9 0 15.5 -7 q6.5 -7 6.5 -16 l0 -84 q0 -9 6.5 -15 q6.5 -6 15.5 -5 l279 30 q10 2 15.5 -4 q5.5 -6 4.5 -15 l-41 -434 q-2 -9 -8 -13.5 q-6 -4.5 -15 -2.5 l-179 46 q-8 2 -12.5 9.5 q-4.5 7.5 -3.5 17.5 l23 85 q3 9 10 13.5 q7 4.5 17 2.5 l27 -7 q9 -2 16 2.5 q7 4.5 8 13.5 l12 118 q1 10 -5.5 15.5 q-6.5 5.5 -15.5 4.5 l-132 -14 q-9 -1 -15.5 -8 q-6.5 -7 -6.5 -16 l0 -251 q0 -9 -6.5 -15 q-6.5 -6 -15.5 -6 l-62 0 q-9 0 -15.5 6 q-6.5 6 -6.5 15 l0 240 q0 9 -6 14.5 q-6 5.5 -16 4.5 l-98 -10 q-10 -1 -17.5 -8 q-7.5 -7 -8.5 -16 l-42 -341 q-1 -9 4.5 -14.5 q5.5 -5.5 14.5 -5.5 l435 17 q9 0 17 6 q8 6 11 16 l9 33 q2 8 9.5 13 q7.5 5 16.5 2 l85 -22 l0 0 Z" /><glyph glyph-name="uni4E86" unicode="&#x4e86;" d="M722 672 q0 -8 -4.5 -14 q-4.5 -6 -11.5 -7 q-6 0 -13 -5 q-7 -5 -10 -12 l-109 -256 q-3 -7 -5.5 -18 q-2.5 -11 -2.5 -19 l0 -353 q0 -8 -5.5 -12.5 q-5.5 -4.5 -13.5 -3.5 l-252 31 q-8 1 -12.5 7.5 q-4.5 6.5 -3.5 14.5 l7 56 q1 8 7 12.5 q6 4.5 14 4.5 l145 -18 q8 -1 13 4 q5 5 5 13 l0 263 q0 8 2.5 18.5 q2.5 10.5 5.5 18.5 l99 231 q3 8 0 13.5 q-3 5.5 -11 4.5 l-228 -11 q-8 0 -14 6 q-6 6 -7 13 l-1 57 q-1 8 4 14 q5 6 13 6 l366 16 q8 1 13.5 -4 q5.5 -5 5.5 -13 l4 -58 l0 0 Z" /><glyph glyph-name="uni4E8B" unicode="&#x4e8b;" d="M867 235 q1 -10 -5 -16.5 q-6 -6.5 -16 -6.5 l-77 -1 q-9 0 -15.5 -7 q-6.5 -7 -6.5 -16 l0 -81 q0 -10 -6 -16 q-6 -6 -15 -6 l-210 0 q-8 0 -15 -6 q-7 -6 -8 -15 l-7 -79 q-1 -10 -8 -15.5 q-7 -5.5 -16 -4.5 l-158 12 q-10 1 -15.5 7.5 q-5.5 6.5 -4.5 15.5 l3 45 q2 8 8 14.5 q6 6.5 15 5.5 l73 -6 q9 -1 15.5 3 q6.5 4 7.5 10 q0 5 -6 9 q-6 4 -15 4 l-122 0 q-9 0 -15.5 6 q-6.5 6 -6.5 16 l0 44 q0 9 6.5 15.5 q6.5 6.5 15.5 6.5 l129 0 q9 0 16 4.5 q7 4.5 8 10.5 q0 6 -5.5 10.5 q-5.5 4.5 -14.5 4.5 l-242 -6 q-9 0 -15.5 6.5 q-6.5 6.5 -6.5 15.5 l0 22 q-1 9 5.5 15.5 q6.5 6.5 15.5 7.5 l247 4 q10 0 16.5 4 q6.5 4 6.5 9 q1 5 -5 8 q-6 3 -16 5 l-177 13 q-9 2 -15.5 8.5 q-6.5 6.5 -4.5 16.5 l3 43 q1 9 8 15 q7 6 15 5 l179 -14 q10 -1 16.5 2.5 q6.5 3.5 6.5 8.5 q2 6 -4.5 9.5 q-6.5 3.5 -15.5 3.5 l-244 0 q-9 0 -13.5 6.5 q-4.5 6.5 -1.5 15.5 l44 148 q3 10 5 16 q2 6 3 6 q1 0 1.5 6.5 q0.5 6.5 -0.5 15.5 l-2 41 q0 10 6 16.5 q6 6.5 15 8.5 l212 10 q9 0 16 7 q7 7 8 16 l1 16 q2 9 8.5 15 q6.5 6 16.5 5 l43 -4 q9 -1 15 -8 q6 -7 5 -16 l0 -3 q-1 -10 4.5 -16 q5.5 -6 14.5 -5 l175 8 q9 1 15.5 -5.5 q6.5 -6.5 7.5 -15.5 l2 -44 q2 -9 -4.5 -16 q-6.5 -7 -15.5 -7 l-187 -9 q-9 -1 -16 -3 q-7 -2 -7 -6 q-1 -3 5.5 -5 q6.5 -2 16.5 -2 l193 0 q11 0 17 -6 q6 -6 6 -17 l0 -146 q0 -10 -6 -16.5 q-6 -6.5 -17 -6.5 l-210 0 q-9 0 -16 -4.5 q-7 -4.5 -8 -11.5 q0 -7 5.5 -12 q5.5 -5 15.5 -6 l184 -14 q9 -1 15 -8 q6 -7 6 -16 l0 -35 q0 -10 6.5 -16 q6.5 -6 15.5 -6 l76 1 q8 2 15 -4.5 q7 -6.5 7 -15.5 l0 -22 ZM554 509 q-9 0 -16 -2.5 q-7 -2.5 -7 -5.5 q0 -3 6 -5 q6 -2 16 -2 l115 0 q9 0 15.5 2 q6.5 2 6.5 5 q0 3 -6.5 5.5 q-6.5 2.5 -15.5 2.5 l-114 0 ZM420 494 q10 0 16.5 2 q6.5 2 7.5 5 q0 3 -6.5 5.5 q-6.5 2.5 -15.5 2.5 l-130 0 q-9 0 -16 -2.5 q-7 -2.5 -8 -5.5 q-1 -3 4.5 -5 q5.5 -2 14.5 -2 l133 0 ZM429 597 q10 0 16.5 1 q6.5 1 6.5 4 q0 2 -6.5 3 q-6.5 1 -15.5 1 l-166 -9 q-9 0 -9 0 q0 0 9 0 l165 0 ZM535 283 q-10 1 -16 -0.5 q-6 -1.5 -7 -5.5 q0 -2 6 -4 q6 -2 16 -1 l95 1 q9 1 9 1.5 q0 0.5 -9 0.5 l-94 8 ZM637 173 q9 0 15.5 5 q6.5 5 6.5 12 q0 8 -6.5 13 q-6.5 5 -15.5 4 l-109 -2 q-11 0 -17 -5 q-6 -5 -7 -11 q0 -7 5.5 -11.5 q5.5 -4.5 14.5 -4.5 l113 0 Z" /><glyph glyph-name="uni4E8E" unicode="&#x4e8e;" d="M302 655 q-8 0 -14 6.5 q-6 6.5 -6 16.5 l2 43 q0 10 7 16 q7 6 15 6 l391 -15 q9 -2 15.5 -8 q6.5 -6 5.5 -15 l-2 -44 q-1 -9 -7 -15.5 q-6 -6.5 -16 -5.5 l-391 15 ZM867 437 q1 -10 -4 -17 q-5 -7 -14 -9 l-200 -31 q-10 -1 -15 -9 q-5 -8 -4 -16 l31 -271 q1 -11 -4 -19 q-5 -8 -14 -11 l-228 -75 q-8 -3 -16 1 q-8 4 -12 13 l-21 64 q-3 8 0.5 16 q3.5 8 12.5 12 l142 47 q9 2 14 10.5 q5 8.5 4 18.5 l-20 176 q-2 9 -8.5 14 q-6.5 5 -16.5 4 l-328 -52 q-11 -2 -18 3 q-7 5 -8 15 l-7 42 q-2 10 4 17 q6 7 15 8 l332 54 q9 2 15 8.5 q6 6.5 5 17.5 l-11 79 q-1 9 5 16 q6 7 15 8 l68 8 q9 1 16 -4 q7 -5 8 -15 l9 -75 q1 -9 8 -14.5 q7 -5.5 16 -3.5 l197 31 q9 2 16.5 -4 q7.5 -6 8.5 -15 l7 -42 Z" /><glyph glyph-name="uni4EB2" unicode="&#x4eb2;" d="M831 456 q9 0 16 -5.5 q7 -5.5 7 -16.5 l2 -42 q0 -22 -22 -25 l-248 -10 q-21 -1 -21 -22 l1 -9 q1 -9 8 -15.5 q7 -6.5 15 -5.5 l161 0 q9 2 15.5 -5 q6.5 -7 6.5 -15 l1 -44 q0 -9 -6 -16 q-6 -7 -16 -7 l-155 -1 q-9 0 -15.5 -7 q-6.5 -7 -5.5 -15 l14 -189 q1 -10 -5 -17 q-6 -7 -14 -8 l-164 -18 q-10 -1 -17 5 q-7 6 -8 14 l-3 45 q-3 8 3.5 15 q6.5 7 14.5 8 l79 9 q8 3 15 9 q7 6 6 14 l-9 112 q-1 8 -7.5 15 q-6.5 7 -15.5 7 l-152 -3 q-8 0 -14.5 6.5 q-6.5 6.5 -6.5 15.5 l-1 44 q0 9 6.5 15.5 q6.5 6.5 14.5 6.5 l146 2 q9 0 15.5 6.5 q6.5 6.5 5.5 15.5 l0 6 q-1 9 -8 15.5 q-7 6.5 -16 6.5 l-286 -13 q-9 0 -15.5 6.5 q-6.5 6.5 -7.5 14.5 l-2 44 q0 8 6.5 15 q6.5 7 15.5 7 l144 7 q9 0 14.5 7 q5.5 7 4.5 16 l-9 85 q-1 8 -8.5 15 q-7.5 7 -16.5 6 l-61 -2 q-9 -1 -15.5 5 q-6.5 6 -7.5 15 l-1 26 q-2 10 5 16.5 q7 6.5 15 7.5 l235 10 q8 0 10.5 6 q2.5 6 -4.5 11 l-37 44 q-6 7 -5.5 16 q0.5 9 6.5 15 l21 17 q7 6 16 6 q9 0 15 -8 l70 -80 q15 -16 13 -20 q-2 -1 18 -1 l220 10 q20 0 23 -20 l1 -27 q0 -9 -6.5 -16 q-6.5 -7 -14.5 -7 l-31 -2 q-10 0 -17.5 -7 q-7.5 -7 -10.5 -15 l-18 -90 q-2 -9 3.5 -15.5 q5.5 -6.5 13.5 -4.5 l81 3 ZM398 459 q1 -9 8 -14.5 q7 -5.5 18 -5.5 l210 8 q8 1 16 8 q8 7 11 15 l18 90 q2 8 -3 14.5 q-5 6.5 -14 5.5 l-253 -12 q-10 0 -15.5 -7 q-5.5 -7 -4.5 -15 l9 -87 ZM428 125 q4 -9 1.5 -18 q-2.5 -9 -11.5 -12 l-120 -60 q-8 -4 -16.5 -1.5 q-8.5 2.5 -13.5 10.5 l-19 39 q-5 10 -2 18 q3 8 11 12 l121 60 q9 5 17 2 q8 -3 13 -11 l19 -39 ZM672 160 q5 7 13.5 8.5 q8.5 1.5 16.5 -3.5 l130 -98 q8 -4 9 -13 q1 -9 -5 -15 l-25 -36 q-6 -8 -15 -9 q-9 -1 -17 4 l-129 96 q-8 4 -9 13.5 q-1 9.5 5 17.5 l26 35 Z" /><glyph glyph-name="uni4EBA" unicode="&#x4eba;" d="M249 32 q-5 -8 -14 -9 q-9 -1 -17 4 l-55 42 q-7 4 -8 13.5 q-1 9.5 4 16.5 l439 588 q6 7 14.5 8.5 q8.5 1.5 16.5 -3.5 l54 -41 q8 -6 9 -14.5 q1 -8.5 -4 -16.5 l-177 -239 q-6 -6 -5 -15.5 q1 -9.5 9 -13.5 l321 -233 q8 -5 9 -14.5 q1 -9.5 -4 -15.5 l-36 -50 q-6 -8 -15 -9.5 q-9 -1.5 -16 3.5 l-322 232 q-8 6 -16.5 5 q-8.5 -1 -14.5 -8 l-172 -230 Z" /><glyph glyph-name="uni4ECE" unicode="&#x4ece;" d="M647 457 q-5 -8 -2 -17 q3 -9 10 -14 l215 -128 q8 -4 10.5 -13 q2.5 -9 -2.5 -17 l-35 -60 q-5 -8 -14 -10.5 q-9 -2.5 -18 2.5 l-205 124 q-8 5 -17 2 q-9 -3 -12 -11 l-85 -172 q-5 -8 -13.5 -11 q-8.5 -3 -15.5 1 l-32 16 q-8 4 -11.5 13 q-3.5 9 0.5 16 l196 398 q5 8 13.5 11 q8.5 3 16.5 -1 l32 -16 q7 -4 10.5 -12.5 q3.5 -8.5 -1.5 -16.5 l-40 -84 ZM395 268 q-3 -8 -12.5 -10 q-9.5 -2 -16.5 3 l-78 46 q-8 4 -16.5 2 q-8.5 -2 -12.5 -10 l-66 -134 q-4 -8 -12.5 -11.5 q-8.5 -3.5 -16.5 1.5 l-32 16 q-8 4 -11 13 q-3 9 2 16 l171 347 q3 8 12.5 11 q9.5 3 16.5 -1 l32 -16 q8 -4 11 -12 q3 -8 -1 -18 l-40 -78 q-3 -8 -0.5 -17 q2.5 -9 10.5 -14 l84 -52 q8 -4 10.5 -12.5 q2.5 -8.5 -2.5 -16.5 l-32 -53 Z" /><glyph glyph-name="uni4EE5" unicode="&#x4ee5;" d="M392 312 q7 -7 6 -16 q-1 -9 -8 -15 l-275 -226 q-7 -6 -12 -4 q-5 2 -5 12 l0 653 q0 8 7 15 q7 7 16 7 l87 0 q10 0 16 -7 q6 -7 6 -15 l0 -374 q0 -9 5.5 -11.5 q5.5 -2.5 12.5 4.5 l58 47 q7 6 15.5 5.5 q8.5 -0.5 15.5 -7.5 l55 -68 ZM345 648 q-2 9 2.5 16.5 q4.5 7.5 13.5 9.5 l43 11 q9 2 16.5 -3 q7.5 -5 9.5 -15 l51 -217 q2 -9 -3 -16.5 q-5 -7.5 -14 -9.5 l-43 -11 q-9 -2 -16.5 3 q-7.5 5 -9.5 15 l-50 217 ZM660 360 q-3 -8 -9.5 -18.5 q-6.5 -10.5 -11.5 -17.5 l-296 -338 q-6 -7 -15 -8 q-9 -1 -16 5 l-67 59 q-6 6 -7 15 q-1 9 5 16 l279 320 q6 7 13 17.5 q7 10.5 10 18.5 l113 311 q4 8 12.5 11.5 q8.5 3.5 16.5 1.5 l83 -31 q8 -3 12 -11.5 q4 -8.5 0 -16.5 l-122 -334 ZM900 43 q4 -8 2 -16.5 q-2 -8.5 -10 -13.5 l-75 -46 q-8 -4 -17 -2 q-9 2 -13 10 l-151 245 q-4 8 -2 17.5 q2 9.5 10 13.5 l75 46 q8 5 16.5 2.5 q8.5 -2.5 13.5 -10.5 l151 -246 Z" /><glyph glyph-name="uni4EEC" unicode="&#x4eec;" d="M496 631 q7 -7 7.5 -15.5 q0.5 -8.5 -6.5 -15.5 l-53 -60 q-7 -6 -15.5 -6.5 q-8.5 -0.5 -15.5 5.5 l-52 47 q-7 6 -7.5 15 q-0.5 9 6.5 16 l52 59 q7 7 16 7.5 q9 0.5 16 -5.5 l52 -47 ZM431 132 q-1 -9 -8 -15 q-7 -6 -16 -5 l-34 4 q-11 1 -16.5 8 q-5.5 7 -4.5 15 l28 312 q1 10 8 15.5 q7 5.5 16 4.5 l34 -3 q11 -1 16.5 -8 q5.5 -7 4.5 -16 l-28 -312 ZM805 704 q9 2 15.5 -3.5 q6.5 -5.5 7.5 -14.5 l35 -612 q0 -9 -6 -17 q-6 -8 -15 -10 l-130 -31 q-9 -2 -16.5 3 q-7.5 5 -9.5 14 l-14 59 q-3 9 2 16.5 q5 7.5 14 9.5 l44 11 q9 2 14.5 10 q5.5 8 4.5 16 l-22 402 q-1 10 -7.5 15 q-6.5 5 -15.5 3 l-137 -29 q-9 -1 -16.5 3.5 q-7.5 4.5 -8.5 13.5 l-14 61 q-1 9 3.5 16.5 q4.5 7.5 15.5 8.5 l256 55 ZM236 577 q1 9 -4.5 15 q-5.5 6 -15.5 5 l-49 -7 q-9 -1 -16 4.5 q-7 5.5 -8 14.5 l-5 35 q-1 9 4 16 q5 7 15 8 l147 19 q9 2 14.5 -3.5 q5.5 -5.5 4.5 -14.5 l-53 -622 q-1 -9 -7 -15 q-6 -6 -17 -5 l-34 4 q-9 1 -15 7.5 q-6 6.5 -5 15.5 l44 523 Z" /><glyph glyph-name="uni4EFB" unicode="&#x4efb;" d="M256 502 q0 9 -4.5 11.5 q-4.5 2.5 -11.5 -3.5 l-49 -40 q-7 -6 -15.5 -5.5 q-8.5 0.5 -15.5 7.5 l-33 42 q-7 6 -6 15.5 q1 9.5 8 15.5 l223 186 q7 6 11.5 3.5 q4.5 -2.5 3.5 -11.5 l-46 -718 q-1 -9 -8 -14.5 q-7 -5.5 -16 -5.5 l-53 3 q-10 1 -16 8 q-6 7 -4 16 l32 490 ZM854 455 q9 1 16 -4.5 q7 -5.5 8 -16.5 l1 -31 q1 -9 -4.5 -16 q-5.5 -7 -15.5 -7 l-172 -14 q-9 -1 -15.5 -8 q-6.5 -7 -5.5 -16 l21 -262 q1 -9 8 -15.5 q7 -6.5 16 -5.5 l88 5 q9 1 15 -5.5 q6 -6.5 8 -16.5 l1 -11 q0 -10 -6.5 -16.5 q-6.5 -6.5 -14.5 -6.5 l-325 -18 q-10 -1 -16.5 5 q-6.5 6 -6.5 16 l-2 11 q0 11 6.5 17 q6.5 6 14.5 6 l97 6 q9 1 15.5 7.5 q6.5 6.5 4.5 15.5 l-21 260 q-2 10 -8 16 q-6 6 -15 5 l-141 -12 q-9 -1 -16 5 q-7 6 -8 16 l-2 31 q-1 9 5 16 q6 7 15 8 l141 11 q9 1 14.5 8 q5.5 7 4.5 16 l-8 95 q0 9 -6 12.5 q-6 3.5 -14 0.5 l-95 -45 q-8 -3 -16.5 0 q-8.5 3 -11.5 10 l-6 12 q-4 8 -1 16.5 q3 8.5 11 13.5 l342 160 q8 4 16.5 0.5 q8.5 -3.5 11.5 -11.5 l6 -11 q4 -8 0.5 -17 q-3.5 -9 -10.5 -12 l-114 -53 q-8 -5 -13 -14 q-5 -9 -4 -18 l10 -132 q1 -10 7.5 -15.5 q6.5 -5.5 16.5 -4.5 l173 14 Z" /><glyph glyph-name="uni4F1A" unicode="&#x4f1a;" d="M485 736 q8 5 18.5 5 q10.5 0 17.5 -4 l338 -197 q8 -5 10.5 -14 q2.5 -9 -2.5 -17 l-26 -45 q-5 -8 -13.5 -10.5 q-8.5 -2.5 -16.5 2.5 l-285 167 q-8 3 -19 3 q-11 0 -18 -4 l-295 -203 q-8 -5 -17.5 -3.5 q-9.5 1.5 -13.5 9.5 l-30 43 q-5 8 -3.5 17 q1.5 9 8.5 14 l347 237 ZM667 450 q0 -10 -5.5 -16.5 q-5.5 -6.5 -14.5 -6.5 l-246 -11 q-10 -1 -16.5 5 q-6.5 6 -6.5 16 l-3 48 q-1 10 5.5 16.5 q6.5 6.5 15.5 6.5 l246 11 q9 1 15.5 -5 q6.5 -6 7.5 -15 l2 -49 ZM187 -22 q-10 -1 -12.5 3 q-2.5 4 2.5 12 l193 277 q4 8 2 12.5 q-2 4.5 -12 4.5 l-123 -9 q-9 -1 -15.5 5 q-6.5 6 -7.5 14 l-1 22 q-1 11 4.5 17 q5.5 6 15.5 7 l559 41 q9 1 16 -5.5 q7 -6.5 7 -15.5 l2 -22 q1 -9 -5.5 -16 q-6.5 -7 -15.5 -8 l-274 -20 q-9 0 -19 -5.5 q-10 -5.5 -15 -13.5 l-116 -168 q-6 -8 -3 -12 q3 -4 12 -3 l278 34 q10 2 12.5 7.5 q2.5 5.5 -4.5 12.5 l-26 35 q-6 6 -5 15.5 q1 9.5 8 15.5 l18 13 q7 6 16 5 q9 -1 15 -8 l143 -179 q6 -9 5 -17.5 q-1 -8.5 -8 -14.5 l-17 -13 q-8 -6 -17 -5 q-9 1 -14 8 l-22 27 q-6 8 -16.5 12 q-10.5 4 -19.5 3 l-540 -68 Z" /><glyph glyph-name="uni4F46" unicode="&#x4f46;" d="M423 103 q-10 -1 -18 6 q-8 7 -8 18 l-11 527 q-1 10 7 18.5 q8 8.5 19 11.5 l455 69 q11 0 18.5 -6.5 q7.5 -6.5 6.5 -17.5 l-10 -571 q0 -10 -7.5 -18 q-7.5 -8 -19.5 -9 l-432 -28 ZM545 570 q-10 -1 -17.5 -10 q-7.5 -9 -6.5 -20 l0 -39 q0 -12 8 -19.5 q8 -7.5 18 -8.5 l164 -7 q10 -1 18 -9 q8 -8 7 -18 l-1 -36 q-1 -10 -9.5 -17.5 q-8.5 -7.5 -19.5 -7.5 l-156 8 q-12 0 -19.5 -7.5 q-7.5 -7.5 -7.5 -17.5 l2 -94 q0 -10 8 -17.5 q8 -7.5 19 -6.5 l173 12 q12 0 19.5 8.5 q7.5 8.5 8.5 18.5 l5 294 q1 11 -7 17.5 q-8 6.5 -19 5.5 l-187 -29 ZM899 16 q0 -11 -7.5 -19 q-7.5 -8 -17.5 -9 l-499 -23 q-12 0 -19.5 7.5 q-7.5 7.5 -8.5 17.5 l-2 58 q-1 10 6.5 18 q7.5 8 18.5 9 l498 22 q12 1 20 -6.5 q8 -7.5 8 -18.5 l3 -56 ZM307 620 q-7 -8 -11.5 -21.5 q-4.5 -13.5 -4.5 -24.5 l24 -583 q0 -10 -7 -18 q-7 -8 -18 -9 l-80 -2 q-10 0 -18 6.5 q-8 6.5 -8 18.5 l-20 462 q-1 12 -6.5 24.5 q-5.5 12.5 -13.5 19.5 l-34 29 q-8 6 -8.5 17 q-0.5 11 6.5 19 l32 37 q7 9 12 15.5 q5 6.5 5 7.5 q0 2 3 2 q1 0 6.5 6.5 q5.5 6.5 12.5 14.5 l95 107 q6 8 17 9 q11 1 19 -5 l43 -38 q9 -8 9.5 -19 q0.5 -11 -6.5 -19 l-49 -56 Z" /><glyph glyph-name="uni4F55" unicode="&#x4f55;" d="M316 498 q-8 -3 -13 -11 q-5 -8 -4 -16 l73 -470 q1 -9 -4.5 -16.5 q-5.5 -7.5 -13.5 -8.5 l-70 -11 q-8 -1 -15.5 4.5 q-7.5 5.5 -8.5 14.5 l-70 459 q-1 8 -8.5 13 q-7.5 5 -15.5 2 l-29 -7 q-9 -3 -16.5 2 q-7.5 5 -9.5 13 l-18 69 q-2 8 2.5 15.5 q4.5 7.5 12.5 9.5 l220 57 q9 3 16.5 -2 q7.5 -5 9.5 -14 l18 -68 q2 -8 -2.5 -15.5 q-4.5 -7.5 -12.5 -9.5 l-41 -10 ZM888 745 q8 0 14.5 -6.5 q6.5 -6.5 5.5 -15.5 l-4 -70 q0 -9 -7 -15 q-7 -6 -15 -6 l-19 1 q-10 2 -16 -4.5 q-6 -6.5 -5 -14.5 l55 -611 q0 -8 -5 -15.5 q-5 -7.5 -14 -9.5 l-144 -24 q-8 -2 -15.5 3 q-7.5 5 -8.5 14 l-13 69 q0 9 4.5 16.5 q4.5 7.5 13.5 8.5 l41 7 q9 1 14.5 8.5 q5.5 7.5 4.5 15.5 l-47 523 q-1 9 -7.5 15 q-6.5 6 -15.5 8 l-246 11 q-9 0 -15 6.5 q-6 6.5 -6 15.5 l4 70 q1 9 7.5 15 q6.5 6 15.5 6 l423 -21 ZM713 183 q0 -10 -5.5 -16.5 q-5.5 -6.5 -15.5 -7.5 l-243 -30 q-10 -2 -16.5 3.5 q-6.5 5.5 -7.5 14.5 l-29 268 q-1 8 4 15.5 q5 7.5 14 8.5 l264 46 q9 1 15 -4 q6 -5 6 -14 l14 -284 ZM575 259 q8 0 14.5 6.5 q6.5 6.5 5.5 16.5 l-3 51 q0 10 -6.5 15 q-6.5 5 -14.5 4 l-33 -6 q-9 -1 -14.5 -8.5 q-5.5 -7.5 -4.5 -16.5 l6 -47 q1 -10 8 -15 q7 -5 16 -4 l26 4 Z" /><glyph glyph-name="uni4F59" unicode="&#x4f59;" d="M185 447 q-8 -6 -16.5 -4 q-8.5 2 -13.5 10 l-19 30 q-5 8 -3.5 16.5 q1.5 8.5 10.5 13.5 l333 217 q8 4 17 2.5 q9 -1.5 13 -9.5 l19 -30 q5 -7 4 -16 q-1 -9 -9 -14 l-335 -216 ZM854 521 q8 -3 12 -11.5 q4 -8.5 1 -16.5 l-9 -24 q-2 -9 -10.5 -13 q-8.5 -4 -17.5 -1 l-305 110 q-9 3 -13 11.5 q-4 8.5 0 16.5 l9 25 q3 8 11 12 q8 4 18 1 l304 -110 ZM548 4 q0 -9 -6 -14 q-6 -5 -15 -4 l-154 24 q-10 1 -15 8.5 q-5 7.5 -4 16.5 l6 35 q1 9 8.5 13.5 q7.5 4.5 16.5 3.5 l59 -8 q9 -1 15.5 4 q6.5 5 5.5 14 l-5 136 q0 9 -7 15.5 q-7 6.5 -16 6.5 l-83 -4 q-10 0 -16.5 6.5 q-6.5 6.5 -6.5 15.5 l-1 18 q0 9 6.5 15 q6.5 6 15.5 8 l83 2 q9 0 15 6.5 q6 6.5 6 16.5 l-2 60 q0 9 -7 15.5 q-7 6.5 -16 6.5 l-107 0 q-10 0 -16 6 q-6 6 -6 15 l0 27 q0 9 6 15.5 q6 6.5 16 6.5 l323 0 q8 0 15 -6.5 q7 -6.5 7 -15.5 l0 -27 q0 -9 -7 -15 q-7 -6 -15 -6 l-93 0 q-9 0 -15.5 -6.5 q-6.5 -6.5 -6.5 -15.5 l3 -58 q1 -9 7 -15.5 q6 -6.5 16 -6.5 l71 3 q9 1 15.5 -5.5 q6.5 -6.5 7.5 -15.5 l0 -18 q0 -10 -6 -16 q-6 -6 -15 -6 l-71 -3 q-9 -1 -15.5 -7 q-6.5 -6 -5.5 -16 l9 -231 ZM217 36 q-8 -5 -17 -3.5 q-9 1.5 -14 8.5 l-19 30 q-6 8 -4.5 16 q1.5 8 9.5 14 l167 113 q8 5 16.5 3.5 q8.5 -1.5 14.5 -9.5 l20 -29 q4 -8 3 -16.5 q-1 -8.5 -9 -14.5 l-167 -112 ZM828 -5 q-5 -7 -14 -9 q-9 -2 -17 2 l-193 117 q-7 5 -9.5 13.5 q-2.5 8.5 2.5 16.5 l23 38 q4 8 13 10 q9 2 17 -2 l193 -118 q8 -4 10.5 -13 q2.5 -9 -2.5 -17 l-23 -38 Z" /><glyph glyph-name="uni4F60" unicode="&#x4f60;" d="M316 735 q11 4 18 -2 q7 -6 5 -16 l-64 -709 q-1 -11 -9 -18 q-8 -7 -20 -6 l-47 4 q-10 1 -17 9.5 q-7 8.5 -6 19.5 l51 563 q1 12 -6 17 q-7 5 -17 3 l-42 -13 q-11 -2 -20.5 3 q-9.5 5 -12.5 15 l-13 45 q-2 11 2.5 20.5 q4.5 9.5 16.5 11.5 l181 53 ZM865 603 q11 0 16 -7.5 q5 -7.5 1 -17.5 l-52 -137 q-3 -10 -13 -15 q-10 -5 -20 -1 l-21 8 q-10 3 -14.5 13.5 q-4.5 10.5 -1.5 19.5 l14 37 q4 10 -1 17 q-5 7 -16 7 l-357 -2 q-11 0 -15 7 q-4 7 -1 16 l88 185 q4 10 15 13.5 q11 3.5 20 -0.5 l20 -10 q10 -4 13.5 -14.5 q3.5 -10.5 -0.5 -19.5 l-37 -78 q-4 -9 0 -16 q4 -7 16 -7 l346 2 ZM648 467 q11 -1 18 -9 q7 -8 6 -19 l-37 -443 q-1 -11 -9.5 -18 q-8.5 -7 -19.5 -7 l-133 4 q-12 1 -19.5 8.5 q-7.5 7.5 -5.5 19.5 l1 47 q1 10 8.5 18 q7.5 8 18.5 7 l38 -1 q12 -1 20 6.5 q8 7.5 9 18.5 l30 348 q1 11 9 18 q8 7 20 6 l46 -4 ZM452 155 q-3 -12 -13 -16.5 q-10 -4.5 -20 -1.5 l-22 7 q-10 4 -15 13.5 q-5 9.5 -1 20.5 l49 150 q4 11 13.5 15.5 q9.5 4.5 20.5 1.5 l20 -8 q12 -3 16.5 -12 q4.5 -9 1.5 -21 l-50 -149 ZM866 92 q6 -9 3.5 -19 q-2.5 -10 -11.5 -16 l-41 -24 q-10 -6 -20 -3 q-10 3 -16 12 l-108 179 q-6 9 -3.5 19.5 q2.5 10.5 12.5 16.5 l39 24 q11 6 21 3 q10 -3 16 -12 l108 -180 Z" /><glyph glyph-name="uni4FBF" unicode="&#x4fbf;" d="M275 594 q8 0 14 -6.5 q6 -6.5 5 -14.5 l-39 -576 q-1 -8 -7.5 -13.5 q-6.5 -5.5 -15.5 -4.5 l-41 2 q-10 1 -15.5 7.5 q-5.5 6.5 -4.5 14.5 l38 575 q1 9 7.5 15 q6.5 6 15.5 4 l43 -3 ZM843 393 q-2 -8 -2.5 -19 q-0.5 -11 0.5 -18 q2 -7 -4 -13 q-6 -6 -14 -7 l-168 -25 q-8 -1 -15 -7.5 q-7 -6.5 -8 -15.5 l-8 -75 q-1 -8 -2.5 -15 q-1.5 -7 -3.5 -8 q-1 -1 3.5 -4.5 q4.5 -3.5 12.5 -6.5 l222 -111 q8 -3 11 -11 q3 -8 -1 -16 l-20 -37 q-3 -7 -12 -10 q-9 -3 -16 2 l-247 122 q-8 4 -17.5 2.5 q-9.5 -1.5 -15.5 -7.5 l-120 -112 q-7 -7 -15.5 -7 q-8.5 0 -14.5 7 l-38 36 q-5 6 -5 14.5 q0 8.5 5 14.5 l98 92 q6 6 5 13 q-1 7 -9 11 l-109 53 q-8 5 -10 12.5 q-2 7.5 1 15.5 l20 38 q4 7 12.5 9.5 q8.5 2.5 16.5 -1.5 l133 -67 q8 -3 14 -5.5 q6 -2.5 7 -2.5 q1 1 2 8 q1 7 2 15 l3 17 q1 8 -5 13.5 q-6 5.5 -15 3.5 l-17 -2 q-8 -1 -15 4 q-7 5 -8 12 l-4 21 q-1 9 4.5 16 q5.5 7 13.5 8 l34 5 q8 1 15 8 q7 7 8 15 l0 1 q1 9 -4 14 q-5 5 -14 4 l-39 -3 q-8 -1 -15 4 q-7 5 -8 14 l-3 21 q-1 8 5 14.5 q6 6.5 14 7.5 l53 6 q9 1 16 7 q7 6 8 14 q1 8 -5 14 q-6 6 -15 5 l-92 -6 q-8 -1 -14.5 -7 q-6.5 -6 -6.5 -15 l0 -109 q0 -9 -5.5 -15 q-5.5 -6 -14.5 -6 l-22 0 q-9 0 -15 6 q-6 6 -6 15 l0 176 q0 8 6 13.5 q6 5.5 15 5.5 l22 0 q9 0 14.5 0 q5.5 0 5.5 -1 q0 -1 6.5 -1 q6.5 0 14.5 0 l99 7 q9 0 16 6.5 q7 6.5 8 14.5 l0 2 q1 8 -4 14 q-5 6 -14 4 l-170 -15 q-10 0 -16 5.5 q-6 5.5 -7 14.5 l-2 21 q-1 8 5 14 q6 6 14 8 l454 39 q9 1 15.5 -5 q6.5 -6 7.5 -14 l1 -20 q1 -10 -4 -16 q-5 -6 -14 -7 l-146 -13 q-9 -1 -15.5 -7 q-6.5 -6 -7.5 -15 l-1 -5 q-1 -8 4.5 -13.5 q5.5 -5.5 13.5 -4.5 l171 10 q10 2 14.5 -4 q4.5 -6 3.5 -14 l-31 -171 ZM798 496 q1 9 -4 15 q-5 6 -15 5 l-101 -6 q-8 -1 -15 -7 q-7 -6 -8 -13 q-1 -8 5 -12.5 q6 -4.5 15 -3.5 l17 1 q9 2 15.5 -3.5 q6.5 -5.5 7.5 -14.5 l2 -21 q1 -8 -4.5 -14 q-5.5 -6 -13.5 -7 l-32 -4 q-10 -1 -16 -7 q-6 -6 -7 -14 q-1 -8 4.5 -12 q5.5 -4 13.5 -3 l96 14 q8 1 15.5 8 q7.5 7 8.5 15 l16 84 ZM392 710 q4 -8 1.5 -16 q-2.5 -8 -10.5 -10 l-217 -106 q-8 -5 -16 -2 q-8 3 -12 11 l-10 18 q-3 8 0 15.5 q3 7.5 10 12.5 l216 105 q8 4 16 1.5 q8 -2.5 13 -9.5 l9 -20 Z" /><glyph glyph-name="uni4FDD" unicode="&#x4fdd;" d="M302 526 q9 0 16 -6 q7 -6 6 -17 l-17 -506 q0 -9 -7 -15.5 q-7 -6.5 -17 -6.5 l-69 3 q-9 0 -16 6.5 q-7 6.5 -6 16.5 l12 366 q0 11 -2.5 11 q-2.5 0 -5.5 -8 l-10 -23 q-4 -8 -12.5 -11.5 q-8.5 -3.5 -17.5 -0.5 l-43 18 q-9 3 -12.5 11.5 q-3.5 8.5 -0.5 16.5 l160 361 q5 8 13.5 12 q8.5 4 16.5 0 l44 -16 q8 -4 11.5 -12.5 q3.5 -8.5 -0.5 -16.5 l-71 -161 q-3 -8 1 -14.5 q4 -6.5 14 -7.5 l13 0 ZM896 51 q6 -7 4.5 -16 q-1.5 -9 -9.5 -14 l-43 -28 q-7 -5 -16.5 -4 q-9.5 1 -14.5 9 l-144 195 q-4 8 -8 6.5 q-4 -1.5 -4 -10.5 l0 -206 q0 -9 -7 -15 q-7 -6 -16 -6 l-59 0 q-9 0 -16 6 q-7 6 -7 15 l0 232 q0 9 -4.5 15 q-4.5 6 -12.5 6 q-8 0 -9 -3.5 q-1 -3.5 6 -7.5 q7 -4 8.5 -12 q1.5 -8 -4.5 -16 l-126 -180 q-4 -8 -14 -10 q-10 -2 -17 4 l-39 24 q-7 5 -9 13.5 q-2 8.5 4 16.5 l102 148 q4 8 1.5 13.5 q-2.5 5.5 -11.5 4.5 l-42 -3 q-9 0 -16.5 6 q-7.5 6 -7.5 15 l-2 45 q0 9 6 15.5 q6 6.5 16 7.5 l148 7 q10 1 16.5 7.5 q6.5 6.5 6.5 15.5 l0 26 q0 9 -6.5 15.5 q-6.5 6.5 -16.5 6.5 l-44 -1 q-9 0 -16 -2 q-7 -2 -7 -4 q0 -2 -7 -4 q-7 -2 -16 0 l-46 2 q-10 0 -16.5 7 q-6.5 7 -6.5 15 l13 296 q1 10 8 15.5 q7 5.5 16 5.5 q9 -1 16 -0.5 q7 0.5 7 1.5 q0 1 6.5 2 q6.5 1 16.5 2 l362 25 q9 1 16 -4.5 q7 -5.5 7 -15.5 l0 -313 q0 -10 -7 -16 q-7 -6 -16 -6 l-135 -3 q-11 0 -17 -6.5 q-6 -6.5 -6 -16.5 l0 -21 q0 -10 6 -16 q6 -6 17 -5 l149 7 q9 1 16.5 -5.5 q7.5 -6.5 7.5 -15.5 l2 -44 q2 -9 -5 -16 q-7 -7 -16 -7 l-61 -3 q-10 0 -12.5 -6 q-2.5 -6 2.5 -14 l129 -177 ZM704 508 q9 0 16 6 q7 6 7 16 l0 87 q0 8 -7 14.5 q-7 6.5 -16 5.5 l-204 -15 q-11 0 -18 -7 q-7 -7 -7 -16 l-3 -73 q0 -9 6.5 -15.5 q6.5 -6.5 15.5 -6.5 l210 4 Z" /><glyph glyph-name="uni4FE1" unicode="&#x4fe1;" d="M346 696 q8 -6 9 -14.5 q1 -8.5 -4 -16.5 l-54 -79 q-6 -8 -3 -14 q3 -6 12 -9 l2 0 q9 -2 15 -2 q6 0 6 2 q0 -15 0 -77 q0 -26 0 -66 q0 -40 0 -96 q0 -56 0 -131 q0 -75 0 -172 q2 -10 -4.5 -16 q-6.5 -6 -16.5 -6 l-44 0 q-9 0 -15.5 6 q-6.5 6 -6.5 16 l-1 463 q0 9 -3.5 10 q-3.5 1 -8.5 -7 l-40 -56 q-4 -7 -13 -8.5 q-9 -1.5 -17 3.5 l-22 14 q-8 6 -9 14.5 q-1 8.5 4 16.5 l162 234 q4 8 13.5 9 q9.5 1 16.5 -3 l22 -15 ZM573 696 q-6 8 -4 16.5 q2 8.5 10 14.5 l23 13 q8 5 16.5 3.5 q8.5 -1.5 13.5 -8.5 l32 -49 q5 -8 3 -16.5 q-2 -8.5 -9 -14.5 l-22 -13 q-8 -6 -17 -4.5 q-9 1.5 -14 9.5 l-32 49 ZM850 622 q8 0 15 -6.5 q7 -6.5 7 -15.5 l0 -26 q0 -10 -7 -16 q-7 -6 -15 -6 l-427 0 q-8 0 -15 6 q-7 6 -7 16 l0 26 q0 9 7 15.5 q7 6.5 15 6.5 l427 0 ZM509 444 q-9 1 -15 7.5 q-6 6.5 -6 15.5 l0 8 q1 10 7.5 16 q6.5 6 15.5 6 l209 -11 q10 0 16 -6 q6 -6 5 -17 l0 -9 q-1 -8 -7.5 -14.5 q-6.5 -6.5 -15.5 -6.5 l-209 11 ZM803 405 q9 0 16 -6 q7 -6 7 -15 l4 -44 q1 -9 -5 -16 q-6 -7 -16 -7 l-346 -27 q-9 -2 -16 4 q-7 6 -8 15 l-4 45 q-1 8 5 15 q6 7 16 8 l347 28 ZM800 239 q9 1 14.5 -4.5 q5.5 -5.5 4.5 -15.5 l-15 -155 q-1 -9 -2.5 -15.5 q-1.5 -6.5 -4.5 -6.5 q-2 2 -3 -4.5 q-1 -6.5 0 -15.5 l0 -15 q0 -9 -6.5 -15.5 q-6.5 -6.5 -14.5 -6.5 l-322 -10 q-8 0 -16 6 q-8 6 -9 15 l-26 180 q-2 9 4 16 q6 7 15 8 l381 39 ZM741 140 q1 9 -4.5 15 q-5.5 6 -14.5 5 l-224 -22 q-8 -1 -13.5 -8.5 q-5.5 -7.5 -4.5 -15.5 l7 -46 q1 -8 8.5 -14.5 q7.5 -6.5 16.5 -6.5 l198 6 q9 0 16 7 q7 7 8 16 l7 64 Z" /><glyph glyph-name="uni505A" unicode="&#x505a;" d="M274 517 q8 0 12.5 -5 q4.5 -5 4.5 -12 l0 -456 q0 -8 -4.5 -12.5 q-4.5 -4.5 -12.5 -4.5 l-53 0 q-7 0 -12 4.5 q-5 4.5 -5 12.5 l0 376 q0 7 -0.5 11 q-0.5 4 -2.5 3 q-1 -2 -6 -1 q-5 1 -11 6 l-45 26 q-7 5 -8.5 12 q-1.5 7 1.5 12 l122 205 q4 6 11 7.5 q7 1.5 14 -1.5 l44 -27 q7 -4 9 -11 q2 -7 -2 -13 l-70 -117 q-3 -6 -1 -10.5 q2 -4.5 10 -4.5 l5 0 ZM333 457 q-8 0 -13.5 4.5 q-5.5 4.5 -5.5 13.5 l0 52 q0 7 5.5 12.5 q5.5 5.5 13.5 5.5 l61 0 q8 0 12.5 5 q4.5 5 4.5 12 l0 110 q0 8 5 13.5 q5 5.5 13 5.5 l52 0 q8 0 13 -5.5 q5 -5.5 5 -13.5 l0 -110 q0 -7 5.5 -12 q5.5 -5 12.5 -5 l11 0 q8 0 13 -5.5 q5 -5.5 5 -12.5 l0 -52 q0 -9 -5 -13.5 q-5 -4.5 -13 -4.5 l-11 0 q-7 0 -12.5 -5 q-5.5 -5 -5.5 -13 l0 -36 q0 -8 -5 -13 q-5 -5 -13 -5 l-52 0 q-8 0 -13 5 q-5 5 -5 13 l0 36 q0 8 -4.5 13 q-4.5 5 -12.5 5 l-61 0 ZM851 564 q8 0 13.5 -5 q5.5 -5 5.5 -13 l0 -157 q0 -6 -3 -16 q-3 -10 -7 -16 l-78 -127 q-3 -6 -4.5 -15.5 q-1.5 -9.5 2.5 -15.5 l55 -135 q2 -7 -0.5 -14 q-2.5 -7 -9.5 -9 l-49 -20 q-6 -3 -13 0 q-7 3 -10 10 l-31 74 q-2 7 -6.5 7.5 q-4.5 0.5 -8.5 -5.5 l-50 -83 q-5 -6 -12 -7.5 q-7 -1.5 -12 1.5 l-45 28 q-7 4 -9.5 10 q-2.5 6 0.5 10 q3 5 -0.5 6.5 q-3.5 1.5 -10.5 0.5 l-142 -30 q-8 -1 -13 -4 q-5 -3 -5 -6 q0 -2 -5 -4 q-5 -2 -13 -2 l-53 0 q-7 0 -12 4.5 q-5 4.5 -5 12.5 l0 320 q0 8 5 13.5 q5 5.5 12 5.5 l232 0 q7 0 13 -5.5 q6 -5.5 6 -13.5 l2 -262 q0 -7 3 -7.5 q3 -0.5 6 5.5 l67 108 q4 7 4.5 16 q0.5 9 -2.5 16 l-56 139 q-2 7 0.5 13.5 q2.5 6.5 8.5 9.5 l50 20 q7 2 13.5 -1 q6.5 -3 9.5 -10 l32 -78 q2 -7 6.5 -7.5 q4.5 -0.5 8.5 6.5 l31 51 q4 5 6.5 15 q2.5 10 2.5 17 l0 43 q0 7 -5 12.5 q-5 5.5 -12 5.5 l-149 0 q-8 0 -11 4.5 q-3 4.5 -2 12.5 l51 192 q2 7 8.5 10.5 q6.5 3.5 12.5 2.5 l52 -14 q7 -2 11 -8.5 q4 -6.5 2 -13.5 l-22 -82 q-3 -7 1 -12 q4 -5 11 -5 l122 1 ZM484 146 q8 1 13 6.5 q5 5.5 5 13.5 l-2 111 q0 8 -5 12.5 q-5 4.5 -13 4.5 l-56 0 q-7 0 -12.5 -4.5 q-5.5 -4.5 -5.5 -12.5 l0 -130 q0 -7 5 -11 q5 -4 13 -3 l58 13 Z" /><glyph glyph-name="uni516B" unicode="&#x516b;" d="M470 689 q10 -2 14.5 -10.5 q4.5 -8.5 1.5 -17.5 l-230 -705 q-3 -10 -12 -14 q-9 -4 -19 -2 l-101 30 q-10 3 -14.5 11.5 q-4.5 8.5 -1.5 17.5 l231 705 q3 9 11.5 13.5 q8.5 4.5 18.5 1.5 l101 -30 ZM897 19 q8 -6 9 -15.5 q1 -9.5 -5 -17.5 l-44 -53 q-6 -8 -16 -9 q-10 -1 -18 5 l-142 104 q-8 6 -14 17 q-6 11 -8 20 l-84 617 q-2 10 4.5 17 q6.5 7 16.5 9 l71 9 q10 1 17.5 -5 q7.5 -6 9.5 -15 l78 -571 q1 -9 7.5 -20 q6.5 -11 14.5 -17 l103 -75 Z" /><glyph glyph-name="uni5174" unicode="&#x5174;" d="M861 425 q0 -9 -6 -16 q-6 -7 -15 -8 l-678 -59 q-9 -1 -16 5 q-7 6 -8 15 l-4 44 q-1 9 5 16 q6 7 15 8 l83 7 q9 1 12.5 7 q3.5 6 -0.5 15 l-73 141 q-4 8 -1 16.5 q3 8.5 11 13.5 l23 11 q8 5 16.5 2 q8.5 -3 13.5 -11 l85 -168 q5 -7 14 -12.5 q9 -5.5 18 -4.5 l85 8 q9 1 14.5 7.5 q5.5 6.5 2.5 15.5 l-46 232 q-2 10 3.5 17.5 q5.5 7.5 14.5 9.5 l26 4 q9 3 16 -2.5 q7 -5.5 9 -14.5 l48 -239 q2 -9 9.5 -15.5 q7.5 -6.5 16.5 -5.5 l68 6 q9 1 18.5 8 q9.5 7 12.5 15 l90 213 q3 9 11.5 12.5 q8.5 3.5 16.5 -0.5 l57 -24 q8 -3 12 -11.5 q4 -8.5 -1 -16.5 l-68 -163 q-3 -8 1 -13.5 q4 -5.5 12 -4.5 l47 3 q11 2 17.5 -4 q6.5 -6 6.5 -15 l5 -44 ZM342 286 q5 8 13 11 q8 3 17 -1 l39 -18 q10 -5 12.5 -13 q2.5 -8 -0.5 -17 l-117 -251 q-4 -8 -12.5 -11.5 q-8.5 -3.5 -16.5 0.5 l-40 19 q-7 4 -10.5 12.5 q-3.5 8.5 -0.5 16.5 l116 252 ZM684 302 q8 5 17 2.5 q9 -2.5 13 -9.5 l148 -254 q5 -8 2.5 -16.5 q-2.5 -8.5 -9.5 -13.5 l-54 -31 q-8 -4 -16.5 -2 q-8.5 2 -13.5 10 l-148 253 q-5 8 -2.5 17.5 q2.5 9.5 10.5 12.5 l53 31 Z" /><glyph glyph-name="uni51E0" unicode="&#x51e0;" d="M665 522 q3 8 -1.5 15.5 q-4.5 7.5 -13.5 9.5 l-352 71 q-9 3 -14 10 q-5 7 -3 17 l11 56 q3 8 10.5 13 q7.5 5 16.5 4 l461 -95 q9 -1 13.5 -8.5 q4.5 -7.5 1.5 -16.5 l-130 -414 q-3 -9 1.5 -17 q4.5 -8 13.5 -10 l157 -40 q10 -4 14.5 -11.5 q4.5 -7.5 2.5 -16.5 l-15 -54 q-3 -9 -10.5 -13.5 q-7.5 -4.5 -16.5 -2.5 l-261 67 q-9 3 -13 10.5 q-4 7.5 -2 15.5 l129 410 ZM245 19 q-2 -9 -9.5 -14 q-7.5 -5 -16.5 -3 l-55 10 q-11 2 -15.5 9.5 q-4.5 7.5 -2.5 17.5 l102 500 q1 9 8.5 14 q7.5 5 16.5 3 l55 -11 q10 -3 15 -10.5 q5 -7.5 2 -16.5 l-100 -499 Z" /><glyph glyph-name="uni521D" unicode="&#x521d;" d="M539 268 q4 -7 3.5 -14 q-0.5 -7 -6.5 -12 l-38 -30 q-6 -4 -13 -3 q-7 1 -12 7 l-98 125 q-4 7 -6.5 6 q-2.5 -1 -1.5 -9 l38 -326 q1 -8 -3.5 -13 q-4.5 -5 -11.5 -6 l-53 -6 q-6 -1 -12 3 q-6 4 -7 12 l-33 289 q-2 8 -6 9 q-4 1 -8 -5 l-64 -75 q-4 -5 -11.5 -5.5 q-7.5 -0.5 -13.5 3.5 l-33 29 q-6 5 -6.5 11.5 q-0.5 6.5 4.5 13.5 l136 160 q5 6 6.5 11.5 q1.5 5.5 -0.5 9.5 q-2 2 0 5 q2 3 7 3 q6 1 13 5.5 q7 4.5 11 9.5 l51 60 q4 5 2.5 8.5 q-1.5 3.5 -8.5 2.5 l-230 -18 q-7 -1 -12.5 4 q-5.5 5 -5.5 12 l-5 43 q0 7 4.5 13 q4.5 6 11.5 7 l214 17 q16 1 1 6 l-101 26 q-7 3 -11 8.5 q-4 5.5 -2 12.5 l14 52 q1 7 7.5 10.5 q6.5 3.5 13.5 2.5 l110 -29 q7 -2 10.5 -8 q3.5 -6 2.5 -14 l-13 -47 q-2 -7 2 -11.5 q4 -4.5 11 -4.5 l161 14 q8 0 9.5 -3.5 q1.5 -3.5 -2.5 -9.5 l-118 -137 q-4 -7 -2.5 -10 q1.5 -3 8.5 -1 l46 5 q8 1 14 -3.5 q6 -4.5 7 -11.5 l6 -48 q1 -7 -3 -12.5 q-4 -5.5 -12 -7.5 l-44 -5 q-8 -1 -9.5 -6 q-1.5 -5 2.5 -10 l89 -115 ZM872 616 q7 1 12 -3.5 q5 -4.5 4 -12.5 l-50 -610 q0 -8 -6 -11 q-6 -3 -12 -1 l-113 34 q-7 3 -10.5 9 q-3.5 6 -1.5 13 l12 42 q2 8 9 10.5 q7 2.5 12 1.5 l21 -6 q7 -2 12 1.5 q5 3.5 7 10.5 l34 421 q0 8 -4.5 12.5 q-4.5 4.5 -11.5 3.5 l-196 -13 q-6 -1 -12 3.5 q-6 4.5 -7 12.5 l-2 44 q-2 8 3.5 13.5 q5.5 5.5 12.5 5.5 l287 19 ZM708 457 q7 -2 10.5 -7.5 q3.5 -5.5 0.5 -13.5 l-115 -405 q-2 -8 -9 -11 q-7 -3 -13 -2 l-47 14 q-7 2 -10.5 8 q-3.5 6 -0.5 14 l115 405 q2 8 9 10.5 q7 2.5 13 1.5 l47 -14 Z" /><glyph glyph-name="uni52A0" unicode="&#x52a0;" d="M837 637 q10 1 16.5 -5 q6.5 -6 6.5 -17 l-30 -396 q-1 -11 -8.5 -19.5 q-7.5 -8.5 -18.5 -9.5 l-230 -39 q-10 -1 -17.5 4.5 q-7.5 5.5 -7.5 16.5 l-16 407 q0 10 7 18 q7 8 17 9 l281 31 ZM763 515 q1 12 -5 18.5 q-6 6.5 -18 4.5 l-93 -10 q-10 -1 -17 -9 q-7 -8 -7 -19 l9 -225 q0 -10 7.5 -16.5 q7.5 -6.5 17.5 -4.5 l64 11 q10 2 17.5 10 q7.5 8 8.5 20 l16 220 ZM458 634 q12 0 19 -7 q7 -7 7 -17 l0 -607 q0 -12 -7 -17.5 q-7 -5.5 -17 -3.5 l-196 34 q-9 3 -15.5 11 q-6.5 8 -3.5 18 l6 38 q3 10 11 16 q8 6 18 5 l91 -18 q10 -2 17.5 4.5 q7.5 6.5 7.5 16.5 l0 414 q0 11 -6 18 q-6 7 -14 7 q-10 0 -17.5 -6.5 q-7.5 -6.5 -10.5 -17.5 l-75 -307 q-3 -10 -11.5 -15 q-8.5 -5 -19.5 -3 l-37 9 q-10 2 -15 11.5 q-5 9.5 -3 18.5 l71 286 q3 11 -3 17.5 q-6 6.5 -16 6.5 l-73 0 q-10 0 -17.5 7.5 q-7.5 7.5 -7.5 18.5 l0 38 q0 10 7.5 17 q7.5 7 17.5 7 l95 0 q10 0 18.5 7.5 q8.5 7.5 12.5 16.5 l15 61 q2 10 10.5 15.5 q8.5 5.5 19.5 2.5 l36 -9 q10 -2 15.5 -11.5 q5.5 -9.5 3.5 -18.5 l-11 -40 q-2 -9 4 -16.5 q6 -7.5 16 -7.5 l57 0 Z" /><glyph glyph-name="uni5374" unicode="&#x5374;" d="M553 70 q2 -8 -2.5 -15 q-4.5 -7 -12.5 -8 l-428 -27 q-9 -1 -12 4 q-3 5 3 13 l157 240 q5 8 9 19.5 q4 11.5 4 21.5 l1 24 q1 9 -5 15.5 q-6 6.5 -16 6.5 l-86 0 q-9 0 -15.5 6 q-6.5 6 -6.5 15 l0 44 q0 10 6.5 16 q6.5 6 15.5 6 l91 0 q9 0 15.5 7 q6.5 7 7.5 15 l1 38 q1 9 -5 15.5 q-6 6.5 -16 6.5 l-32 0 q-9 0 -15.5 6 q-6.5 6 -6.5 15 l0 36 q0 9 6.5 15.5 q6.5 6.5 15.5 6.5 l36 0 q10 0 16.5 6.5 q6.5 6.5 7.5 15.5 l2 60 q2 9 8 15 q6 6 15 5 l49 -2 q9 0 15.5 -7 q6.5 -7 4.5 -16 l-2 -55 q-1 -9 5.5 -15.5 q6.5 -6.5 15.5 -6.5 l19 0 q10 0 16 -6.5 q6 -6.5 6 -15.5 l0 -36 q0 -9 -6 -15 q-6 -6 -16 -6 l-23 0 q-9 0 -16 -6.5 q-7 -6.5 -7 -15.5 l-2 -38 q0 -8 6 -15 q6 -7 16 -7 l96 0 q9 0 15.5 -6 q6.5 -6 6.5 -16 l0 -44 q0 -9 -6.5 -15 q-6.5 -6 -15.5 -6 l-101 0 q-10 0 -16.5 -6.5 q-6.5 -6.5 -6.5 -15.5 l-3 -54 q0 -10 -4 -21.5 q-4 -11.5 -9 -17.5 l-70 -109 q-5 -8 -2.5 -12.5 q2.5 -4.5 11.5 -4.5 l127 9 q9 0 13.5 6.5 q4.5 6.5 2.5 15.5 l-28 90 q-2 9 2 16.5 q4 7.5 13 11.5 l46 13 q9 3 17 -1 q8 -4 11 -14 l61 -200 ZM563 636 q-1 9 4 17 q5 8 14 11 l302 88 q9 4 14.5 -1.5 q5.5 -5.5 5.5 -14.5 l-9 -444 q-1 -10 -5.5 -21 q-4.5 -11 -11.5 -17 l-49 -48 q-6 -6 -15.5 -6 q-9.5 0 -14.5 7 l-35 35 q-6 7 -6 16 q0 9 6 15 l23 22 q6 5 11 16 q5 11 5 20 l6 282 q1 8 -5 13.5 q-6 5.5 -16 1.5 l-103 -31 q-9 -2 -14.5 -10 q-5.5 -8 -4.5 -18 l76 -572 q1 -9 -4 -16.5 q-5 -7.5 -14 -9.5 l-48 -5 q-10 -1 -16.5 4 q-6.5 5 -8.5 14 l-87 652 Z" /><glyph glyph-name="uni53BB" unicode="&#x53bb;" d="M860 391 q1 -9 -4.5 -16 q-5.5 -7 -14.5 -8 l-399 -46 q-10 -2 -15.5 -2.5 q-5.5 -0.5 -5.5 -0.5 q1 0 -0.5 -6 q-1.5 -6 -5.5 -16 l-62 -197 q-2 -8 2 -14 q4 -6 13 -5 l313 21 q8 1 12 7 q4 6 -1 14 l-17 39 q-3 8 0.5 16.5 q3.5 8.5 11.5 12.5 l39 18 q9 3 17 0.5 q8 -2.5 13 -10.5 l70 -155 q4 -8 0 -14 q-4 -6 -13 -7 l-567 -38 q-9 -1 -13.5 4.5 q-4.5 5.5 -1.5 13.5 l89 284 q3 9 -1.5 14.5 q-4.5 5.5 -13.5 4.5 l-136 -15 q-9 -2 -16 4 q-7 6 -8 15 l-6 44 q-1 9 5 16 q6 7 16 8 l243 28 q9 1 16.5 8.5 q7.5 7.5 8.5 15.5 l18 99 q1 9 -4 15 q-5 6 -14 8 l-159 10 q-10 1 -16 7.5 q-6 6.5 -5 15.5 l3 44 q1 9 7.5 15.5 q6.5 6.5 15.5 4.5 l169 -10 q9 0 16.5 6 q7.5 6 9.5 15 l11 57 q1 9 8.5 14.5 q7.5 5.5 16.5 4.5 l42 -8 q10 -2 15.5 -9.5 q5.5 -7.5 3.5 -16.5 l-8 -48 q-3 -9 2.5 -15.5 q5.5 -6.5 14.5 -7.5 l167 -10 q9 -2 14.5 -8 q5.5 -6 5.5 -17 l-2 -43 q-1 -9 -8 -15 q-7 -6 -15 -5 l-177 11 q-9 0 -16.5 -6 q-7.5 -6 -9.5 -15 l-14 -83 q-1 -9 3.5 -14 q4.5 -5 13.5 -4 l294 33 q9 1 16 -4.5 q7 -5.5 9 -15.5 l4 -43 l0 0 Z" /><glyph glyph-name="uni53CB" unicode="&#x53cb;" d="M812 61 q8 -6 9 -14.5 q1 -8.5 -4 -16.5 l-15 -22 q-5 -8 -14 -9 q-9 -1 -17 3 l-165 116 q-7 6 -16 4.5 q-9 -1.5 -14 -9.5 l-50 -80 q-4 -8 -13.5 -9.5 q-9.5 -1.5 -17.5 2.5 l-51 34 q-8 4 -10 12.5 q-2 8.5 3 17.5 l53 83 q4 9 2.5 17.5 q-1.5 8.5 -8.5 14.5 l-86 59 q-8 6 -9.5 14.5 q-1.5 8.5 3.5 16.5 l15 22 q6 8 14.5 9.5 q8.5 1.5 16.5 -3.5 l83 -59 q8 -5 16.5 -3.5 q8.5 1.5 13.5 9.5 l54 85 q4 8 1.5 14 q-2.5 6 -12.5 6 l-202 0 q-9 0 -17 -6.5 q-8 -6.5 -11 -15.5 l-64 -260 q-2 -9 -9.5 -13.5 q-7.5 -4.5 -17.5 -2.5 l-58 14 q-9 3 -14 10.5 q-5 7.5 -3 15.5 l104 421 q3 8 -2.5 14 q-5.5 6 -14.5 6 l-81 -7 q-9 -1 -16 5 q-7 6 -8 15 l-2 27 q0 9 6 15.5 q6 6.5 15 7.5 l104 8 q10 1 17.5 7.5 q7.5 6.5 9.5 15.5 l12 53 q3 8 11 13 q8 5 16 3 l61 -15 q8 -2 13 -10 q5 -8 2 -17 l-5 -18 q-2 -9 3 -15.5 q5 -6.5 14 -5.5 l337 26 q10 1 16.5 -5 q6.5 -6 6.5 -15 l3 -26 q1 -10 -5.5 -16.5 q-6.5 -6.5 -15.5 -7.5 l-360 -27 q-8 -1 -16 -7.5 q-8 -6.5 -10 -15.5 l-12 -45 q-2 -9 3 -15.5 q5 -6.5 14 -6.5 l367 0 q9 0 12 -5 q3 -5 -1 -13 l-159 -252 q-5 -8 -3 -16.5 q2 -8.5 10 -14.5 l168 -117 l0 0 Z" /><glyph glyph-name="uni53EA" unicode="&#x53ea;" d="M850 681 q7 0 11 -6 q4 -6 0 -13 l-142 -382 q-3 -7 -10 -12.5 q-7 -5.5 -16 -5.5 l-425 13 q-8 0 -14 5.5 q-6 5.5 -7 13.5 l-49 405 q-1 8 3.5 13.5 q4.5 5.5 12.5 4.5 l636 -36 ZM737 581 q4 8 0.5 13 q-3.5 5 -11.5 6 l-412 23 q-8 0 -12.5 -4.5 q-4.5 -4.5 -3.5 -12.5 l27 -226 q2 -8 7.5 -13.5 q5.5 -5.5 13.5 -6.5 l288 -8 q7 0 14.5 4.5 q7.5 4.5 10.5 12.5 l78 212 ZM798 71 q6 -5 6 -12.5 q0 -7.5 -6 -13.5 l-37 -36 q-4 -5 -12 -5 q-8 0 -14 5 l-144 144 q-4 6 -4 13.5 q0 7.5 4 12.5 l37 36 q6 6 13.5 6 q7.5 0 12.5 -6 l144 -144 ZM346 205 q5 -6 5 -13.5 q0 -7.5 -5 -13.5 l-139 -140 q-6 -6 -14 -6 q-8 0 -12 6 l-37 35 q-6 5 -6 12.5 q0 7.5 6 13.5 l139 141 q6 6 13.5 6 q7.5 0 12.5 -6 l37 -35 Z" /><glyph glyph-name="uni53EF" unicode="&#x53ef;" d="M898 726 q1 -7 -3.5 -13 q-4.5 -6 -11.5 -7 l-215 -31 q-7 -1 -8.5 -2 q-1.5 -1 3.5 -1 q6 0 9.5 -5.5 q3.5 -5.5 3.5 -13.5 l-22 -685 q-1 -7 -6 -12 q-5 -5 -12 -4 l-153 9 q-8 1 -12.5 6 q-4.5 5 -4.5 13 l4 64 q1 8 6.5 12.5 q5.5 4.5 12.5 4.5 l50 -4 q7 -1 13 4.5 q6 5.5 6 12.5 l18 570 q0 7 -4.5 11.5 q-4.5 4.5 -12.5 3.5 l-433 -64 q-8 -2 -13.5 3 q-5.5 5 -6.5 11 l-4 27 q-1 8 3.5 13.5 q4.5 5.5 11.5 7.5 l757 111 q8 1 13 -3.5 q5 -4.5 6 -11.5 l5 -27 ZM499 315 q1 -7 -2.5 -14.5 q-3.5 -7.5 -9.5 -9.5 l-239 -112 q-7 -2 -12.5 1 q-5.5 3 -6.5 10 l-52 287 q-1 7 3.5 12 q4.5 5 11.5 7 l239 7 q8 0 14.5 -5 q6.5 -5 7.5 -13 l46 -170 ZM384 339 q7 3 10.5 10 q3.5 7 0.5 14 l-9 34 q-1 7 -7.5 11.5 q-6.5 4.5 -14.5 4.5 l-69 -1 q-8 -1 -11.5 -6.5 q-3.5 -5.5 -1.5 -12.5 l12 -77 q1 -7 7 -9.5 q6 -2.5 13 0.5 l70 32 Z" /><glyph glyph-name="uni5403" unicode="&#x5403;" d="M386 589 q7 -4 11.5 -11 q4.5 -7 3.5 -14 l-28 -498 q-1 -6 -6 -12.5 q-5 -6.5 -12 -8.5 l-236 -60 q-7 -2 -11.5 2 q-4.5 4 -4.5 10 l29 687 q0 7 5 10 q5 3 12 -1 l237 -104 ZM310 508 q0 8 -4.5 15 q-4.5 7 -10.5 10 l-64 28 q-6 3 -11 0.5 q-5 -2.5 -5 -10.5 l-19 -440 q-1 -8 4 -11.5 q5 -3.5 12 -1.5 l59 16 q7 1 12 7 q5 6 5 14 l22 373 ZM418 564 q-7 2 -10.5 8 q-3.5 6 -0.5 13 l43 161 q3 7 9 11 q6 4 13 2 l93 -26 q8 -2 11.5 -8 q3.5 -6 1.5 -13 l-15 -56 q-2 -6 2 -11 q4 -5 11 -5 l278 0 q7 0 12 -5 q5 -5 5 -13 l0 -8 q0 -7 -5 -12 q-5 -5 -12 -5 l-290 0 q-8 0 -14.5 -5.5 q-6.5 -5.5 -8.5 -12.5 l-8 -28 q-1 -7 -7.5 -10.5 q-6.5 -3.5 -13.5 -1.5 l-94 25 ZM897 -24 q1 -7 -4 -11.5 q-5 -4.5 -11 -4.5 l-460 32 q-8 0 -10 4 q-2 4 3 11 l277 369 q4 6 2.5 10 q-1.5 4 -9.5 5 l-179 15 q-7 0 -12 5.5 q-5 5.5 -5 12.5 l5 52 q1 8 6.5 12.5 q5.5 4.5 13.5 4.5 l314 -26 q8 -1 12.5 -6.5 q4.5 -5.5 3.5 -12.5 l-5 -53 q0 -7 -5 -11.5 q-5 -4.5 -13 -4.5 l-20 1 q-7 2 -10.5 0.5 q-3.5 -1.5 -0.5 -2.5 q2 -1 1 -6 q-1 -5 -6 -12 l-212 -282 q-4 -6 -2 -10 q2 -4 9 -5 l205 -14 q7 -1 11.5 4 q4.5 5 3.5 12 l-6 50 q-1 7 3 12.5 q4 5.5 12 6.5 l48 6 q7 1 13 -3 q6 -4 7 -12 l20 -149 Z" /><glyph glyph-name="uni540E" unicode="&#x540e;" d="M866 429 q13 2 22.5 -6 q9.5 -8 9.5 -21 l-13 -302 q0 -13 -10.5 -23 q-10.5 -10 -22.5 -12 l-311 -29 q-13 -2 -21.5 -9.5 q-8.5 -7.5 -5.5 -16.5 q2 -9 -6 -17.5 q-8 -8.5 -21 -12.5 l-53 -11 q-12 -2 -24 4.5 q-12 6.5 -15 19.5 l-73 310 q-4 13 3.5 24.5 q7.5 11.5 20.5 13.5 l35 10 q13 2 22.5 4.5 q9.5 2.5 9.5 3.5 q0 0 9.5 1.5 q9.5 1.5 22.5 2.5 l421 66 ZM771 264 q1 13 -8 21 q-9 8 -22 7 l-251 -39 q-13 -2 -20.5 -12.5 q-7.5 -10.5 -5.5 -23.5 l11 -40 q2 -13 14 -21 q12 -8 25 -7 l222 22 q13 1 23 11.5 q10 10.5 10 23.5 l2 58 ZM349 570 q-14 -2 -23.5 -12.5 q-9.5 -10.5 -10.5 -24.5 l-17 -410 q-2 -13 -8 -29.5 q-6 -16.5 -17 -25.5 l-73 -80 q-9 -9 -22.5 -10 q-13.5 -1 -23.5 8 l-40 36 q-11 8 -11.5 21 q-0.5 13 8.5 24 l45 48 q9 9 16 25 q7 16 7 30 l21 466 q0 14 10 24 q10 10 23 13 l603 79 q12 1 23 -7 q11 -8 14 -21 l6 -51 q3 -14 -6 -24.5 q-9 -10.5 -21 -12.5 l-503 -66 ZM800 581 q14 2 25 -5.5 q11 -7.5 14 -20.5 l9 -53 q3 -12 -5 -23 q-8 -11 -22 -13 l-426 -74 q-12 -2 -23 5.5 q-11 7.5 -14 19.5 l-10 53 q-2 13 6 24 q8 11 21 13 l425 74 Z" /><glyph glyph-name="uni5427" unicode="&#x5427;" d="M358 627 q10 -3 16 -11.5 q6 -8.5 5 -18.5 l-49 -464 q-2 -11 -9.5 -17.5 q-7.5 -6.5 -17.5 -6.5 l-57 0 q-10 0 -17 6.5 q-7 6.5 -7 17.5 l0 36 q0 11 4 17.5 q4 6.5 10 6.5 q6 0 11 7 q5 7 6 17 l33 315 q2 10 -4.5 18.5 q-6.5 8.5 -16.5 10.5 l-33 8 q-9 2 -16 -3 q-7 -5 -8 -15 l-11 -448 q-1 -10 -8 -16.5 q-7 -6.5 -17 -6.5 l-37 1 q-10 0 -16.5 7 q-6.5 7 -6.5 17 l14 552 q0 10 7 15.5 q7 5.5 17 3.5 l208 -49 ZM888 706 q10 0 16.5 -7 q6.5 -7 6.5 -17 l-12 -338 q0 -10 -7.5 -17 q-7.5 -7 -17.5 -7 l-313 0 q-11 0 -17.5 7 q-6.5 7 -6.5 17 l0 36 q0 11 6.5 17.5 q6.5 6.5 17.5 6.5 l19 0 q11 0 17.5 7 q6.5 7 6.5 17 l0 93 q0 10 7 17 q7 7 18 7 l70 0 q11 0 17.5 -7 q6.5 -7 6.5 -17 l0 -93 q0 -10 7 -17 q7 -7 17 -7 l45 0 q10 0 17.5 7 q7.5 7 7.5 17 l6 169 q0 10 -6.5 17 q-6.5 7 -16.5 7 l-261 0 q-10 0 -17 -7 q-7 -7 -8 -17 l-6 -510 q0 -10 7 -16.5 q7 -6.5 17 -5.5 l317 27 q10 2 17.5 -4.5 q7.5 -6.5 8.5 -16.5 l6 -71 q1 -10 -5.5 -17 q-6.5 -7 -16.5 -9 l-448 -39 q-10 -1 -17 5.5 q-7 6.5 -6 16.5 l9 746 q0 10 7 17 q7 7 17 7 l71 -1 q10 0 17 -3 q7 -3 7 -7 q0 -5 7 -7.5 q7 -2.5 17 -2.5 l348 0 Z" /><glyph glyph-name="uni5438" unicode="&#x5438;" d="M334 651 q11 -1 16.5 -7.5 q5.5 -6.5 5.5 -15.5 l-9 -564 q-1 -9 -7.5 -16.5 q-6.5 -7.5 -15.5 -8.5 l-176 -24 q-9 -1 -15.5 4.5 q-6.5 5.5 -6.5 14.5 l7 608 q1 9 7 14.5 q6 5.5 16 5.5 l178 -11 ZM266 545 q1 9 -5 15.5 q-6 6.5 -15 7.5 l-4 0 q-9 1 -15.5 -4.5 q-6.5 -5.5 -6.5 -16.5 l-4 -412 q0 -10 6 -15.5 q6 -5.5 14 -4.5 l2 1 q9 1 15 8.5 q6 7.5 6 15.5 l7 405 ZM867 66 q7 -6 8 -15.5 q1 -9.5 -6 -14.5 l-29 -35 q-6 -7 -15 -7.5 q-9 -0.5 -16 5.5 l-138 118 q-7 7 -15 5.5 q-8 -1.5 -12 -9.5 l-72 -126 q-4 -8 -13.5 -10 q-9.5 -2 -16.5 2 l-39 22 q-8 5 -9.5 13.5 q-1.5 8.5 1.5 16.5 l81 140 q4 8 2.5 18 q-1.5 10 -8.5 16 l-70 59 q-6 7 -7 16 q-1 9 4 16 l29 33 q7 7 15.5 7.5 q8.5 0.5 15.5 -5.5 l57 -48 q7 -6 15.5 -5 q8.5 1 11.5 9 l74 129 q4 8 1 14 q-3 6 -13 6 l-184 0 q-8 0 -12 5.5 q-4 5.5 0 13.5 l76 182 q3 8 -1 14.5 q-4 6.5 -13 6.5 l-72 0 q-8 0 -14.5 -6.5 q-6.5 -6.5 -8.5 -15.5 l-33 -642 q0 -8 -7 -14 q-7 -6 -16 -6 l-44 2 q-9 1 -15 8 q-6 7 -6 16 l39 722 q1 11 2.5 16.5 q1.5 5.5 4.5 5.5 q5 -1 5 1 l7 0 q4 0 8 0 q4 0 8 0 l274 0 q9 0 12.5 -5.5 q3.5 -5.5 0.5 -13.5 l-76 -183 q-3 -7 0.5 -13.5 q3.5 -6.5 13.5 -6.5 l203 0 q9 0 12.5 -5.5 q3.5 -5.5 -0.5 -13.5 l-157 -275 q-4 -8 -2.5 -17.5 q1.5 -9.5 7.5 -16.5 l152 -129 Z" /><glyph glyph-name="uni552F" unicode="&#x552f;" d="M308 671 q8 4 12.5 0 q4.5 -4 4.5 -12 l0 -582 q0 -8 -5 -15 q-5 -7 -13 -10 l-170 -62 q-7 -4 -12.5 0 q-5.5 4 -5.5 12 l-9 576 q-1 7 4 14.5 q5 7.5 13 11.5 l181 67 ZM260 563 q0 8 -5.5 12 q-5.5 4 -12.5 1 l-48 -18 q-8 -3 -12.5 -10.5 q-4.5 -7.5 -4.5 -15.5 l7 -437 q0 -8 5 -11.5 q5 -3.5 13 -0.5 l39 15 q8 3 13 10 q5 7 5 15 l1 440 ZM516 598 q6 0 10 -6 q4 -6 4 -13 l-28 -594 q0 -7 -5.5 -12.5 q-5.5 -5.5 -13.5 -4.5 l-55 2 q-8 0 -13 5.5 q-5 5.5 -5 14.5 l24 524 q0 8 -3 9.5 q-3 1.5 -9 -3.5 l-7 -6 q-6 -6 -13.5 -6 q-7.5 0 -13.5 6 l-28 30 q-6 6 -6 13.5 q0 7.5 6 12.5 l180 177 q6 5 13.5 5 q7.5 0 13.5 -5 l30 -31 q5 -5 5 -12.5 q0 -7.5 -5 -13.5 l-81 -78 q-6 -5 -6 -9 q0 -4 6 -5 ZM621 674 q-1 7 3 13 q4 6 12 7 l62 11 q7 1 13 -3 q6 -4 8 -12 l13 -82 q1 -7 -3 -13.5 q-4 -6.5 -12 -8.5 l-62 -9 q-8 -1 -14 3 q-6 4 -8 12 l-12 82 ZM564 508 q-1 8 4.5 14.5 q5.5 6.5 13.5 7.5 l239 30 q7 1 13 -3.5 q6 -4.5 8 -12.5 l3 -28 q1 -8 -3.5 -13.5 q-4.5 -5.5 -12.5 -6.5 l-239 -33 q-8 0 -14.5 5 q-6.5 5 -7.5 13 l-4 27 ZM891 9 q0 -7 -5.5 -12.5 q-5.5 -5.5 -12.5 -5.5 l-294 -10 q-8 -1 -13.5 4.5 q-5.5 5.5 -5.5 13.5 l-2 62 q0 8 5 13.5 q5 5.5 13 5.5 l86 3 q8 1 13.5 6.5 q5.5 5.5 5.5 13.5 l0 61 q0 8 -5.5 14 q-5.5 6 -13.5 7 l-35 2 q-9 1 -14 7 q-5 6 -4 14 l5 62 q1 8 7 13.5 q6 5.5 12 3.5 l29 -2 q8 -1 13.5 4 q5.5 5 5.5 13 l0 31 q0 8 -5.5 13.5 q-5.5 5.5 -13.5 4.5 l-47 -5 q-7 -1 -13.5 4 q-6.5 5 -6.5 13 l-3 28 q-1 8 4 14.5 q5 6.5 13 6.5 l53 4 q8 1 13.5 7.5 q5.5 6.5 5.5 14.5 l0 20 q0 6 5.5 12 q5.5 6 13.5 6 l12 0 q8 0 13 -6 q5 -6 5 -12 l0 -17 q0 -6 6 -11.5 q6 -5.5 14 -4.5 l46 5 q8 0 13.5 -4.5 q5.5 -4.5 6.5 -12.5 l3 -29 q1 -8 -4.5 -14 q-5.5 -6 -13.5 -6 l-51 -5 q-8 -1 -14 -7 q-6 -6 -6 -14 l0 -40 q0 -8 6 -14 q6 -6 14 -7 l33 -2 q8 -1 13 -6.5 q5 -5.5 4 -13.5 l-4 -62 q-2 -8 -7.5 -13 q-5.5 -5 -12.5 -4 l-26 1 q-8 1 -14 -3.5 q-6 -4.5 -6 -12.5 l0 -58 q0 -7 6 -12 q6 -5 14 -5 l119 4 q7 1 13 -5 q6 -6 7 -13 l2 -63 Z" /><glyph glyph-name="uni5584" unicode="&#x5584;" d="M773 206 q12 0 18 -7.5 q6 -7.5 4 -17.5 l-34 -176 q-3 -12 -12 -19.5 q-9 -7.5 -19 -7.5 l-462 -4 q-11 0 -19.5 8 q-8.5 8 -11.5 18 l-29 177 q-2 10 4.5 18.5 q6.5 8.5 18.5 8.5 l542 2 ZM710 109 q2 12 -4 19.5 q-6 7.5 -18 7.5 l-375 -3 q-11 0 -17.5 -7.5 q-6.5 -7.5 -5.5 -18.5 l7 -37 q3 -10 11.5 -17.5 q8.5 -7.5 19.5 -7.5 l343 3 q11 0 20 7.5 q9 7.5 11 18.5 l8 35 ZM872 260 q0 -12 -7.5 -19.5 q-7.5 -7.5 -18.5 -7.5 l-691 -9 q-12 0 -19.5 7.5 q-7.5 7.5 -7.5 19.5 l-1 39 q0 11 7.5 18.5 q7.5 7.5 18.5 7.5 l152 3 q12 0 15.5 4 q3.5 4 -3.5 9 q-6 6 -5 16 q1 10 9 18 l10 9 q6 8 17 8.5 q11 0.5 19 -7.5 l41 -38 q8 -8 17 -13 q9 -5 15 -4 q6 0 10 7.5 q4 7.5 5 18.5 l1 31 q1 12 -6.5 19 q-7.5 7 -18.5 7 l-212 -6 q-10 0 -18 7.5 q-8 7.5 -8 18.5 l0 4 q-2 11 6.5 18.5 q8.5 7.5 18.5 8.5 l216 6 q12 0 19.5 4 q7.5 4 7.5 10 q1 6 -6.5 9.5 q-7.5 3.5 -19.5 4.5 l-187 0 q-12 0 -19.5 7.5 q-7.5 7.5 -7.5 18.5 l0 5 q0 10 7.5 18 q7.5 8 19.5 8 l191 -1 q11 0 18.5 4 q7.5 4 7.5 9 q1 5 -7 8.5 q-8 3.5 -18 3.5 l-231 0 q-12 0 -19.5 7.5 q-7.5 7.5 -7.5 18.5 l0 35 q0 12 7.5 19.5 q7.5 7.5 19.5 7.5 l103 1 q12 0 15.5 4 q3.5 4 -2.5 10 q-7 7 -6 16.5 q1 9.5 9 17.5 l20 19 q7 8 18 7.5 q11 -0.5 19 -9.5 l46 -47 q8 -8 21 -13 q13 -5 23 -5 l61 0 q11 0 24 5 q13 5 21 13 l60 61 q7 8 18 8 q11 0 19 -8 l18 -18 q8 -8 8 -19 q0 -11 -8 -18 l-3 -5 q-8 -8 -6 -13.5 q2 -5.5 14 -4.5 l82 0 q10 0 18 -8 q8 -8 8 -18 l0 -36 q0 -10 -8 -18 q-8 -8 -18 -8 l-212 -2 q-10 0 -17.5 -3.5 q-7.5 -3.5 -9.5 -8.5 q0 -5 7.5 -9 q7.5 -4 18.5 -4 l173 0 q11 0 18.5 -7.5 q7.5 -7.5 7.5 -18.5 l0 -5 q0 -11 -7.5 -18.5 q-7.5 -7.5 -19.5 -7.5 l-175 0 q-11 0 -18.5 -3.5 q-7.5 -3.5 -7.5 -8.5 q-1 -5 6.5 -8 q7.5 -3 18.5 -3 l205 5 q12 1 19 -7 q7 -8 9 -18 l0 -5 q0 -11 -7.5 -18.5 q-7.5 -7.5 -19.5 -8.5 l-209 -6 q-10 0 -18.5 -7.5 q-8.5 -7.5 -9.5 -18.5 l-1 -33 q-1 -11 5.5 -18.5 q6.5 -7.5 15.5 -7.5 q9 0 21 5 q12 5 20 13 l47 44 q8 8 19 7.5 q11 -0.5 19 -8.5 l10 -9 q6 -8 7 -18.5 q1 -10.5 -6 -17.5 q-7 -6 -4 -10.5 q3 -4.5 14 -3.5 l143 1 q11 0 18.5 -7.5 q7.5 -7.5 8.5 -17.5 l0 -40 Z" /><glyph glyph-name="uni559C" unicode="&#x559c;" d="M734 165 q11 0 15 -6.5 q4 -6.5 1 -17.5 l-67 -141 q-5 -9 -15.5 -17.5 q-10.5 -8.5 -21.5 -8.5 l-321 -13 q-11 -1 -19 6 q-8 7 -9 19 l-10 144 q-1 11 6 19 q7 8 19 8 l422 8 ZM645 75 q5 9 1 16 q-4 7 -16 7 l-248 -6 q-12 0 -19 -7.5 q-7 -7.5 -5 -19.5 l1 -11 q0 -11 8 -18 q8 -7 19 -6 l218 8 q10 1 21 8.5 q11 7.5 15 16.5 l5 12 ZM160 628 q-11 0 -19 6.5 q-8 6.5 -9 18.5 l0 8 q-1 12 6.5 20 q7.5 8 18.5 8 l241 11 q11 1 18.5 9 q7.5 8 6.5 19 l0 4 q0 11 8 18.5 q8 7.5 19 8.5 l61 1 q11 0 19 -7.5 q8 -7.5 8 -19.5 l0 0 q0 -11 8 -18 q8 -7 19 -7 l217 11 q11 0 19.5 -7 q8.5 -7 9.5 -19 l0 -8 q0 -11 -7 -19 q-7 -8 -19 -8 l-219 -12 q-11 0 -19 -8 q-8 -8 -7 -20 l0 -2 q0 -11 8.5 -18.5 q8.5 -7.5 18.5 -6.5 l151 7 q10 1 18 -6 q8 -7 9 -18 l0 -10 q1 -11 -6.5 -18.5 q-7.5 -7.5 -17.5 -8.5 l-153 -8 q-10 0 -18 -5.5 q-8 -5.5 -7 -11.5 q0 -7 7.5 -12 q7.5 -5 18.5 -5 l98 3 q11 1 18 -6.5 q7 -7.5 6 -19.5 l-10 -101 q-1 -11 -9.5 -18.5 q-8.5 -7.5 -19.5 -7.5 l-308 -6 q-12 0 -19 7.5 q-7 7.5 -7 17.5 l2 100 q0 12 8 19.5 q8 7.5 19 8.5 l55 1 q11 0 18.5 4 q7.5 4 7.5 11 q0 6 -7.5 10 q-7.5 4 -19.5 3 l-160 -7 q-11 -1 -19 5.5 q-8 6.5 -8 18.5 l-1 9 q0 12 6.5 19.5 q6.5 7.5 18.5 8.5 l162 8 q12 1 19.5 8.5 q7.5 7.5 7.5 18.5 l-2 4 q0 11 -7.5 18 q-7.5 7 -18.5 7 l-239 -11 ZM399 440 q-12 -1 -20 -8 q-8 -7 -8 -16 q0 -10 7.5 -16.5 q7.5 -6.5 19.5 -6.5 l206 4 q11 0 19 7 q8 7 9 17 q2 10 -5 17 q-7 7 -19 7 l-209 -5 ZM868 219 q0 -11 -7.5 -18.5 q-7.5 -7.5 -17.5 -8.5 l-673 -30 q-11 -1 -18.5 6.5 q-7.5 7.5 -8.5 18.5 l0 8 q0 12 6.5 20 q6.5 8 18.5 8 l148 7 q11 0 13 5.5 q2 5.5 -6 13.5 l-8 8 q-8 8 -8 18.5 q0 10.5 8 18.5 l18 20 q8 8 18.5 8 q10.5 0 18.5 -8 l38 -37 q8 -8 10 -16.5 q2 -8.5 -3 -14.5 q-5 -5 -0.5 -8.5 q4.5 -3.5 15.5 -3.5 l93 5 q12 1 18 3 q6 2 5 4 q-1 2 4 8 q5 6 15 13 l84 57 q9 6 19 3.5 q10 -2.5 17 -11.5 l15 -22 q6 -9 4.5 -19 q-1.5 -10 -9.5 -15 q-9 -6 -7 -9.5 q2 -3.5 13 -3.5 l138 7 q12 0 20 -7.5 q8 -7.5 8 -17.5 l1 -10 Z" /><glyph glyph-name="uni5728" unicode="&#x5728;" d="M907 18 q0 -7 -4.5 -13.5 q-4.5 -6.5 -12.5 -6.5 l-524 -43 q-8 -1 -14 4 q-6 5 -6 13 l-6 68 q-1 8 4.5 13.5 q5.5 5.5 12.5 6.5 l204 17 q8 1 13.5 6.5 q5.5 5.5 5.5 13.5 l0 164 q0 8 -5.5 13.5 q-5.5 5.5 -13.5 5.5 l-171 7 q-8 0 -13.5 6 q-5.5 6 -3.5 14 l1 38 q0 6 5.5 11.5 q5.5 5.5 13.5 5.5 l168 -7 q8 0 13.5 5 q5.5 5 5.5 13 l0 131 q0 8 5.5 14 q5.5 6 12.5 6 l51 0 q8 0 13 -6 q5 -6 5 -14 l0 -134 q0 -8 6 -14 q6 -6 14 -6 l171 -7 q7 -1 12 -6.5 q5 -5.5 5 -12.5 l-1 -38 q-1 -8 -7 -13.5 q-6 -5.5 -13 -5.5 l-167 9 q-8 0 -14 -5.5 q-6 -5.5 -6 -13.5 l0 -153 q0 -8 6 -12.5 q6 -4.5 14 -4.5 l195 16 q7 1 13.5 -4 q6.5 -5 6.5 -13 l5 -68 ZM307 380 q2 0 4.5 -5 q2.5 -5 2.5 -13 l0 -381 q0 -8 -5 -13 q-5 -5 -13 -5 l-57 0 q-7 0 -12.5 5 q-5.5 5 -5.5 13 l0 307 q0 8 -4 10 q-4 2 -10 -4 l-44 -41 q-7 -6 -14.5 -6 q-7.5 0 -12.5 7 l-38 40 q-6 6 -6 13.5 q0 7.5 6 12.5 l250 236 q7 5 5.5 8.5 q-1.5 3.5 -9.5 3.5 l-191 -8 q-8 0 -13 5 q-5 5 -7 13 l-2 56 q0 7 5 13 q5 6 14 7 l248 9 q7 1 12.5 7 q5.5 6 6.5 14 l4 63 q0 8 5.5 12.5 q5.5 4.5 13.5 4.5 l57 -3 q7 0 12 -6 q5 -6 5 -14 l-3 -54 q0 -8 5 -13 q5 -5 13 -5 l344 15 q8 0 13 -5.5 q5 -5.5 6 -13.5 l3 -56 q0 -8 -5.5 -13 q-5.5 -5 -13.5 -5 l-353 -15 q-7 -1 -16 -4.5 q-9 -3.5 -16 -9.5 l-178 -169 q-6 -5 -7.5 -9 q-1.5 -4 1.5 -4 Z" /><glyph glyph-name="uni5730" unicode="&#x5730;" d="M406 145 q6 -9 3.5 -19.5 q-2.5 -10.5 -11.5 -17.5 l-208 -129 q-10 -5 -20 -3 q-10 2 -16 11 l-41 68 q-7 9 -4.5 19.5 q2.5 10.5 12.5 17.5 l26 16 q10 6 16.5 17.5 q6.5 11.5 6.5 22.5 l0 288 q0 11 -7.5 17.5 q-7.5 6.5 -18.5 5.5 l-11 -2 q-11 0 -20 6 q-9 6 -10 17 l-1 13 q-1 11 5.5 20 q6.5 9 17.5 10 l19 3 q11 1 18.5 9.5 q7.5 8.5 7.5 18.5 l0 169 q0 12 7.5 19.5 q7.5 7.5 17.5 7.5 l80 0 q11 0 18.5 -7.5 q7.5 -7.5 7.5 -19.5 l0 -151 q0 -12 7.5 -18.5 q7.5 -6.5 19.5 -4.5 l10 2 q11 1 19.5 -6 q8.5 -7 10.5 -17 l1 -14 q1 -10 -5.5 -19.5 q-6.5 -9.5 -17.5 -10.5 l-18 -2 q-12 -1 -19.5 -10 q-7.5 -9 -7.5 -19 l0 -222 q0 -11 6.5 -14.5 q6.5 -3.5 16.5 2.5 l4 1 q9 7 19 4 q10 -3 16 -11 l43 -68 ZM896 26 q4 -10 -1 -17.5 q-5 -7.5 -15 -8.5 l-395 -33 q-11 -1 -19 5.5 q-8 6.5 -8 18.5 l-12 343 q0 10 -7.5 14.5 q-7.5 4.5 -17.5 -0.5 l-27 -12 q-10 -4 -20.5 -0.5 q-10.5 3.5 -14.5 14.5 l-33 71 q-4 10 0 20.5 q4 10.5 13 15.5 l77 35 q10 5 17 15.5 q7 10.5 6 21.5 l-6 166 q0 10 7.5 17.5 q7.5 7.5 18.5 8.5 l35 1 q12 0 20 -7 q8 -7 8 -18 l3 -128 q2 -11 9 -15 q7 -4 17 -1 l18 8 q9 5 16.5 16 q7.5 11 6.5 22 l-2 126 q0 11 7 19 q7 8 18 8 l31 1 q12 0 19.5 -7.5 q7.5 -7.5 7.5 -18.5 l2 -90 q0 -11 7.5 -15 q7.5 -4 16.5 0 l140 65 q11 4 18.5 -0.5 q7.5 -4.5 7.5 -14.5 l20 -467 q0 -12 -7.5 -21.5 q-7.5 -9.5 -16.5 -13.5 l-103 -29 q-11 -3 -20.5 2 q-9.5 5 -12.5 16 l-21 76 q-4 10 1.5 20 q5.5 10 15.5 13 l3 0 q11 3 17.5 13 q6.5 10 6.5 21 l-6 167 q0 11 -7.5 15.5 q-7.5 4.5 -18.5 -0.5 l-14 -6 q-9 -4 -16 -15 q-7 -11 -7 -23 l4 -166 q0 -11 -7.5 -19 q-7.5 -8 -17.5 -8 l-31 -1 q-12 0 -20 7.5 q-8 7.5 -8 19.5 l-2 130 q0 11 -7.5 15 q-7.5 4 -16.5 -1 l-18 -6 q-9 -5 -16 -16 q-7 -11 -7 -21 l11 -288 q0 -11 8 -18 q8 -7 19 -6 l182 15 q11 1 17 5 q6 4 4 9 q-3 4 3.5 10.5 q6.5 6.5 15.5 11.5 l34 12 q10 5 19.5 1 q9.5 -4 14.5 -14 l36 -86 Z" /><glyph glyph-name="uni57CE" unicode="&#x57ce;" d="M854 275 q-7 -11 -9.5 -24.5 q-2.5 -13.5 0.5 -24.5 l43 -232 q3 -12 -3.5 -20.5 q-6.5 -8.5 -16.5 -10.5 l-46 -9 q-12 -1 -20.5 4.5 q-8.5 5.5 -10.5 17.5 l-24 126 q-3 10 -8.5 11.5 q-5.5 1.5 -10.5 -8.5 l-64 -100 q-6 -9 -16.5 -11 q-10.5 -2 -19.5 3 l-18 12 q-11 6 -13 16.5 q-2 10.5 4 20.5 l106 168 q6 9 9 23.5 q3 14.5 1 24.5 l-56 290 q-1 11 -10 18 q-9 7 -19 7 l-115 -5 q-11 -1 -19.5 -8.5 q-8.5 -7.5 -9.5 -18.5 l-12 -111 q-1 -10 6 -18 q7 -8 17 -8 l154 0 q12 0 18.5 -7.5 q6.5 -7.5 2.5 -17.5 l-54 -257 q-2 -11 -11.5 -17 q-9.5 -6 -19.5 -4 l-46 10 q-11 2 -17 11 q-6 9 -4 21 l29 136 q4 10 -2.5 17.5 q-6.5 7.5 -18.5 7.5 l-40 0 q-10 0 -17.5 3 q-7.5 3 -7.5 7 q0 5 -1 -0.5 q-1 -5.5 -3 -16.5 l-34 -321 q-1 -11 -9 -17.5 q-8 -6.5 -20 -5.5 l-34 4 q-12 1 -18.5 9 q-6.5 8 -4.5 19 l15 144 q1 10 -4.5 14 q-5.5 4 -15.5 -1 l-187 -111 q-10 -5 -20 -2.5 q-10 2.5 -17 12.5 l-23 40 q-6 9 -3.5 19.5 q2.5 10.5 12.5 15.5 l71 43 q9 6 16 17.5 q7 11.5 6 22.5 l-4 220 q-2 10 -9.5 17 q-7.5 7 -18.5 5 l-22 -5 q-10 -2 -19.5 4 q-9.5 6 -11.5 18 l-3 22 q-3 10 3.5 19.5 q6.5 9.5 17.5 10.5 l34 5 q11 3 18 12 q7 9 7 20 l-3 121 q0 12 7.5 20 q7.5 8 18.5 8 l60 1 q10 1 18 -6.5 q8 -7.5 8 -18.5 l3 -106 q1 -10 8.5 -16.5 q7.5 -6.5 18.5 -4.5 l0 0 q12 2 20.5 -4 q8.5 -6 10.5 -17 l4 -22 q2 -11 -4.5 -20 q-6.5 -9 -16.5 -10 l-13 -3 q-10 -2 -17.5 -11 q-7.5 -9 -7.5 -20 l4 -174 q1 -11 7 -15 q6 -4 16 2 q9 5 18 3.5 q9 -1.5 14 -8.5 q4 -8 7.5 -5 q3.5 3 4.5 13 l41 372 q1 10 9 18 q8 8 19 8 l176 7 q12 0 18 8 q6 8 4 19 l-4 25 q-3 10 3.5 19.5 q6.5 9.5 16.5 11.5 l46 8 q12 2 21 -4 q9 -6 10 -17 l7 -39 q3 -11 12 -18.5 q9 -7.5 20 -6.5 l35 1 q11 1 12 4.5 q1 3.5 -10 9.5 l-25 13 q-9 5 -12.5 15.5 q-3.5 10.5 2.5 20.5 l10 19 q5 9 15 12.5 q10 3.5 21 -1.5 l32 -17 q9 -5 12.5 -15.5 q3.5 -10.5 -1.5 -20.5 l-9 -15 q-5 -9 -5 -16.5 q0 -7.5 5 -6.5 q4 0 8 -7.5 q4 -7.5 4 -18.5 l1 -35 q1 -11 -6.5 -18.5 q-7.5 -7.5 -19.5 -7.5 l-52 -2 q-12 -1 -18.5 -8.5 q-6.5 -7.5 -3.5 -19.5 l32 -169 q2 -10 6.5 -13 q4.5 -3 9.5 5 q5 7 14.5 8 q9.5 1 18.5 -5 l19 -11 q10 -6 12.5 -16 q2.5 -10 -3.5 -21 l-38 -58 Z" /><glyph glyph-name="uni5899" unicode="&#x5899;" d="M362 217 q8 3 16.5 -2 q8.5 -5 10.5 -14 l10 -42 q2 -10 -3 -17.5 q-5 -7.5 -13 -9.5 l-200 -47 q-8 -2 -16 3 q-8 5 -10 13 l-10 43 q-2 9 2.5 16.5 q4.5 7.5 13.5 9.5 l41 10 q9 3 15.5 10.5 q6.5 7.5 6.5 16.5 l-3 156 q0 10 -6 14.5 q-6 4.5 -16 3.5 l-4 -2 q-9 -1 -16.5 3.5 q-7.5 4.5 -10.5 14.5 l-8 43 q-2 10 3 17.5 q5 7.5 13 8.5 l22 4 q9 3 15.5 10.5 q6.5 7.5 6.5 16.5 l0 84 q-1 9 5.5 15.5 q6.5 6.5 15.5 6.5 l26 0 q9 0 16 -6 q7 -6 7 -16 l0 -70 q0 -10 6.5 -15 q6.5 -5 15.5 -3 l20 4 q9 2 16.5 -3 q7.5 -5 9.5 -15 l6 -31 q1 -9 9 -14.5 q8 -5.5 17 -5.5 l78 2 q10 0 15 7 q5 7 3 16 l-12 52 q-2 9 3 16.5 q5 7.5 13 9.5 l27 6 q9 2 16.5 -3 q7.5 -5 9.5 -13 l14 -67 q2 -8 4.5 -14.5 q2.5 -6.5 3.5 -6.5 q1 0 2.5 6.5 q1.5 6.5 1.5 15.5 l1 112 q0 9 -6.5 15 q-6.5 6 -14.5 4 l-118 -11 q-11 -1 -17 4.5 q-6 5.5 -8 14.5 l-3 27 q-1 9 4.5 16 q5.5 7 14.5 8 l128 13 q8 1 15 8 q7 7 7 16 l1 56 q0 9 6.5 15.5 q6.5 6.5 15.5 6.5 l26 0 q10 -1 16 -7.5 q6 -6.5 6 -15.5 l-1 -48 q0 -9 6.5 -15 q6.5 -6 15.5 -5 l106 11 q9 1 16 -5 q7 -6 8 -15 l2 -26 q1 -10 -4.5 -16.5 q-5.5 -6.5 -14.5 -8.5 l-114 -11 q-9 -1 -15.5 -8 q-6.5 -7 -6.5 -16 l-2 -116 q0 -10 6 -16 q6 -6 16 -5 l13 0 q8 0 15.5 7 q7.5 7 8.5 16 l6 57 q1 10 8.5 15.5 q7.5 5.5 17.5 4.5 l26 -3 q9 -2 14.5 -8.5 q5.5 -6.5 3.5 -16.5 l-4 -47 q-1 -9 4 -15.5 q5 -6.5 15 -4.5 l37 1 q9 0 16 -6.5 q7 -6.5 7 -15.5 l1 -44 q1 -9 -5 -15.5 q-6 -6.5 -15 -7.5 l-451 -15 q-9 -1 -15.5 5.5 q-6.5 6.5 -7.5 15.5 l-1 30 q0 9 -7 14 q-7 5 -15 3 l-20 -3 q-9 -2 -15.5 -10 q-6.5 -8 -4.5 -17 l1 -153 q0 -9 6 -14 q6 -5 16 -3 l44 10 ZM399 293 q-1 9 5.5 15.5 q6.5 6.5 15.5 7.5 l414 20 q9 0 15 -6 q6 -6 4 -15 l-40 -322 q-1 -9 -8 -15.5 q-7 -6.5 -16 -7.5 l-346 -10 q-9 -1 -16 5 q-7 6 -7 15 l-21 313 ZM490 253 q-9 0 -15.5 -7 q-6.5 -7 -5.5 -16 l13 -182 q0 -9 7 -15.5 q7 -6.5 16 -4.5 l225 6 q10 0 16.5 6.5 q6.5 6.5 8.5 16.5 l23 188 q1 9 -4.5 15.5 q-5.5 6.5 -14.5 5.5 l-269 -13 ZM551 84 q-9 0 -16 6.5 q-7 6.5 -8 15.5 l-13 94 q-1 9 5 16 q6 7 15 7 l180 12 q9 1 14.5 -5.5 q5.5 -6.5 4.5 -15.5 l-19 -108 q-1 -9 -8 -15 q-7 -6 -17 -6 l-138 -1 ZM583 183 q-9 -1 -15 -8 q-6 -7 -4 -15 l1 -11 q1 -9 8.5 -15 q7.5 -6 16.5 -6 l62 0 q9 0 16.5 6.5 q7.5 6.5 8.5 14.5 l3 18 q1 9 -3.5 15.5 q-4.5 6.5 -15.5 4.5 l-78 -4 Z" /><glyph glyph-name="uni591A" unicode="&#x591a;" d="M162 352 q-2 8 2.5 15.5 q4.5 7.5 12.5 10.5 l218 56 q9 2 10.5 8 q1.5 6 -5.5 12 l-43 35 q-7 6 -7.5 14 q-0.5 8 6.5 15 l46 46 q6 7 15 7 q9 0 16 -6 l93 -78 q7 -7 18 -8.5 q11 -1.5 20 -0.5 l206 54 q9 2 15 10 q6 8 6 15 l0 25 q0 8 -6.5 14 q-6.5 6 -15.5 6 l-302 0 q-10 0 -16 6.5 q-6 6.5 -6 14.5 l0 17 q0 8 -6 11 q-6 3 -13 -2 l-207 -125 q-7 -5 -16 -3 q-9 2 -14 8 l-17 23 q-4 7 -3 15 q1 8 9 13 l281 170 q8 5 16.5 3 q8.5 -2 12.5 -8 l18 -23 q4 -7 2.5 -16 q-1.5 -9 -8.5 -12 l-18 -12 q-9 -4 -7.5 -7.5 q1.5 -3.5 10.5 -3.5 l359 0 q9 0 15.5 -6 q6.5 -6 6.5 -14 l0 -146 q0 -8 -6 -15.5 q-6 -7.5 -15 -9.5 l-648 -169 q-9 -1 -16.5 3 q-7.5 4 -10.5 12 l-8 26 ZM847 467 q9 3 16.5 -1 q7.5 -4 11.5 -12 l16 -49 q2 -8 -2 -15.5 q-4 -7.5 -13 -9.5 l-587 -161 q-9 -3 -17 1.5 q-8 4.5 -10 12.5 l-16 48 q-3 8 1.5 15.5 q4.5 7.5 13.5 9.5 l586 161 ZM894 186 q4 -8 -0.5 -15 q-4.5 -7 -14.5 -11 l-170 -45 q-8 -2 -13 -4 q-5 -2 -4 -4 q1 -1 -2.5 -6 q-3.5 -5 -9.5 -11 l-43 -48 q-6 -6 -15 -7 q-9 -1 -16 5 l-31 23 q-7 5 -18 7 q-11 2 -20 -1 l-392 -104 q-8 -2 -16.5 2.5 q-8.5 4.5 -10.5 11.5 l-13 39 q-3 8 1.5 15.5 q4.5 7.5 13.5 9.5 l334 89 q9 2 10 7 q1 5 -5 11 l-32 23 q-8 6 -8.5 14 q-0.5 8 5.5 15 l43 48 q6 7 15 7.5 q9 0.5 16 -4.5 l92 -69 q7 -5 17.5 -7.5 q10.5 -2.5 18.5 1.5 l144 38 q9 2 14 9.5 q5 7.5 1 14.5 l-22 69 q-2 7 2 14.5 q4 7.5 13 10.5 l42 10 q9 4 17 -0.5 q8 -4.5 10 -11.5 l47 -146 Z" /><glyph glyph-name="uni591F" unicode="&#x591f;" d="M201 478 q-4 -8 -12.5 -11.5 q-8.5 -3.5 -16.5 0.5 l-48 22 q-7 5 -10.5 13.5 q-3.5 8.5 -0.5 16.5 l98 208 q4 8 12.5 11.5 q8.5 3.5 16.5 -0.5 l48 -22 q7 -4 10.5 -12.5 q3.5 -8.5 0.5 -16.5 l-12 -26 q-4 -8 -1 -13 q3 -5 13 -1 l158 41 q10 2 15 -2.5 q5 -4.5 4 -13.5 l-13 -100 q-1 -8 2 -9.5 q3 -1.5 8 6.5 l130 177 q6 8 15.5 9 q9.5 1 15.5 -5 l36 -25 q7 -6 8.5 -15 q1.5 -9 -3.5 -16 l-5 -7 q-6 -7 -3.5 -15 q2.5 -8 9.5 -13 l123 -58 q8 -5 9 -12 q1 -7 -5 -14 l-240 -238 q-7 -5 -16 -5 q-9 0 -15 5 l-25 26 q-6 7 -6 16 q0 9 6 15 l73 73 q7 6 6.5 14.5 q-0.5 8.5 -7.5 14.5 l-3 2 q-7 6 -8 14.5 q-1 8.5 4 16.5 l16 21 q6 7 14.5 8 q8.5 1 16.5 -4 l10 -8 q8 -6 17 -5 q9 1 16 7 l6 4 q7 7 5 14.5 q-2 7.5 -10 11.5 l-34 17 q-8 3 -18 1 q-10 -2 -16 -9 l-68 -93 q-5 -7 -14 -9 q-9 -2 -17 4 l-23 17 q-8 6 -13.5 3 q-5.5 -3 -6.5 -12 l-67 -517 q-1 -9 -8.5 -13 q-7.5 -4 -15.5 -2 l-196 63 q-9 4 -13 12 q-4 8 -2 16 l12 34 q2 7 10 11.5 q8 4.5 18 1.5 l104 -34 q9 -2 16 2 q7 4 8 13 l64 481 q1 9 -5 14.5 q-6 5.5 -15 1.5 l-108 -27 q-9 -4 -18 -11 q-9 -7 -12 -16 l-24 -49 ZM805 388 q-7 -7 -8.5 -15.5 q-1.5 -8.5 4.5 -16.5 l82 -108 q6 -8 4.5 -17 q-1.5 -9 -9.5 -14 l-300 -228 q-8 -6 -16.5 -4.5 q-8.5 1.5 -14.5 7.5 l-22 28 q-6 8 -4 16.5 q2 8.5 9 14.5 l123 93 q8 6 9 15 q1 9 -5 16 l-23 32 q-5 7 -4 16.5 q1 9.5 9 13.5 l21 16 q8 6 16.5 5 q8.5 -1 14.5 -9 l23 -31 q6 -7 14.5 -8 q8.5 -1 16.5 3 l23 20 q7 4 8.5 13.5 q1.5 9.5 -4.5 16.5 l-34 45 q-6 8 -14.5 9 q-8.5 1 -15.5 -5 l-166 -126 q-6 -6 -15.5 -5 q-9.5 1 -15.5 8 l-26 35 q-6 8 -5 16.5 q1 8.5 8 14.5 l319 245 q7 5 15.5 4 q8.5 -1 14.5 -8 l27 -36 q6 -6 4.5 -15.5 q-1.5 -9.5 -8.5 -15.5 l-55 -41 ZM314 211 q-2 -8 -8.5 -13 q-6.5 -5 -14.5 -3 l-115 30 q-8 2 -14.5 9.5 q-6.5 7.5 -6.5 16.5 l0 155 q0 11 6.5 18.5 q6.5 7.5 15.5 8.5 l138 27 q8 3 13.5 -2.5 q5.5 -5.5 5.5 -14.5 l-20 -232 ZM265 366 q1 11 -4.5 15.5 q-5.5 4.5 -15.5 3.5 l-6 -3 q-11 -1 -16.5 -8.5 q-5.5 -7.5 -5.5 -17.5 l0 -57 q0 -9 5.5 -17 q5.5 -8 14.5 -10 q8 -2 14 3 q6 5 7 14 l7 77 Z" /><glyph glyph-name="uni5927" unicode="&#x5927;" d="M903 499 q2 -8 -3 -13.5 q-5 -5.5 -11 -6.5 l-340 -31 q-7 -1 -14.5 -6 q-7.5 -5 -11.5 -11 l-265 -460 q-3 -6 -10 -8 q-7 -2 -13 2 l-130 74 q-7 4 -8.5 10.5 q-1.5 6.5 1.5 13.5 l201 347 q3 6 0 10.5 q-3 4.5 -10 3.5 l-166 -15 q-8 -1 -13.5 3.5 q-5.5 4.5 -6.5 11.5 l-6 70 q-1 8 3.5 13.5 q4.5 5.5 11.5 6.5 l242 22 q8 1 15.5 6 q7.5 5 10.5 11 l113 195 q3 7 10 9 q7 2 14 -2 l130 -75 q6 -3 7.5 -10 q1.5 -7 -1.5 -14 l-49 -83 q-2 -5 0.5 -9.5 q2.5 -4.5 9.5 -3.5 l264 24 q8 1 13.5 -3.5 q5.5 -4.5 5.5 -11.5 l6 -70 ZM880 124 q7 -4 8 -11.5 q1 -7.5 -4 -12.5 l-61 -75 q-5 -6 -11.5 -7 q-6.5 -1 -13.5 3 l-256 206 q-7 5 -7.5 12 q-0.5 7 4.5 12 l61 76 q4 6 11 6.5 q7 0.5 14 -3.5 l255 -206 Z" /><glyph glyph-name="uni5929" unicode="&#x5929;" d="M795 433 q1 -9 -4.5 -16 q-5.5 -7 -14.5 -8 l-302 -39 q-9 -1 -18.5 -7.5 q-9.5 -6.5 -12.5 -14.5 l-175 -366 q-5 -8 -13.5 -11 q-8.5 -3 -16.5 1 l-39 19 q-8 4 -11.5 12.5 q-3.5 8.5 1.5 16.5 l149 314 q5 8 1.5 13.5 q-3.5 5.5 -14.5 4.5 l-67 -10 q-10 -1 -17.5 5 q-7.5 6 -8.5 15 l-5 44 q0 9 5 16 q5 7 14 8 l125 16 q10 1 18.5 8 q8.5 7 13.5 15 l72 152 q5 8 1 13 q-4 5 -14 4 l-184 -18 q-9 -2 -16 4 q-7 6 -8 15 l-3 44 q-1 9 4 16 q5 7 15 8 l405 41 q8 2 15 -4 q7 -6 8 -15 l5 -44 q1 -9 -5 -16 q-6 -7 -15 -8 l-93 -9 q-8 -1 -12.5 -3 q-4.5 -2 -1.5 -3 q2 -1 1.5 -8.5 q-0.5 -7.5 -3.5 -14.5 l-68 -141 q-3 -8 0 -13.5 q3 -5.5 13 -4.5 l246 33 q9 1 16.5 -5 q7.5 -6 8.5 -15 l5 -44 ZM807 142 q7 -7 7 -16 q0 -9 -7 -15 l-30 -31 q-6 -6 -15.5 -6 q-9.5 0 -16.5 6 l-180 181 q-6 7 -6 16 q0 9 6 16 l31 30 q7 7 16 7 q9 0 15 -7 l180 -181 Z" /><glyph glyph-name="uni5973" unicode="&#x5973;" d="M851 549 q0 -9 -6.5 -16 q-6.5 -7 -15.5 -7 l-318 -4 q-9 0 -20 -4.5 q-11 -4.5 -17 -11.5 l-111 -119 q-6 -6 -5 -14 q1 -8 10 -12 l103 -58 q8 -4 18 -2 q10 2 14 9 l120 161 q6 8 15 9 q9 1 16 -4 l49 -37 q8 -6 9.5 -14.5 q1.5 -8.5 -4.5 -16.5 l-112 -150 q-5 -7 -3 -15.5 q2 -8.5 9 -12.5 l203 -112 q8 -5 10 -13.5 q2 -8.5 -2 -16.5 l-21 -38 q-5 -8 -13.5 -10 q-8.5 -2 -16.5 1 l-213 118 q-7 5 -16.5 2.5 q-9.5 -2.5 -15.5 -8.5 l-118 -159 q-6 -7 -14.5 -8.5 q-8.5 -1.5 -16.5 3.5 l-50 37 q-7 6 -8 14.5 q-1 8.5 3 16.5 l111 147 q6 7 4 15.5 q-2 8.5 -10 12.5 l-191 107 q-8 4 -9.5 11.5 q-1.5 7.5 5.5 14.5 l130 139 q5 7 3.5 11 q-1.5 4 -10.5 4 l-174 -2 q-9 0 -15.5 6.5 q-6.5 6.5 -6.5 15.5 l-1 26 q0 10 6.5 16.5 q6.5 6.5 15.5 6.5 l240 3 q11 0 21 5 q10 5 17 12 l111 118 q5 7 14.5 7 q9.5 0 16.5 -5 l31 -31 q7 -6 7.5 -15.5 q0.5 -9.5 -6.5 -16.5 l-52 -56 q-7 -7 -4.5 -11.5 q2.5 -4.5 11.5 -4.5 l250 3 q9 2 16 -4.5 q7 -6.5 7 -15.5 l0 -27 Z" /><glyph glyph-name="uni597D" unicode="&#x597d;" d="M489 533 q9 -1 15 -8 q6 -7 5 -15 l-5 -69 q0 -9 -6.5 -15 q-6.5 -6 -15.5 -5 l-214 14 q-8 1 -16.5 -4.5 q-8.5 -5.5 -11.5 -13.5 l-53 -137 q-4 -8 -0.5 -16.5 q3.5 -8.5 11.5 -12.5 l86 -35 q9 -4 17.5 -0.5 q8.5 3.5 11.5 10.5 l59 120 q4 8 12.5 10.5 q8.5 2.5 16.5 -1.5 l19 -9 q8 -5 10.5 -13.5 q2.5 -8.5 -1.5 -15.5 l-57 -115 q-4 -8 -1 -16 q3 -8 11 -12 l50 -20 q8 -4 11.5 -12.5 q3.5 -8.5 -0.5 -15.5 l-8 -21 q-3 -8 -11 -11.5 q-8 -3.5 -16 0.5 l-55 23 q-8 3 -16 -0.5 q-8 -3.5 -12 -10.5 l-27 -54 q-4 -8 -12 -10.5 q-8 -2.5 -16 0.5 l-19 10 q-8 5 -11 13 q-3 8 1 16 l25 50 q4 6 1 15 q-3 9 -11 11 l-141 60 q-8 3 -11.5 11 q-3.5 8 0.5 16 l69 177 q3 9 -1 15 q-4 6 -12 6 l-42 4 q-9 1 -15 7 q-6 6 -6 16 l5 69 q1 8 7 14 q6 6 16 5 l77 -6 q9 -1 17.5 5 q8.5 6 10.5 14 l65 165 q3 8 11 11.5 q8 3.5 16 0.5 l21 -8 q8 -4 11.5 -12 q3.5 -8 0.5 -16 l-58 -146 q-2 -8 1.5 -14 q3.5 -6 12.5 -6 l178 -12 ZM903 231 q0 -8 -5.5 -14.5 q-5.5 -6.5 -15.5 -7.5 l-94 -5 q-8 0 -13.5 -6.5 q-5.5 -6.5 -4.5 -15.5 l20 -191 q2 -9 -3.5 -15 q-5.5 -6 -14.5 -6 l-98 0 q-8 0 -14 6 q-6 6 -6 15 l0 22 q0 9 6 15.5 q6 6.5 14 6.5 l27 0 q9 0 14 6.5 q5 6.5 4 15.5 l-12 122 q-2 9 -8.5 15.5 q-6.5 6.5 -16.5 5.5 l-153 -7 q-9 0 -15 5.5 q-6 5.5 -6 14.5 l-2 22 q-1 9 5.5 15.5 q6.5 6.5 14.5 7.5 l149 7 q10 0 15 6.5 q5 6.5 4 15.5 l-15 138 q-1 9 2 20.5 q3 11.5 8 18.5 l90 115 q5 7 2.5 13.5 q-2.5 6.5 -10.5 7.5 l-252 53 q-9 1 -13.5 8.5 q-4.5 7.5 -3.5 16.5 l10 48 q1 9 8.5 14 q7.5 5 15.5 3 l323 -66 q10 -3 14.5 -10 q4.5 -7 3.5 -16 l-9 -43 q-3 -9 -4 -15.5 q-1 -6.5 0 -6.5 q0 0 -1 -1 l-1 -3 q0 -1 0 -1 q-1 -3 -4 -5 q-2 -3 -4.5 -5.5 q-2.5 -2.5 -5.5 -6.5 l-92 -120 q-6 -6 -9.5 -17 q-3.5 -11 -2.5 -20 l14 -118 q1 -8 7.5 -14 q6.5 -6 15.5 -5 l99 4 q8 0 14.5 -5.5 q6.5 -5.5 7.5 -14.5 l1 -23 Z" /><glyph glyph-name="uni5B50" unicode="&#x5b50;" d="M196 330 q-7 -1 -12.5 3.5 q-5.5 4.5 -6.5 12.5 l-4 52 q-1 8 3.5 13 q4.5 5 12.5 6 l287 24 q7 2 15 6 q8 4 12 11 l93 138 q4 6 1.5 10.5 q-2.5 4.5 -9.5 4.5 l-292 -18 q-8 0 -13 4.5 q-5 4.5 -6 13.5 l-4 51 q0 8 5.5 13.5 q5.5 5.5 11.5 6.5 l470 25 q8 1 10 -3 q2 -4 -2 -11 l-153 -226 q-5 -6 -2.5 -10 q2.5 -4 10.5 -3 l182 15 q6 1 12 -3.5 q6 -4.5 6 -12.5 l5 -53 q1 -7 -4 -12.5 q-5 -5.5 -13 -5.5 l-236 -21 q-9 0 -12 -6 q-3 -6 -3 -12 l57 -280 q1 -6 -3 -11.5 q-4 -5.5 -11 -6.5 l-218 -32 q-7 0 -13 4 q-6 4 -7 10 l-8 52 q-1 7 3.5 13.5 q4.5 6.5 11.5 7.5 l127 17 q7 1 11 7.5 q4 6.5 2 12.5 l-40 199 q-1 7 -7.5 11.5 q-6.5 4.5 -13.5 3.5 l-255 -21 l0 0 Z" /><glyph glyph-name="uni5B69" unicode="&#x5b69;" d="M442 324 q8 2 15.5 -3.5 q7.5 -5.5 8.5 -16.5 l6 -34 q2 -10 -3 -18.5 q-5 -8.5 -15 -9.5 l-84 -17 q-9 -1 -14 -9 q-5 -8 -3 -17 l25 -187 q2 -9 -3.5 -16 q-5.5 -7 -14.5 -7 l-144 0 q-9 0 -15.5 7 q-6.5 7 -6.5 17 l0 35 q0 10 6.5 17 q6.5 7 15.5 7 l58 0 q8 0 13 7 q5 7 4 16 l-11 89 q-2 9 -9.5 14.5 q-7.5 5.5 -15.5 4.5 l-124 -25 q-9 -1 -16 4 q-7 5 -9 15 l-6 35 q-1 10 4 17.5 q5 7.5 13 10.5 l127 25 q8 1 13 9 q5 8 4 18 l-3 31 q-3 10 0 22.5 q3 12.5 8 20.5 l95 156 q6 7 3.5 16 q-2.5 9 -10.5 13 l-147 73 q-8 4 -11.5 12.5 q-3.5 8.5 1.5 18.5 l12 33 q4 9 12.5 12.5 q8.5 3.5 15.5 -0.5 l230 -114 q8 -4 10 -12.5 q2 -8.5 -3 -16.5 l-130 -211 q-5 -8 -7.5 -20 q-2.5 -12 -1.5 -21 q1 -9 8 -14 q7 -5 16 -3 l83 16 ZM536 139 q-7 -6 -15.5 -5.5 q-8.5 0.5 -14.5 8.5 l-21 28 q-5 8 -4 17.5 q1 9.5 8 15.5 l108 99 q8 6 7 13.5 q-1 7.5 -8 10.5 l-120 67 q-8 5 -9.5 13 q-1.5 8 3.5 16 l56 81 q5 8 3.5 12 q-1.5 4 -8.5 3 q-8 -1 -13.5 4 q-5.5 5 -8.5 16 l-6 34 q-2 11 3.5 19 q5.5 8 13.5 9 l93 21 q8 2 11 9 q3 7 -3 15 l-36 56 q-4 8 -3 18 q1 10 9 14 l26 22 q7 5 15.5 3 q8.5 -2 14.5 -10 l54 -86 q5 -8 14.5 -12.5 q9.5 -4.5 17.5 -2.5 l103 22 q9 2 16 -3 q7 -5 9 -15 l6 -35 q2 -9 -3 -17.5 q-5 -8.5 -13 -10.5 l-173 -38 q-8 -2 -17.5 -8 q-9.5 -6 -14.5 -15 l-52 -75 q-5 -8 -3.5 -17 q1.5 -9 9.5 -13 l69 -37 q8 -5 18.5 -3.5 q10.5 1.5 16.5 7.5 l95 86 q6 5 14.5 4.5 q8.5 -0.5 14.5 -8.5 l20 -27 q6 -9 5 -18.5 q-1 -9.5 -7 -15.5 l-300 -271 ZM894 356 q4 -8 3.5 -18.5 q-0.5 -10.5 -6.5 -15.5 l-329 -355 q-5 -6 -14 -6 q-9 0 -15 6 l-22 27 q-7 7 -7 16.5 q0 9.5 7 16.5 l334 360 q7 7 15 6.5 q8 -0.5 14 -8.5 l20 -29 ZM894 53 q5 -7 6 -16.5 q1 -9.5 -6 -17.5 l-22 -25 q-6 -7 -15 -7 q-9 0 -15 6 l-92 97 q-7 7 -7 17 q0 10 6 17 l22 26 q7 7 15.5 7 q8.5 0 15.5 -7 l92 -97 Z" /><glyph glyph-name="uni5B8C" unicode="&#x5b8c;" d="M840 570 q8 -1 12.5 -6 q4.5 -5 3.5 -13 l-26 -147 q-2 -7 -8 -12 q-6 -5 -13 -3 l-59 10 q-8 1 -12.5 7.5 q-4.5 6.5 -2.5 14.5 l7 42 q1 8 -3.5 13.5 q-4.5 5.5 -12.5 6.5 l-468 38 q-8 1 -13 -4 q-5 -5 -5 -13 l0 -100 q0 -9 -6 -14 q-6 -5 -14 -5 l-59 0 q-8 0 -13 5 q-5 5 -5 14 l0 205 q0 7 5 12.5 q5 5.5 13 3.5 l237 -18 q8 -1 11.5 3.5 q3.5 4.5 1.5 12.5 l-26 76 q-4 8 -0.5 14.5 q3.5 6.5 10.5 9.5 l83 29 q7 3 13.5 0 q6.5 -3 10.5 -12 l45 -126 q2 -8 3.5 -13 q1.5 -5 0.5 -7 q-1 0 3.5 -0.5 q4.5 -0.5 12.5 -1.5 l273 -22 ZM366 387 q-7 2 -12 7.5 q-5 5.5 -4 12.5 l3 38 q2 7 7.5 12 q5.5 5 13.5 4 l232 -23 q9 -1 14 -7 q5 -6 4 -14 l-4 -38 q-1 -7 -6.5 -12 q-5.5 -5 -13.5 -4 l-234 24 ZM832 80 q8 0 13 -5.5 q5 -5.5 5 -12.5 l0 -77 q0 -8 -5 -13 q-5 -5 -13 -5 l-328 0 q-7 0 -12.5 5 q-5.5 5 -5.5 13 l0 239 q0 8 -4 13.5 q-4 5.5 -11 5.5 q-6 0 -11.5 -5 q-5.5 -5 -7.5 -13 l-26 -132 q-1 -7 -7.5 -14.5 q-6.5 -7.5 -13.5 -10.5 l-185 -73 q-7 -2 -14.5 1 q-7.5 3 -9.5 11 l-14 34 q-2 7 1 14 q3 7 9 10 l148 58 q7 2 13 9.5 q6 7.5 7 15.5 l16 78 q2 8 -2 13.5 q-4 5.5 -12 6.5 l-121 3 q-8 0 -13.5 5.5 q-5.5 5.5 -5.5 13.5 l2 55 q1 8 6 13 q5 5 13 5 l466 -12 q8 0 13 -6 q5 -6 5 -14 l-1 -55 q-1 -8 -6 -13 q-5 -5 -13 -5 l-88 2 q-8 1 -13 -4 q-5 -5 -5 -13 l0 -122 q0 -8 5 -13.5 q5 -5.5 13 -5.5 l213 0 Z" /><glyph glyph-name="uni5B9A" unicode="&#x5b9a;" d="M869 665 q12 1 17 -5 q5 -6 2 -17 l-49 -150 q-2 -11 -12.5 -16 q-10.5 -5 -19.5 -2 l-34 11 q-11 3 -15.5 13 q-4.5 10 -0.5 20 l7 22 q2 10 -3.5 17 q-5.5 7 -15.5 6 l-496 -55 q-10 -2 -15 -10 q-5 -8 -2 -18 l6 -15 q3 -10 -1.5 -20 q-4.5 -10 -14.5 -14 l-32 -12 q-12 -3 -21.5 1.5 q-9.5 4.5 -13.5 14.5 l-44 120 q-3 10 1.5 18 q4.5 8 16.5 9 l287 33 q12 1 14.5 8 q2.5 7 -2.5 16 l-37 53 q-6 9 -4 20 q2 11 11 16 l29 21 q9 6 19 4 q10 -2 17 -11 l38 -54 q6 -9 3.5 -20 q-2.5 -11 -10.5 -17 l-27 -18 q-9 -7 -8 -10.5 q1 -3.5 12 -2.5 l398 44 ZM730 464 q1 -12 -5 -20 q-6 -8 -18 -9 l-397 -40 q-10 -1 -18 5 q-8 6 -9 18 l-1 9 q-1 10 5 19 q6 9 18 10 l395 40 q12 1 20.5 -6 q8.5 -7 9.5 -18 l0 -8 ZM603 192 q-11 0 -18.5 -6.5 q-7.5 -6.5 -6.5 -18.5 l4 -52 q1 -10 -6 -18 q-7 -8 -18 -8 l-36 -4 q-10 -1 -18 6 q-8 7 -10 19 l-17 246 q-1 11 6 18.5 q7 7.5 18 8.5 l35 4 q11 0 19 -7 q8 -7 10 -19 l3 -54 q1 -10 9 -18 q8 -8 20 -8 l202 -8 q12 0 18.5 -8 q6.5 -8 6.5 -20 l-1 -34 q-1 -12 -8.5 -19.5 q-7.5 -7.5 -18.5 -6.5 l-193 7 ZM865 37 q1 -11 -5.5 -20 q-6.5 -9 -17.5 -10 l-392 -42 q-12 -1 -24.5 3.5 q-12.5 4.5 -19.5 12.5 l-139 140 q-7 8 -15 6.5 q-8 -1.5 -12 -12.5 l-39 -119 q-3 -11 -13 -15.5 q-10 -4.5 -20 -0.5 l-34 10 q-10 3 -15 13 q-5 10 -2 20 l91 273 q4 10 13.5 15.5 q9.5 5.5 18.5 1.5 l35 -11 q10 -4 14.5 -13 q4.5 -9 1.5 -21 l-30 -91 q-3 -10 -0.5 -12.5 q2.5 -2.5 10.5 6.5 l18 17 q8 8 18.5 7.5 q10.5 -0.5 19.5 -8.5 l111 -114 q8 -8 20.5 -12.5 q12.5 -4.5 24.5 -3.5 l350 38 q10 1 18.5 -5.5 q8.5 -6.5 9.5 -17.5 l4 -35 Z" /><glyph glyph-name="uni5B9D" unicode="&#x5b9d;" d="M199 462 q0 -9 -6.5 -13.5 q-6.5 -4.5 -15.5 -2.5 l-43 10 q-10 2 -15 4 q-3 1 -7 1 q0 0 0.5 6.5 q0.5 6.5 0.5 15.5 l-1 137 q0 9 -0.5 21.5 q-0.5 12.5 -1.5 21.5 l0 5 q0 10 6 16 q6 6 15 5 l264 -19 q9 0 11.5 5 q2.5 5 -4.5 11 l-9 11 q-6 7 -5.5 15.5 q0.5 8.5 7.5 15.5 l34 29 q5 5 14.5 4.5 q9.5 -0.5 14.5 -7.5 l59 -65 q6 -7 9 -13.5 q3 -6.5 0 -8.5 q-3 -2 1.5 -3.5 q4.5 -1.5 13.5 -2.5 l322 -23 q9 0 15.5 -7 q6.5 -7 6.5 -16 l0 -113 q0 -9 -6.5 -15 q-6.5 -6 -15.5 -6 l-43 0 q-10 0 -16.5 6 q-6.5 6 -6.5 15 l0 30 q0 11 -6 17 q-6 6 -16 8 l-552 37 q-9 2 -15 -4 q-6 -6 -7 -16 l-2 -112 ZM475 239 q1 -8 -5 -15.5 q-6 -7.5 -15 -8.5 l-193 -22 q-9 -1 -16 4.5 q-7 5.5 -8 14.5 l-6 43 q-1 9 4.5 16.5 q5.5 7.5 14.5 7.5 l194 23 q9 2 16 -4 q7 -6 8 -15 l6 -44 ZM562 72 q-1 -9 5 -15 q6 -6 16 -6 l286 3 q9 0 15.5 -6.5 q6.5 -6.5 6.5 -15.5 l0 -44 q0 -10 -6 -15.5 q-6 -5.5 -16 -7.5 l-708 -6 q-11 0 -17 6 q-6 6 -6 15 l0 44 q0 10 6 16.5 q6 6.5 15 6.5 l291 2 q10 0 16.5 7 q6.5 7 8.5 15 l9 169 q1 11 1 23.5 q0 12.5 0 20.5 l0 107 q0 8 -6.5 13.5 q-6.5 5.5 -15.5 4.5 l-146 -18 q-8 -1 -15.5 4.5 q-7.5 5.5 -8.5 14.5 l-6 44 q-1 9 4.5 16 q5.5 7 15.5 8 l408 52 q8 1 15.5 -4.5 q7.5 -5.5 8.5 -13.5 l5 -44 q1 -9 -4.5 -16 q-5.5 -7 -14.5 -8 l-130 -17 q-9 -2 -15.5 -9.5 q-6.5 -7.5 -6.5 -16.5 l0 -68 q0 -9 6.5 -14.5 q6.5 -5.5 15.5 -4.5 l153 19 q9 2 16 -4 q7 -6 8 -15 l6 -44 q1 -9 -4.5 -16 q-5.5 -7 -14.5 -8 l-166 -21 q-9 -1 -16 -8.5 q-7 -7.5 -7 -16.5 l-8 -128 ZM625 144 q-8 4 -10 13 q-2 9 2 17 l21 38 q4 8 13 10.5 q9 2.5 17 -1.5 l109 -60 q8 -5 11 -13.5 q3 -8.5 -2 -16.5 l-20 -38 q-5 -7 -14 -10 q-9 -3 -18 2 l-109 59 Z" /><glyph glyph-name="uni5BF9" unicode="&#x5bf9;" d="M198 516 q-9 -2 -16 3 q-7 5 -8 16 l-6 54 q-1 9 5 16.5 q6 7.5 15 9.5 l275 60 q9 1 13 -3.5 q4 -4.5 2 -13.5 l-91 -258 q-4 -8 0 -16.5 q4 -8.5 12 -11.5 l44 -15 q8 -2 13 -10.5 q5 -8.5 4 -17.5 l-15 -91 q-1 -9 -8 -13 q-7 -4 -16 -1 l-65 22 q-10 3 -18 -1 q-8 -4 -11 -13 l-78 -221 q-3 -9 -10.5 -11 q-7.5 -2 -15.5 3 l-24 20 q-7 6 -9.5 15.5 q-2.5 9.5 -0.5 18.5 l70 198 q3 9 2.5 16 q-0.5 7 -3.5 8 q-5 1 -6 8.5 q-1 7.5 0 17.5 l15 90 q1 10 8 14 q7 4 16 1 q8 -3 16 1 q8 4 11 12 l39 109 q2 8 -2 13 q-4 5 -13 2 l-144 -31 ZM519 577 q-1 9 5 17 q6 8 14 10 l144 27 q9 2 15 9.5 q6 7.5 6 17.5 l-2 32 q0 9 5.5 16 q5.5 7 14.5 8 l50 7 q9 1 15.5 -4.5 q6.5 -5.5 7.5 -14.5 l1 -26 q1 -10 4.5 -16 q3.5 -6 8.5 -5 q4 1 8 -4.5 q4 -5.5 5 -14.5 l8 -93 q0 -10 -2.5 -16.5 q-2.5 -6.5 -8.5 -8.5 q-6 -1 -9.5 -7.5 q-3.5 -6.5 -2.5 -16.5 l27 -441 q1 -9 -5.5 -16 q-6.5 -7 -15.5 -8 l-48 -7 q-10 -1 -16.5 4.5 q-6.5 5.5 -7.5 13.5 l-27 436 q0 9 -6 14 q-6 5 -17 3 l-139 -26 q-9 -1 -16 3.5 q-7 4.5 -8 14.5 l-8 92 ZM693 314 q1 -9 -4.5 -18 q-5.5 -9 -13.5 -11 l-107 -34 q-9 -3 -16 1 q-7 4 -8 15 l-8 53 q-1 9 4 17.5 q5 8.5 15 10.5 l105 35 q10 2 16.5 -2.5 q6.5 -4.5 8.5 -12.5 l8 -54 Z" /><glyph glyph-name="uni5C06" unicode="&#x5c06;" d="M223 401 q6 3 10 10.5 q4 7.5 3 14.5 l-3 25 q0 7 -5 13 q-5 6 -13 7 l-92 13 q-7 1 -11 6.5 q-4 5.5 -3 12.5 l11 77 q1 8 6.5 12 q5.5 4 12.5 3 l68 -9 q7 -1 11.5 3 q4.5 4 3.5 12 l-9 139 q-1 7 3.5 12 q4.5 5 11.5 6 l54 4 q7 1 12 -3.5 q5 -4.5 5 -11.5 l57 -759 q2 -7 -3 -12 q-5 -5 -13 -7 l-54 -3 q-5 -1 -11 3.5 q-6 4.5 -6 11.5 l-22 290 q-1 7 -5 9 q-4 2 -10 -1 l-41 -28 q-7 -3 -13.5 -2 q-6.5 1 -10.5 8 l-41 60 q-3 7 -2 13.5 q1 6.5 8 10.5 l91 60 ZM427 544 q-5 -4 -12.5 -4.5 q-7.5 -0.5 -12.5 3.5 l-48 45 q-6 5 -6.5 12 q-0.5 7 5.5 12 l132 148 q5 4 12 4.5 q7 0.5 12 -3.5 l50 -45 q4 -5 7.5 -9 q3.5 -4 2.5 -5 q-1 -1 3 -1.5 q4 -0.5 11 -0.5 l246 20 q8 2 13 -3.5 q5 -5.5 5 -12.5 l10 -96 q1 -6 -3 -14 q-4 -8 -10 -12 l-411 -235 q-5 -4 -12 -2 q-7 2 -11 7 l-20 36 q-4 7 -2 14 q2 7 9 10 l99 57 q6 4 5.5 8 q-0.5 4 -7.5 7 l-31 12 q-7 4 -9.5 9.5 q-2.5 5.5 0.5 12.5 l25 68 q4 7 10.5 10 q6.5 3 12.5 -1 l103 -40 q7 -2 11 -5.5 q4 -3.5 3 -6.5 q0 -1 3.5 -0.5 q3.5 0.5 8.5 5.5 l134 76 q5 3 10 6.5 q5 3.5 3 5.5 q0 3 -5 3.5 q-5 0.5 -11 0.5 l-207 -17 q-7 0 -12 4 q-5 4 -6 12 l-1 9 q0 6 -4 7.5 q-4 1.5 -9 -4.5 l-96 -107 ZM868 390 q7 2 12 -2.5 q5 -4.5 7 -10.5 l4 -37 q1 -6 -3 -11.5 q-4 -5.5 -11 -7.5 l-27 -4 q-7 -1 -12 -6.5 q-5 -5.5 -5 -12.5 l0 -327 q0 -7 -5 -11.5 q-5 -4.5 -13 -4.5 l-173 0 q-7 0 -12.5 4.5 q-5.5 4.5 -5.5 11.5 l0 73 q0 7 5.5 11.5 q5.5 4.5 12.5 4.5 l67 0 q7 0 12 5.5 q5 5.5 5 10.5 l0 209 q0 6 -5 10.5 q-5 4.5 -12 2.5 l-327 -43 q-7 -1 -13 3.5 q-6 4.5 -7 9.5 l-3 37 q-1 7 3 12.5 q4 5.5 11 6.5 l336 45 q7 1 12 6.5 q5 5.5 5 12.5 l0 104 q0 6 5 11 q5 5 12 5 l72 0 q8 0 13 -5 q5 -5 5 -11 l0 -89 q0 -7 5 -11.5 q5 -4.5 12 -3.5 l18 2 ZM649 128 q-2 -6 -7 -10 q-5 -4 -12 -2 l-156 26 q-7 1 -11.5 6 q-4.5 5 -3.5 12 l12 73 q2 7 7.5 11 q5.5 4 12.5 3 l156 -27 q7 -1 11 -6.5 q4 -5.5 3 -12.5 l-12 -73 Z" /><glyph glyph-name="uni5C0F" unicode="&#x5c0f;" d="M296 503 q9 -2 13 -10 q4 -8 1 -17 l-78 -238 q-3 -9 -11 -13 q-8 -4 -17 -2 l-29 10 q-8 2 -12.5 10.5 q-4.5 8.5 -1.5 17.5 l79 238 q2 9 10 13 q8 4 17 1 l29 -10 ZM509 727 q8 1 15 -5.5 q7 -6.5 7 -15.5 l12 -696 q0 -8 -5.5 -13.5 q-5.5 -5.5 -16.5 -4.5 l-201 27 q-9 1 -15 8.5 q-6 7.5 -4 17.5 l8 51 q1 10 8 15 q7 5 16 4 l90 -13 q10 -1 15.5 4.5 q5.5 5.5 5.5 15.5 l-10 582 q0 9 6 15 q6 6 16 8 l53 0 ZM837 323 q4 -9 0.5 -17 q-3.5 -8 -12.5 -13 l-52 -23 q-8 -5 -16 -1.5 q-8 3.5 -12 11.5 l-104 228 q-5 8 -1.5 16.5 q3.5 8.5 11.5 12.5 l52 24 q9 3 17 -0.5 q8 -3.5 13 -9.5 l104 -228 Z" /><glyph glyph-name="uni5C31" unicode="&#x5c31;" d="M892 31 q2 -11 -5 -18.5 q-7 -7.5 -19 -7.5 l-147 -1 q-11 0 -19 7 q-8 7 -8 19 l-20 286 q-1 12 -3 12 q-2 0 -4 -11 l-51 -253 q-2 -10 -11 -15.5 q-9 -5.5 -20 -3.5 l-34 7 q-12 2 -17.5 10.5 q-5.5 8.5 -3.5 20.5 l7 34 q2 12 -2.5 15 q-4.5 3 -13.5 -3 l-20 -14 q-9 -6 -20 -3.5 q-11 2.5 -16 11.5 l-51 75 q-7 8 -4.5 19 q2.5 11 11.5 17 l30 20 q8 6 19 3.5 q11 -2.5 17 -11.5 l43 -64 q7 -9 13 -8 q6 1 8 11 l59 291 q2 12 -4.5 20.5 q-6.5 8.5 -16.5 9.5 l-21 4 q-11 2 -17.5 10.5 q-6.5 8.5 -4.5 20.5 l5 34 q1 10 10 16.5 q9 6.5 20 5.5 l25 -5 q12 -1 21 5.5 q9 6.5 11 16.5 l14 71 q2 11 11 17 q9 6 20 4 l35 -7 q10 -2 16.5 -11 q6.5 -9 3.5 -20 l-13 -66 q-3 -12 3.5 -20.5 q6.5 -8.5 16.5 -9.5 l49 -7 q11 -3 13 1 q2 4 -7 11 l-46 41 q-8 7 -9 17.5 q-1 10.5 7 18.5 l23 27 q7 8 18 9 q11 1 19 -6 l71 -62 q8 -8 8.5 -18.5 q0.5 -10.5 -5.5 -18.5 l-10 -11 q-8 -8 -8 -14.5 q0 -6.5 7 -7.5 q7 -1 11 -9 q4 -8 2 -20 l-5 -34 q-2 -12 -10.5 -18 q-8.5 -6 -19.5 -4 l-125 18 q-10 3 -19 0 q-9 -3 -10 -8 q-1 -5 6 -8 q7 -3 18 -3 l3 1 q11 0 19 -7 q8 -7 9 -18 l21 -325 q1 -10 5 -18 q4 -8 9 -8 q3 0 6 8 q3 8 2 18 l-8 100 q-1 12 6.5 20 q7.5 8 17.5 9 l36 2 q10 2 18 -5 q8 -7 9 -19 l16 -193 ZM133 630 q-1 11 6 20 q7 9 19 10 l105 11 q12 1 19 3 q7 2 6 3 q-2 3 4 8 q6 5 16 11 l30 17 q11 6 20.5 3.5 q9.5 -2.5 15.5 -11.5 q4 -9 15.5 -14.5 q11.5 -5.5 22.5 -3.5 l118 12 q12 1 20 -5.5 q8 -6.5 9 -17.5 l5 -35 q1 -11 -6 -19.5 q-7 -8.5 -19 -9.5 l-372 -40 q-12 -2 -20 5 q-8 7 -9 19 l-5 34 ZM439 357 q0 2 -7.5 3.5 q-7.5 1.5 -18.5 1.5 l-138 4 q-12 0 -20 -4 q-8 -4 -8 -10 q-1 -6 -8.5 -9.5 q-7.5 -3.5 -18.5 -2.5 l-35 3 q-11 1 -18 8.5 q-7 7.5 -7 18.5 l11 168 q2 11 10.5 19 q8.5 8 18.5 9 l299 10 q11 0 19 -7 q8 -7 8 -18 l1 -173 q0 -10 -7.5 -18 q-7.5 -8 -18.5 -8 l-35 0 q-12 0 -19.5 1 q-7.5 1 -7.5 4 ZM412 451 q11 0 18.5 4.5 q7.5 4.5 7.5 12.5 q0 7 -7.5 12 q-7.5 5 -18.5 5 l-129 -5 q-12 0 -20 -4 q-8 -4 -8 -9 q-1 -6 6.5 -10 q7.5 -4 19.5 -4 l131 -2 ZM350 329 q11 0 19 -7.5 q8 -7.5 8 -18.5 l11 -256 q0 -10 -7.5 -17.5 q-7.5 -7.5 -19.5 -7.5 l-60 3 q-11 2 -18.5 9 q-7.5 7 -6.5 19 l1 34 q1 12 4 19.5 q3 7.5 7 6.5 q3 0 5.5 8 q2.5 8 2.5 18 l-7 161 q0 11 7.5 19 q7.5 8 17.5 8 l36 2 ZM262 231 q8 -7 10 -18 q2 -11 -5 -19 l-84 -108 q-7 -8 -18 -9.5 q-11 -1.5 -19 5.5 l-27 20 q-10 7 -11 18 q-1 11 6 19 l84 109 q7 9 17 10 q10 1 20 -5 l27 -22 Z" /><glyph glyph-name="uni5DF1" unicode="&#x5df1;" d="M788 68 q1 -12 -7 -23 q-8 -11 -21 -13 l-431 -69 q-12 -1 -22.5 6 q-10.5 7 -11.5 20 l-53 449 q-2 12 6 21 q8 9 22 7 l234 -19 q13 -1 25 7 q12 8 16 20 l36 132 q4 12 -2.5 20 q-6.5 8 -19.5 7 l-311 -22 q-13 -1 -22 7.5 q-9 8.5 -10 21.5 l-4 48 q-1 13 7 23 q8 10 22 11 l468 33 q13 1 19.5 -7 q6.5 -8 3.5 -21 l-106 -370 q-1 -7 -5.5 -12 q-4.5 -5 -10 -9 q-5.5 -4 -11.5 -6 q-6 -2 -13 -2 l-191 18 q-13 0 -21 -8 q-8 -8 -7 -21 l25 -200 q1 -13 11 -21 q10 -8 23 -6 l216 35 q13 2 21 12.5 q8 10.5 8 22.5 l-3 37 q-2 13 7 22.5 q9 9.5 22 11.5 l48 3 q12 1 22 -7.5 q10 -8.5 11 -21.5 l10 -137 l0 0 Z" /><glyph glyph-name="uni5E78" unicode="&#x5e78;" d="M213 494 q-10 0 -16.5 6.5 q-6.5 6.5 -6.5 15.5 l0 26 q0 10 6.5 16 q6.5 6 16.5 6 l574 0 q9 0 15.5 -6 q6.5 -6 6.5 -16 l0 -26 q0 -9 -6.5 -15.5 q-6.5 -6.5 -15.5 -6.5 l-574 0 ZM367 636 q-9 0 -15.5 6 q-6.5 6 -6.5 15 l0 27 q0 9 6.5 16 q6.5 7 15.5 7 l75 0 q4 0 8.5 3 q4.5 3 7.5 7 q3 4 5 8 q2 4 2 7 q0 5 6.5 8.5 q6.5 3.5 15.5 2.5 l26 0 q9 0 15.5 -9.5 q6.5 -9.5 6.5 -15.5 q0 -4 6.5 -7.5 q6.5 -3.5 15.5 -3.5 l76 0 q9 0 15.5 -7 q6.5 -7 6.5 -16 l0 -27 q0 -9 -6.5 -15 q-6.5 -6 -15.5 -6 l-76 0 q-5 0 -9 -6 q-4 -6 -7 -14 q-3 -8 -4.5 -15.5 q-1.5 -7.5 -1.5 -9.5 q0 -5 -6.5 -9 q-6.5 -4 -15.5 -4 l-26 0 q-9 0 -15.5 3.5 q-6.5 3.5 -6.5 9.5 l0 23 q0 9 -7 15.5 q-7 6.5 -16 6.5 l-75 0 ZM411 417 q8 -4 11 -13.5 q3 -9.5 -2 -17.5 l-13 -23 q-4 -8 -12.5 -10.5 q-8.5 -2.5 -17.5 2.5 l-77 41 q-6 5 -9 13.5 q-3 8.5 1 16.5 l13 23 q5 8 13.5 11 q8.5 3 16.5 -1 l76 -42 ZM710 462 q9 3 17 0 q8 -3 13 -12 l11 -24 q4 -7 0.5 -16 q-3.5 -9 -11.5 -12 l-103 -48 q-8 -3 -16.5 0.5 q-8.5 3.5 -11.5 11.5 l-12 24 q-3 8 0.5 16.5 q3.5 8.5 11.5 12.5 l101 47 ZM856 279 q0 -9 -6.5 -15.5 q-6.5 -6.5 -15.5 -6.5 l-667 -11 q-10 0 -16.5 6 q-6.5 6 -6.5 16 l0 26 q0 9 6 15.5 q6 6.5 16 7.5 l667 10 q9 0 15.5 -6 q6.5 -6 6.5 -15 l1 -27 ZM717 174 q10 0 16 -6 q6 -6 6 -15 l0 -27 q0 -9 -6 -15.5 q-6 -6.5 -16 -6.5 l-160 0 q-9 0 -15.5 -6 q-6.5 -6 -6.5 -16 l0 -85 q0 -9 -6.5 -15 q-6.5 -6 -15.5 -6 l-26 0 q-9 0 -15.5 6 q-6.5 6 -6.5 15 l0 85 q0 10 -6.5 16 q-6.5 6 -16.5 6 l-160 0 q-9 0 -15.5 6.5 q-6.5 6.5 -6.5 15.5 l0 27 q0 9 6.5 15 q6.5 6 15.5 6 l160 0 q10 0 16.5 6.5 q6.5 6.5 6.5 15.5 l0 23 q0 10 6.5 16 q6.5 6 15.5 6 l26 0 q9 0 15.5 -6 q6.5 -6 6.5 -16 l0 -23 q0 -9 6.5 -15.5 q6.5 -6.5 15.5 -6.5 l160 0 Z" /><glyph glyph-name="uni5F00" unicode="&#x5f00;" d="M848 363 q1 -10 -5 -16.5 q-6 -6.5 -16 -7.5 l-62 -4 q-9 -1 -14.5 -7 q-5.5 -6 -5.5 -16 l16 -285 q1 -10 -5.5 -16.5 q-6.5 -6.5 -15.5 -7.5 l-53 -2 q-9 -1 -15.5 5 q-6.5 6 -7.5 15 l-16 284 q0 10 -7 16 q-7 6 -16 5 l-225 -14 q-10 -1 -19 -7 q-9 -6 -14 -15 l-117 -230 q-3 -8 -12 -10.5 q-9 -2.5 -17 1.5 l-39 20 q-7 4 -10.5 12.5 q-3.5 8.5 1.5 17.5 l93 184 q5 8 1.5 13 q-3.5 5 -13.5 4 l-76 -5 q-11 0 -18 6 q-7 6 -7 15 l-2 44 q-1 8 5 15 q6 7 16 8 l110 7 q11 1 17 7 q6 6 7 17 l10 168 q1 8 7 14 q6 6 16 6 l43 -3 q10 0 15.5 -7 q5.5 -7 5.5 -16 l-9 -158 q-1 -9 5 -14.5 q6 -5.5 16 -5.5 l205 14 q10 1 16 7 q6 6 5 16 l-9 164 q0 9 -7 15.5 q-7 6.5 -16 6.5 l-334 4 q-8 0 -14 6.5 q-6 6.5 -6 15.5 l0 49 q0 9 6.5 15 q6.5 6 16.5 6 l486 -5 q9 0 15.5 -6.5 q6.5 -6.5 6.5 -16.5 l-1 -49 q0 -9 -6.5 -15 q-6.5 -6 -15.5 -5 l-13 0 q-9 0 -15.5 -6.5 q-6.5 -6.5 -6.5 -15.5 l10 -158 q1 -9 7 -14.5 q6 -5.5 16 -5.5 l62 4 q8 1 15 -5 q7 -6 8 -16 l2 -42 Z" /><glyph glyph-name="uni5F15" unicode="&#x5f15;" d="M570 396 q10 1 15 -5 q5 -6 4 -14 l-60 -381 q-1 -9 -8.5 -15 q-7.5 -6 -16.5 -6 l-216 3 q-9 0 -15.5 6.5 q-6.5 6.5 -6.5 15.5 l1 70 q0 9 6.5 15.5 q6.5 6.5 15.5 6.5 l117 -1 q10 0 17.5 6 q7.5 6 8.5 16 l20 133 q2 9 -3.5 14.5 q-5.5 5.5 -14.5 3.5 l-232 -27 q-9 -1 -15 4.5 q-6 5.5 -6 16.5 l15 282 q1 10 7.5 16 q6.5 6 15.5 5 l194 -8 q10 0 16 6.5 q6 6.5 7 14.5 l3 27 q0 10 -6 15.5 q-6 5.5 -15 5.5 l-170 -10 q-9 -1 -15.5 4.5 q-6.5 5.5 -7.5 15.5 l-5 71 q-1 9 5.5 15 q6.5 6 15.5 8 l300 18 q9 1 15.5 -4.5 q6.5 -5.5 5.5 -16.5 l-20 -268 q0 -9 -7 -15.5 q-7 -6.5 -16 -4.5 l-192 8 q-9 0 -15.5 -6.5 q-6.5 -6.5 -7.5 -14.5 l-1 -36 q-1 -9 5 -14.5 q6 -5.5 16 -4.5 l246 29 ZM818 -16 q0 -9 -6.5 -15.5 q-6.5 -6.5 -15.5 -7.5 l-87 -1 q-10 -1 -16.5 5 q-6.5 6 -6.5 15 l-17 757 q0 9 6 15.5 q6 6.5 15 6.5 l89 2 q8 0 15 -6 q7 -6 7 -16 l17 -755 Z" /><glyph glyph-name="uni5F85" unicode="&#x5f85;" d="M129 581 q-8 8 -7 19 q1 11 9 19 l139 124 q8 8 19 7 q11 -1 18 -9 l24 -27 q7 -8 6.5 -19 q-0.5 -11 -8.5 -17 l-141 -125 q-6 -8 -17 -7.5 q-11 0.5 -19 10.5 l-23 25 ZM312 469 q-7 -8 -12.5 -21 q-5.5 -13 -5.5 -25 l15 -432 q1 -11 -6.5 -19.5 q-7.5 -8.5 -18.5 -8.5 l-56 -1 q-12 -1 -19.5 6.5 q-7.5 7.5 -8.5 17.5 l-12 324 q-1 11 -4.5 14.5 q-3.5 3.5 -7.5 -2.5 q-5 -4 -14 -2.5 q-9 1.5 -17 8.5 l-42 39 q-8 7 -9 18 q-1 11 7 19 l224 243 q7 8 18.5 8.5 q11.5 0.5 18.5 -7.5 l43 -39 q8 -7 8.5 -18 q0.5 -11 -7.5 -19 l-94 -103 ZM877 425 q-11 -2 -18.5 -10 q-7.5 -8 -7.5 -19 l-1 -9 q0 -12 5.5 -19.5 q5.5 -7.5 14.5 -6.5 q10 0 16 -7.5 q6 -7.5 7 -18.5 l2 -36 q0 -10 -7 -17.5 q-7 -7.5 -16 -8.5 q-11 0 -18 -8 q-7 -8 -7 -19 l-5 -264 q-1 -12 -8.5 -18.5 q-7.5 -6.5 -19.5 -6.5 l-236 10 q-10 0 -17.5 8 q-7.5 8 -7.5 19 l3 69 q0 12 8.5 19.5 q8.5 7.5 19.5 6.5 l110 -5 q11 -1 19 7 q8 8 8 18 l3 133 q0 10 -7.5 18 q-7.5 8 -18.5 7 l-324 -10 q-12 0 -20 7.5 q-8 7.5 -8 17.5 l-1 36 q0 10 7 18 q7 8 18 9 l330 11 q12 0 19.5 8 q7.5 8 7.5 18 l0 3 q1 12 -6.5 19 q-7.5 7 -19.5 6 l-295 -25 q-12 -1 -20 6 q-8 7 -9 19 l-5 56 q-1 11 6 19.5 q7 8.5 19 9.5 l170 14 q11 1 18.5 9 q7.5 8 7.5 19 l-1 28 q-1 11 -9 18.5 q-8 7.5 -18 6.5 l-104 -4 q-10 0 -18 7.5 q-8 7.5 -10 17.5 l-1 22 q0 11 7.5 19 q7.5 8 18.5 8 l104 5 q11 1 19 8.5 q8 7.5 7 19.5 l-2 40 q0 10 7 18 q7 8 19 8 l79 4 q12 0 19 -7.5 q7 -7.5 7 -19.5 l2 -38 q1 -11 9 -18.5 q8 -7.5 18 -6.5 l57 2 q11 0 19 -7.5 q8 -7.5 8 -17.5 l1 -22 q0 -11 -7.5 -19 q-7.5 -8 -17.5 -8 l-57 -3 q-11 -1 -18.5 -8.5 q-7.5 -7.5 -7.5 -18.5 l1 -22 q0 -12 8 -19 q8 -7 19 -5 l122 10 q11 1 19 -6.5 q8 -7.5 9 -17.5 l5 -58 q1 -11 -6 -19 q-7 -8 -18 -9 l-5 0 ZM622 119 q-6 -11 -17 -12.5 q-11 -1.5 -20 4.5 l-77 53 q-9 6 -10.5 16.5 q-1.5 10.5 3.5 19.5 l20 29 q6 9 16.5 11.5 q10.5 2.5 20.5 -4.5 l77 -52 q9 -7 10.5 -17 q1.5 -10 -3.5 -20 l-20 -28 Z" /><glyph glyph-name="uni5F88" unicode="&#x5f88;" d="M138 528 q-8 9 -8 20.5 q0 11.5 8 20.5 l140 150 q8 8 19 8 q11 0 18 -8 l40 -44 q9 -8 9 -20 q0 -12 -9 -20 l-140 -151 q-8 -8 -18.5 -8 q-10.5 0 -18.5 8 l-40 44 ZM755 615 q3 11 -3 19.5 q-6 8.5 -17 8.5 l-209 0 q-11 0 -18.5 -4 q-7.5 -4 -7.5 -10 q0 -7 7.5 -11 q7.5 -4 18.5 -5 l171 -20 q12 -1 18.5 -10 q6.5 -9 5.5 -21 l-6 -62 q-1 -11 -9.5 -18 q-8.5 -7 -18.5 -6 l-161 17 q-11 2 -18.5 -5.5 q-7.5 -7.5 -7.5 -19.5 l0 -131 q0 -10 6.5 -23 q6.5 -13 16.5 -20 l89 -56 q9 -6 21.5 -4.5 q12.5 1.5 22.5 8.5 l42 38 q9 6 20 5 q11 -1 18 -10 l36 -48 q7 -10 5 -21.5 q-2 -11.5 -10 -17.5 l-10 -10 q-8 -8 -7.5 -17 q0.5 -9 9.5 -15 l67 -42 q9 -6 12 -17.5 q3 -11.5 -3 -20.5 l-29 -53 q-5 -11 -15.5 -13.5 q-10.5 -2.5 -19.5 2.5 l-248 156 q-10 7 -16.5 2 q-6.5 -5 -6.5 -17 l0 -35 q0 -12 7.5 -20.5 q7.5 -8.5 18.5 -6.5 l79 3 q12 0 20 -8 q8 -8 8 -20 l2 -61 q1 -11 -7 -19.5 q-8 -8.5 -18 -9.5 l-194 -8 q-11 0 -18.5 8 q-7.5 8 -7.5 19 l0 415 q0 12 -6.5 16 q-6.5 4 -16.5 -2 l-35 -23 q-9 -6 -16 -18.5 q-7 -12.5 -7 -23.5 l-10 -355 q0 -11 -8 -19 q-8 -8 -19 -8 l-57 2 q-11 0 -18.5 8.5 q-7.5 8.5 -7.5 20.5 l9 278 q0 12 -6.5 16 q-6.5 4 -15.5 -2 l-6 -4 q-9 -5 -19.5 -2.5 q-10.5 2.5 -15.5 13.5 l-30 53 q-6 9 -3 20.5 q3 11.5 12 18.5 l202 130 q10 5 20 3 q10 -2 17 -12 l24 -44 q5 -11 9 -9.5 q4 1.5 4 13.5 l0 144 q0 12 -1.5 20.5 q-1.5 8.5 -4.5 8.5 q-2 0 -3 8 q-1 8 -1 20 l0 62 q0 11 7.5 19.5 q7.5 8.5 17.5 8.5 l475 0 q10 0 16 -8.5 q6 -8.5 2 -18.5 l-97 -385 q-3 -12 -12.5 -19 q-9.5 -7 -21.5 -6 l-224 20 q-12 1 -18.5 9.5 q-6.5 8.5 -5.5 21.5 l4 61 q0 11 9 19.5 q9 8.5 19 6.5 l135 -12 q11 -1 20 6.5 q9 7.5 13 18.5 l36 140 Z" /><glyph glyph-name="uni5FAE" unicode="&#x5fae;" d="M123 564 q-6 4 -8 11.5 q-2 7.5 2 14.5 l71 117 q4 6 11.5 8 q7.5 2 14.5 -2 l31 -20 q7 -3 9.5 -10.5 q2.5 -7.5 -2.5 -14.5 l-70 -118 q-5 -6 -12.5 -8 q-7.5 -2 -14.5 3 l-32 19 ZM345 649 q6 -4 7 -12 q1 -8 -3 -14 l-80 -100 q-4 -6 -7.5 -15.5 q-3.5 -9.5 -3.5 -18.5 l-12 -474 q0 -7 -5.5 -13 q-5.5 -6 -13.5 -6 l-37 1 q-8 0 -13.5 6 q-5.5 6 -5.5 14 l10 376 q0 7 -3.5 8 q-3.5 1 -8.5 -5 l-30 -36 q-4 -7 -11.5 -8 q-7.5 -1 -13.5 4 l-30 23 q-7 5 -7.5 12.5 q-0.5 7.5 4.5 14.5 l208 263 q6 7 13 7.5 q7 0.5 13 -4.5 l30 -23 ZM589 664 q8 -1 13 -6.5 q5 -5.5 4 -13.5 l-18 -207 q0 -8 -6 -14.5 q-6 -6.5 -14 -7.5 l-269 -49 q-8 -1 -12 3 q-4 4 -3 12 l37 172 q2 8 8.5 12 q6.5 4 14.5 3 l11 -3 q9 -2 13 -8.5 q4 -6.5 2 -14.5 l-21 -99 q-2 -8 2 -12 q4 -4 11 -2 l160 28 q7 1 13 7.5 q6 6.5 7 14.5 l15 169 q0 8 6 12.5 q6 4.5 13 4.5 l13 -1 ZM442 461 q-8 0 -13.5 5.5 q-5.5 5.5 -5.5 13.5 l10 208 q0 8 5 13.5 q5 5.5 13 5.5 l38 -2 q8 0 12.5 -6 q4.5 -6 4.5 -14 l-8 -208 q0 -8 -5.5 -13.5 q-5.5 -5.5 -13.5 -5.5 l-37 3 ZM335 297 q-8 -1 -14.5 3.5 q-6.5 4.5 -7.5 13.5 l-1 12 q-1 7 3 13.5 q4 6.5 12 7.5 l214 34 q8 2 14 -3 q6 -5 7 -13 l3 -12 q1 -7 -3.5 -13.5 q-4.5 -6.5 -12.5 -7.5 l-214 -35 ZM575 75 q2 -8 -1 -14 q-3 -6 -12 -9 l-121 -39 q-8 -3 -12.5 0.5 q-4.5 3.5 -2.5 11.5 l32 165 q1 9 -3 13.5 q-4 4.5 -12 3.5 l-63 -11 q-8 -1 -14 -7.5 q-6 -6.5 -7 -12.5 l-18 -135 q-2 -8 -7.5 -12.5 q-5.5 -4.5 -13.5 -3.5 l-29 4 q-8 2 -12.5 7.5 q-4.5 5.5 -3.5 13.5 l24 183 q1 8 7.5 14.5 q6.5 6.5 14.5 6.5 l205 32 q7 1 11.5 -3.5 q4.5 -4.5 3.5 -11.5 l-29 -150 q-2 -8 2.5 -10.5 q4.5 -2.5 11.5 -0.5 l17 5 q7 2 14 -1.5 q7 -3.5 9 -10.5 l9 -28 ZM795 300 q-3 -7 -3.5 -17.5 q-0.5 -10.5 2.5 -17.5 l84 -226 q2 -7 -1.5 -14 q-3.5 -7 -10.5 -10 l-48 -18 q-7 -2 -14 1.5 q-7 3.5 -9 10.5 l-51 138 q-3 8 -7 8 q-4 0 -7 -8 l-61 -143 q-3 -7 -10.5 -9.5 q-7.5 -2.5 -14.5 -0.5 l-34 15 q-7 3 -10 10 q-3 7 0 15 l92 216 q4 7 4 17 q0 10 -2 18 l-48 127 q-2 8 1 15 q3 7 11 10 l47 17 q8 3 14.5 -0.5 q6.5 -3.5 9.5 -10.5 l15 -41 q2 -7 6.5 -7 q4.5 0 7.5 7 l45 106 q2 7 -1 11.5 q-3 4.5 -11 3.5 l-161 -20 q-8 -1 -12 3.5 q-4 4.5 -1 11.5 l50 193 q2 8 8.5 12.5 q6.5 4.5 14.5 1.5 l36 -10 q8 -1 12 -8 q4 -7 2 -14 l-23 -86 q-3 -8 1 -12.5 q4 -4.5 12 -3.5 l181 22 q8 1 11 -4 q3 -5 0 -11 l-127 -298 Z" /><glyph glyph-name="uni5FC3" unicode="&#x5fc3;" d="M238 596 q10 -2 14.5 -9.5 q4.5 -7.5 0.5 -16.5 l-86 -318 q-3 -8 -10.5 -13 q-7.5 -5 -16.5 -2 l-26 7 q-8 3 -12.5 11 q-4.5 8 -2.5 17 l88 316 q2 9 10 14 q8 5 16 2 l25 -8 ZM885 212 q9 -2 13 -10 q4 -8 2 -16 l-27 -82 q-2 -9 -10.5 -14 q-8.5 -5 -17.5 -5 l-562 47 q-9 1 -15.5 7 q-6.5 6 -6.5 16 l0 310 q0 8 6.5 15 q6.5 7 15.5 7 l44 0 q9 0 16 -7 q7 -7 7 -15 l0 -230 q0 -9 6 -16 q6 -7 16 -8 l409 -32 q11 -1 19 4 q8 5 10 14 l6 14 q2 9 10 13 q8 4 17 2 l42 -14 ZM500 477 q8 7 16.5 5.5 q8.5 -1.5 14.5 -9.5 l87 -111 q6 -8 4.5 -17 q-1.5 -9 -7.5 -14 l-21 -16 q-7 -7 -16 -6 q-9 1 -14 9 l-89 112 q-5 8 -4 16.5 q1 8.5 8 14.5 l21 16 ZM733 632 q8 5 16.5 2.5 q8.5 -2.5 13.5 -10.5 l114 -191 q4 -8 2 -17 q-2 -9 -10 -14 l-38 -22 q-7 -3 -16.5 -1.5 q-9.5 1.5 -13.5 9.5 l-114 191 q-3 8 -1.5 17 q1.5 9 9.5 14 l38 22 Z" /><glyph glyph-name="uni5FD8" unicode="&#x5fd8;" d="M186 524 q-8 -1 -14 4 q-6 5 -6 13 l-2 38 q-1 7 4 12.5 q5 5.5 13 6.5 l242 17 q8 1 10 6 q2 5 -1 11 l-31 50 q-4 7 -2 14.5 q2 7.5 9 11.5 l74 45 q6 4 13.5 2.5 q7.5 -1.5 12.5 -8.5 l50 -85 q5 -7 3 -14.5 q-2 -7.5 -8 -11.5 l-7 -4 q-7 -4 -6.5 -6.5 q0.5 -2.5 8.5 -1.5 l287 19 q8 0 14 -5 q6 -5 7 -12 l2 -38 q0 -7 -5 -13 q-5 -6 -13 -6 l-383 -27 q-8 -1 -16 -5.5 q-8 -4.5 -12 -11.5 l-69 -131 q-3 -6 0 -10.5 q3 -4.5 11 -4.5 l421 21 q8 1 13.5 -4.5 q5.5 -5.5 5.5 -13.5 l3 -38 q1 -7 -5 -12.5 q-6 -5.5 -14 -6.5 l-552 -28 q-8 0 -11 4.5 q-3 4.5 1 11.5 l109 205 q4 7 1 11.5 q-3 4.5 -11 3.5 l-146 -9 ZM202 195 q8 -1 12 -7.5 q4 -6.5 3 -14.5 l-14 -104 q-1 -8 -7.5 -12.5 q-6.5 -4.5 -14.5 -3.5 l-37 5 q-8 1 -12.5 7.5 q-4.5 6.5 -3.5 13.5 l15 104 q1 8 7.5 13 q6.5 5 14.5 3 l37 -4 ZM814 122 q6 -1 11 -7 q5 -6 4 -13 l-19 -121 q-1 -8 -7.5 -13 q-6.5 -5 -13.5 -5 l-501 23 q-8 1 -15 6 q-7 5 -8 13 l-40 147 q-3 8 1.5 15 q4.5 7 12.5 8 l48 14 q8 2 14.5 -2 q6.5 -4 8.5 -12 l23 -85 q2 -8 9 -13 q7 -5 15 -6 l357 -16 q8 -2 14 3.5 q6 5.5 7 13.5 l7 42 q1 8 7 12 q6 4 14 3 l51 -7 ZM565 220 q7 -3 9 -10.5 q2 -7.5 -2 -14.5 l-25 -44 q-4 -7 -11.5 -9 q-7.5 -2 -14.5 2 l-134 76 q-7 4 -9.5 11.5 q-2.5 7.5 2.5 13.5 l25 44 q4 7 11.5 9.5 q7.5 2.5 14.5 -2.5 l134 -76 ZM863 220 q7 -3 8.5 -11 q1.5 -8 -1.5 -14 l-27 -44 q-3 -7 -10.5 -8.5 q-7.5 -1.5 -14.5 1.5 l-98 58 q-6 4 -8 11.5 q-2 7.5 2 14.5 l26 44 q3 6 10.5 8 q7.5 2 14.5 -2 l98 -58 Z" /><glyph glyph-name="uni603B" unicode="&#x603b;" d="M181 614 q-1 9 4.5 15.5 q5.5 6.5 14.5 6.5 l109 0 q9 0 11 5 q2 5 -2 12 l-28 37 q-6 7 -4 16 q2 9 9 14 l46 34 q7 6 16 4.5 q9 -1.5 15 -9.5 l71 -96 q6 -7 16.5 -12 q10.5 -5 19.5 -5 l95 0 q9 0 19.5 5 q10.5 5 16.5 11 l76 91 q6 6 15 7.5 q9 1.5 16 -5.5 l19 -16 q8 -7 9 -15.5 q1 -8.5 -5 -15.5 l-38 -46 q-6 -6 -3.5 -11 q2.5 -5 11.5 -5 l111 0 q10 0 14 -6.5 q4 -6.5 0 -14.5 l-107 -289 q-2 -9 -10.5 -12.5 q-8.5 -3.5 -16.5 -1.5 l-53 21 q-9 2 -12.5 11 q-3.5 9 -1.5 17 l56 153 q4 8 0 14 q-4 6 -13 6 l-365 0 q-9 0 -15 -6 q-6 -6 -5 -15 l7 -86 q2 -10 8.5 -15 q6.5 -5 16.5 -4 l264 25 q9 1 16 -4.5 q7 -5.5 8 -14.5 l6 -58 q1 -9 -4.5 -15.5 q-5.5 -6.5 -16.5 -7.5 l-364 -37 q-10 -1 -16.5 5.5 q-6.5 6.5 -7.5 14.5 l-28 298 ZM142 40 q-8 4 -11 12.5 q-3 8.5 0 17.5 l48 102 q4 9 12.5 12.5 q8.5 3.5 17.5 -0.5 l21 -11 q8 -3 13.5 0.5 q5.5 3.5 4.5 12.5 l-6 32 q-1 9 4 16.5 q5 7.5 15 8.5 l43 6 q9 1 16.5 -4 q7.5 -5 8.5 -14 l23 -160 q1 -9 8.5 -15.5 q7.5 -6.5 17.5 -6.5 l316 0 q9 0 12 6 q3 6 -2 14 l-3 5 q-5 8 -2.5 17 q2.5 9 9.5 13 l38 23 q8 5 16.5 2.5 q8.5 -2.5 12.5 -10.5 l86 -139 q4 -8 1 -13.5 q-3 -5.5 -12 -5.5 l-548 0 q-10 0 -17 6.5 q-7 6.5 -9 14.5 l-13 100 q-2 11 -6 11 q-4 0 -7 -8 l-27 -58 q-3 -8 -11.5 -11.5 q-8.5 -3.5 -16.5 1.5 l-53 23 ZM555 228 q5 -6 16.5 -8 q11.5 -2 18.5 2 l179 79 q8 5 16.5 1.5 q8.5 -3.5 11.5 -11.5 l72 -157 q3 -8 0 -16.5 q-3 -8.5 -12 -12.5 l-24 -10 q-8 -3 -16.5 -0.5 q-8.5 2.5 -12.5 10.5 l-41 92 q-5 8 -13.5 11.5 q-8.5 3.5 -16.5 0.5 l-155 -69 q-8 -5 -19 -3 q-11 2 -18 8 l-85 78 q-7 7 -7.5 15.5 q-0.5 8.5 6.5 15.5 l17 19 q6 7 15 7.5 q9 0.5 16 -4.5 l52 -48 Z" /><glyph glyph-name="uni6089" unicode="&#x6089;" d="M210 687 q-1 12 6 20 q7 8 18 9 l437 42 q10 1 19 -6.5 q9 -7.5 10 -18.5 l3 -35 q1 -11 -5.5 -19.5 q-6.5 -8.5 -18.5 -9.5 l-437 -40 q-11 -1 -19 5.5 q-8 6.5 -10 18.5 l-3 34 ZM397 531 q10 -6 12 -17 q2 -11 -5 -19 l-18 -29 q-7 -10 -17.5 -12 q-10.5 -2 -20.5 3 l-116 79 q-11 5 -12.5 15.5 q-1.5 10.5 4.5 19.5 l19 30 q6 9 16.5 11.5 q10.5 2.5 20.5 -4.5 l117 -77 ZM135 333 q-11 -1 -19 6 q-8 7 -10 18 l-2 35 q-1 11 6 19.5 q7 8.5 18 9.5 l276 23 q11 1 18.5 9 q7.5 8 7.5 18 l-8 136 q-2 11 5.5 19.5 q7.5 8.5 18.5 8.5 l62 3 q11 1 18.5 -6.5 q7.5 -7.5 8.5 -17.5 l8 -132 q0 -12 8.5 -19 q8.5 -7 19.5 -6 l27 3 q10 1 11 5 q1 4 -8 10 q-10 4 -13 14.5 q-3 10.5 3 20.5 l53 95 q4 9 15 12 q11 3 20 -2 l30 -17 q10 -6 13 -16.5 q3 -10.5 -1 -19.5 l-42 -73 q-6 -11 -2 -16.5 q4 -5.5 16 -4.5 l71 6 q11 1 19.5 -6 q8.5 -7 9.5 -19 l2 -34 q1 -12 -5.5 -20 q-6.5 -8 -18.5 -9 l-195 -16 q-12 -1 -19 -9.5 q-7 -8.5 -5 -19.5 l2 -48 q1 -11 -6.5 -18.5 q-7.5 -7.5 -18.5 -9.5 l-61 -3 q-12 -1 -20 6.5 q-8 7.5 -9 17.5 l-2 45 q-2 11 -9.5 18 q-7.5 7 -18.5 6 l-274 -22 ZM163 140 q-9 -3 -19.5 0.5 q-10.5 3.5 -15.5 12.5 l-16 31 q-4 10 0 20.5 q4 10.5 13 14.5 l238 117 q9 4 19.5 0 q10.5 -4 14.5 -13 l15 -32 q6 -9 2.5 -19.5 q-3.5 -10.5 -13.5 -15.5 l-238 -116 ZM644 338 q3 10 12 15.5 q9 5.5 20 1.5 l160 -45 q10 -3 15 -12.5 q5 -9.5 2 -19.5 l-14 -51 q-3 -11 -12.5 -16 q-9.5 -5 -20.5 -3 l-159 47 q-10 2 -15.5 12 q-5.5 10 -2.5 20 l15 51 ZM217 76 q10 -5 14 -14.5 q4 -9.5 0 -20.5 l-29 -63 q-5 -9 -14.5 -13.5 q-9.5 -4.5 -18.5 -0.5 l-34 14 q-9 5 -13 15 q-4 10 1 21 l27 63 q5 10 14.5 13.5 q9.5 3.5 20.5 -1.5 l32 -13 ZM711 179 q12 -2 17.5 -11.5 q5.5 -9.5 2.5 -19.5 l-28 -124 q-2 -10 -11 -18.5 q-9 -8.5 -20 -9.5 l-362 -31 q-11 -1 -21 5.5 q-10 6.5 -13 16.5 l-46 134 q-4 10 1 19.5 q5 9.5 16 13.5 l33 11 q10 4 20 -0.5 q10 -4.5 13 -15.5 l23 -68 q4 -11 14.5 -17.5 q10.5 -6.5 20.5 -5.5 l229 20 q11 1 20.5 9 q9.5 8 11.5 19 l14 61 q2 11 11.5 17 q9.5 6 19.5 3 l34 -8 ZM525 192 q10 -4 15.5 -13.5 q5.5 -9.5 1.5 -18.5 l-10 -35 q-3 -10 -13 -15.5 q-10 -5.5 -20 -1.5 l-71 23 q-10 2 -15 12 q-5 10 -2 20 l11 33 q3 12 13 16.5 q10 4.5 20 1.5 l70 -22 ZM894 75 q5 -10 1 -20 q-4 -10 -13 -15 l-48 -23 q-10 -3 -20.5 0 q-10.5 3 -14.5 14 l-40 86 q-5 9 -1 19.5 q4 10.5 13 15.5 l47 23 q11 4 21 0 q10 -4 15 -14 l40 -86 Z" /><glyph glyph-name="uni60C5" unicode="&#x60c5;" d="M204 373 q-2 -9 -9.5 -14 q-7.5 -5 -16.5 -4 l-43 6 q-10 1 -15 7.5 q-5 6.5 -4 17.5 l27 188 q1 10 8.5 15 q7.5 5 15.5 4 l43 -6 q10 -1 15.5 -8.5 q5.5 -7.5 4.5 -15.5 l-26 -190 ZM883 420 q1 -9 -5 -15.5 q-6 -6.5 -15 -7.5 l-357 -24 q-9 0 -9 -1.5 q0 -1.5 9 -2.5 l279 -43 q11 -1 17 -8.5 q6 -7.5 8 -16.5 l26 -265 q1 -9 -4.5 -16 q-5.5 -7 -14.5 -8 l-44 -5 q-11 -1 -17 5 q-6 6 -7 15 l-20 197 q-1 9 -8 16.5 q-7 7.5 -16 8.5 l-124 20 q-9 1 -16 -3 q-7 -4 -8 -12 q-2 -7 4 -14 q6 -7 14 -8 l79 -15 q10 -3 15 -10 q5 -7 3 -17 q-2 -8 -9 -13 q-7 -5 -17 -4 l-77 15 q-9 1 -16.5 -3.5 q-7.5 -4.5 -7.5 -13.5 l-6 -39 q-1 -10 4.5 -15.5 q5.5 -5.5 15.5 -5.5 l113 5 q9 1 15 -5 q6 -6 8 -15 l1 -22 q0 -10 -6 -16.5 q-6 -6.5 -16 -6.5 l-125 -7 q-8 0 -15.5 -6 q-7.5 -6 -9.5 -17 l-2 -9 q-1 -9 -8 -14 q-7 -5 -16 -4 l-44 5 q-9 2 -14.5 8 q-5.5 6 -4.5 14 q1 8 -4 13.5 q-5 5.5 -15 4.5 l-34 -2 q-9 -1 -15.5 5 q-6.5 6 -7.5 16 l-1 22 q0 8 5.5 15 q5.5 7 14.5 8 l48 2 q9 0 16.5 6.5 q7.5 6.5 7.5 15.5 l31 223 q1 9 -4 15 q-5 6 -15 6 l-62 -5 q-9 -1 -16 5 q-7 6 -7 16 l-2 23 q0 9 -7 14.5 q-7 5.5 -16 3.5 l-17 -2 q-10 -1 -16.5 -8.5 q-6.5 -7.5 -7.5 -16.5 l-30 -371 q-2 -9 -8.5 -14.5 q-6.5 -5.5 -16.5 -5.5 l-43 4 q-9 2 -15.5 8 q-6.5 6 -5.5 15 l54 636 q1 10 7.5 15.5 q6.5 5.5 15.5 4.5 l44 -4 q10 -1 16 -7 q6 -6 5 -17 l-12 -131 q0 -9 6 -14 q6 -5 15 -4 l28 4 q9 2 16 -3.5 q7 -5.5 9 -14.5 l4 -26 q1 -9 8.5 -15 q7.5 -6 17.5 -5 l140 9 q9 1 15.5 5 q6.5 4 7.5 9 q0 6 -6.5 9.5 q-6.5 3.5 -15.5 1.5 l-83 -3 q-9 -1 -15.5 5.5 q-6.5 6.5 -7.5 15.5 q0 9 6 15.5 q6 6.5 15 7.5 l87 3 q9 1 16 6 q7 5 7 11 q0 6 -6 10.5 q-6 4.5 -16 4.5 l-108 3 q-10 1 -16 7 q-6 6 -6 16 l2 43 q0 10 6 16 q6 6 15 6 l112 -2 q9 0 16 5.5 q7 5.5 7 16.5 l1 26 q1 9 8 15.5 q7 6.5 15 5.5 l45 -2 q9 0 15.5 -7 q6.5 -7 5.5 -16 l-1 -25 q-2 -9 4.5 -15 q6.5 -6 15.5 -6 l101 -3 q10 0 16 -6 q6 -6 5 -17 l0 -43 q-1 -10 -7.5 -16 q-6.5 -6 -15.5 -5 l-103 1 q-10 1 -16 -3 q-6 -4 -7 -8 q0 -6 6 -9.5 q6 -3.5 16 -2.5 l87 4 q9 1 15.5 -5.5 q6.5 -6.5 7.5 -15.5 q0 -9 -6 -15.5 q-6 -6.5 -15 -7.5 l-92 -5 q-9 0 -15.5 -3.5 q-6.5 -3.5 -7.5 -7.5 q0 -5 6.5 -8.5 q6.5 -3.5 15.5 -2.5 l159 11 q9 1 16 -5.5 q7 -6.5 8 -14.5 l2 -45 Z" /><glyph glyph-name="uni60DC" unicode="&#x60dc;" d="M187 521 q11 -1 18 -10 q7 -9 6 -19 l-18 -222 q-2 -11 -10 -18 q-8 -7 -18 -6 l-36 3 q-10 1 -17.5 9.5 q-7.5 8.5 -6.5 19.5 l19 221 q1 11 9 18 q8 7 18 6 l36 -2 ZM421 460 q8 -8 9.5 -19 q1.5 -11 -6.5 -18 l-23 -26 q-8 -9 -19 -10 q-11 -1 -19 7 l-4 3 q-8 6 -13.5 4 q-5.5 -2 -5.5 -14 l2 -392 q0 -10 -7.5 -17.5 q-7.5 -7.5 -18.5 -7.5 l-61 -1 q-12 0 -19.5 7.5 q-7.5 7.5 -7.5 18.5 l-4 737 q0 11 7.5 19 q7.5 8 18.5 8 l62 0 q11 0 18 -7.5 q7 -7.5 7 -18.5 l2 -174 q0 -12 6 -24.5 q6 -12.5 14 -19.5 l62 -55 ZM894 385 q1 -11 -6 -19.5 q-7 -8.5 -18 -9.5 l-412 -35 q-11 -2 -19 5 q-8 7 -10 19 l-3 43 q-1 12 6 20 q7 8 18 9 l226 20 q11 1 18.5 9 q7.5 8 7.5 20 l0 79 q0 11 -7.5 18.5 q-7.5 7.5 -18.5 6.5 l-48 -1 q-10 0 -17.5 -8 q-7.5 -8 -6.5 -20 l6 -74 q0 -12 -7 -20 q-7 -8 -18 -8 l-35 -3 q-11 -2 -19 5.5 q-8 7.5 -10 19.5 l-4 77 q-1 11 -9 18.5 q-8 7.5 -20 6.5 l-8 0 q-11 0 -18.5 7 q-7.5 7 -9.5 19 l-1 34 q-1 12 6.5 20 q7.5 8 19.5 8 l4 0 q12 1 19.5 8.5 q7.5 7.5 6.5 18.5 l-2 8 q-1 11 6.5 19 q7.5 8 18.5 9 l35 2 q12 1 20 -5.5 q8 -6.5 9 -18.5 l0 -10 q1 -11 9 -18.5 q8 -7.5 20 -7.5 l53 3 q11 1 18.5 8.5 q7.5 7.5 7.5 18.5 l0 27 q0 10 7.5 17.5 q7.5 7.5 18.5 7.5 l63 0 q10 0 17.5 -7.5 q7.5 -7.5 7.5 -17.5 l0 -22 q0 -12 6.5 -19.5 q6.5 -7.5 15.5 -7.5 q9 2 15.5 -5.5 q6.5 -7.5 7.5 -18.5 l1 -35 q1 -12 -6 -19.5 q-7 -7.5 -16 -8.5 q-10 0 -17 -8 q-7 -8 -7 -20 l0 -74 q0 -11 8 -18.5 q8 -7.5 18 -5.5 l20 2 q10 1 18 -6 q8 -7 9 -18 l5 -44 ZM840 313 q12 1 19 -6.5 q7 -7.5 7 -19.5 l13 -301 q0 -12 -7.5 -19 q-7.5 -7 -17.5 -7 l-380 0 q-11 0 -17.5 7 q-6.5 7 -4.5 19 l12 79 q1 11 -4 18.5 q-5 7.5 -14 7.5 q-10 0 -16 7.5 q-6 7.5 -6 18.5 l0 27 q0 11 7.5 18.5 q7.5 7.5 18.5 7.5 l2 0 q12 0 20.5 7.5 q8.5 7.5 9.5 17.5 l12 80 q2 10 10.5 18 q8.5 8 20.5 9 l315 11 ZM753 56 q11 0 18.5 7.5 q7.5 7.5 6.5 19.5 l-4 104 q-1 12 -8.5 19.5 q-7.5 7.5 -18.5 6.5 l-138 -5 q-12 0 -20.5 -6 q-8.5 -6 -9.5 -14 q-1 -8 6 -13 q7 -5 18 -5 l84 0 q12 0 19.5 -7.5 q7.5 -7.5 7.5 -18.5 l0 -27 q0 -11 -7.5 -18.5 q-7.5 -7.5 -19.5 -7.5 l-95 0 q-12 0 -20 -5 q-8 -5 -9 -13 q-1 -7 6 -12 q7 -5 17 -5 l167 0 Z" /></font>
</defs>
</svg>
